<?xml version="1.0" encoding="utf-8"?>
<!-- Generator: Adobe Illustrator 27.7.0, SVG Export Plug-In . SVG Version: 6.00 Build 0)  -->
<svg version="1.1" id="Layer_1" xmlns="http://www.w3.org/2000/svg" xmlns:xlink="http://www.w3.org/1999/xlink" x="0px" y="0px"
	 viewBox="0 0 30 19.6" style="enable-background:new 0 0 30 19.6;" xml:space="preserve">
<style type="text/css">
	.st0{fill:#FFFFFF;}
</style>
<g>
	<path class="st0" d="M13.6,17.9V9.8c0-0.7-0.5-1.2-1.2-1.2H9.3c-0.7,0-1.2,0.5-1.2,1.2c0,0.7,0.5,1.2,1.2,1.2h1.8v5.8H2.5v-6.5
		l7.1-7.8c0.5-0.5,0.4-1.3-0.1-1.7C9.3,0.5,9,0.4,8.7,0.4c-0.3,0-0.6,0.1-0.9,0.4L0.4,9C0.2,9.2,0.2,9.5,0.2,9.8l0,8.1
		c0,0.7,0.5,1.2,1.2,1.2h11C13.1,19.1,13.6,18.6,13.6,17.9z"/>
	<path class="st0" d="M28.6,8.5h-3.1c-0.7,0-1.2,0.5-1.2,1.2c0,0.7,0.5,1.2,1.2,1.2h1.8v5.8h-8.6v-6.5l7.1-7.8
		c0.5-0.5,0.4-1.3-0.1-1.7c-0.2-0.2-0.5-0.3-0.8-0.3c-0.3,0-0.6,0.1-0.9,0.4l-7.4,8.1c-0.2,0.2-0.3,0.5-0.3,0.8v8.2
		c0,0.7,0.5,1.2,1.2,1.2h11c0.7,0,1.2-0.5,1.2-1.2V9.8C29.8,9.1,29.3,8.5,28.6,8.5L28.6,8.5z"/>
</g>
</svg>
