<?xml version="1.0" encoding="utf-8"?>
<!-- Generator: Adobe Illustrator 27.7.0, SVG Export Plug-In . SVG Version: 6.00 Build 0)  -->
<svg version="1.1" id="Layer_1" xmlns="http://www.w3.org/2000/svg" xmlns:xlink="http://www.w3.org/1999/xlink" x="0px" y="0px"
	 viewBox="0 0 23.6 23.4" style="enable-background:new 0 0 23.6 23.4;" xml:space="preserve">
<style type="text/css">
	.st0{fill:#4D4E4F;}
</style>
<g>
	<path class="st0" d="M7.3,12.4c-0.4-0.4-0.4-1,0-1.4s1-0.4,1.4,0l2.2,2.2V1.4c0-0.5,0.4-1,1-1c0.5,0,1,0.4,1,1v11.8L15,11
		c0.4-0.4,1-0.4,1.4,0s0.4,1,0,1.4l-3.9,3.9c-0.2,0.2-0.4,0.3-0.7,0.3s-0.5-0.1-0.7-0.3L7.3,12.4L7.3,12.4z M22.1,14.6
		c-0.5,0-1,0.4-1,1v3.9c0,0.9-0.7,1.6-1.6,1.6H4.1c-0.9,0-1.6-0.7-1.6-1.6v-3.9c0-0.5-0.4-1-1-1s-1,0.4-1,1v3.9c0,2,1.6,3.5,3.5,3.5
		h15.4c2,0,3.5-1.6,3.5-3.5v-3.9C23.1,15,22.6,14.6,22.1,14.6z"/>
</g>
</svg>
