<?xml version="1.0" encoding="utf-8"?>
<!-- Generator: Adobe Illustrator 27.7.0, SVG Export Plug-In . SVG Version: 6.00 Build 0)  -->
<svg version="1.1" id="Layer_1" xmlns="http://www.w3.org/2000/svg" xmlns:xlink="http://www.w3.org/1999/xlink" x="0px" y="0px"
	 viewBox="0 0 16.3 29.2" style="enable-background:new 0 0 16.3 29.2;" xml:space="preserve">
<style type="text/css">
	.st0{fill-rule:evenodd;clip-rule:evenodd;fill:#FFFFFF;stroke:#FFFFFF;stroke-miterlimit:10;}
</style>
<g>
	<g>
		<path class="st0" d="M3.9,16.2v12c0,0.2,0.2,0.4,0.4,0.4h5.9c0.2,0,0.4-0.2,0.4-0.4V15.9h4.3c0.2,0,0.4-0.2,0.4-0.4l0.4-4.9
			c0-0.2-0.2-0.4-0.4-0.4h-4.7V7.7c0-0.8,0.7-1.5,1.5-1.5h3.3c0.2,0,0.4-0.2,0.4-0.4V1c0-0.2-0.2-0.4-0.4-0.4H9.8
			c-3.3,0-5.9,2.6-5.9,5.9v3.7H1c-0.2,0-0.4,0.2-0.4,0.4v4.9c0,0.2,0.2,0.4,0.4,0.4h2.9V16.2z"/>
	</g>
</g>
</svg>
