<?xml version="1.0" encoding="utf-8"?>
<!-- Generator: Adobe Illustrator 27.7.0, SVG Export Plug-In . SVG Version: 6.00 Build 0)  -->
<svg version="1.1" id="Layer_1" xmlns="http://www.w3.org/2000/svg" xmlns:xlink="http://www.w3.org/1999/xlink" x="0px" y="0px"
	 viewBox="0 0 30.2 29.2" style="enable-background:new 0 0 30.2 29.2;" xml:space="preserve">
<style type="text/css">
	.st0{fill:#FFFFFF;stroke:#FFFFFF;stroke-miterlimit:10;}
</style>
<g>
	<g>
		<g>
			<g>
				<path class="st0" d="M29.7,17.8v10.3c0,0.3-0.2,0.5-0.5,0.5h-5.3c-0.3,0-0.5-0.2-0.5-0.5v-9.6c0-2.5-0.9-4.3-3.2-4.3
					c-1.7,0-2.8,1.2-3.2,2.3c-0.2,0.4-0.2,1-0.2,1.5v10c0,0.3-0.2,0.5-0.5,0.5h-5.3c-0.3,0-0.5-0.2-0.5-0.5c0-2.6,0.1-15,0-17.9
					c0-0.3,0.2-0.5,0.5-0.5h5.3c0.3,0,0.5,0.2,0.5,0.5v2.2c0,0,0,0,0,0.1h0v-0.1c0.8-1.3,2.3-3.1,5.6-3.1
					C26.6,9.3,29.7,12,29.7,17.8L29.7,17.8z M1.3,28.5h5.3c0.3,0,0.5-0.2,0.5-0.5V10.2c0-0.3-0.2-0.5-0.5-0.5H1.3
					c-0.3,0-0.5,0.2-0.5,0.5v17.9C0.9,28.3,1.1,28.5,1.3,28.5z"/>
			</g>
		</g>
	</g>
	<g>
		<path class="st0" d="M7.2,4c0,1.8-1.5,3.3-3.3,3.3S0.5,5.8,0.5,4S2,0.6,3.8,0.6S7.2,2.1,7.2,4z"/>
	</g>
</g>
</svg>
