<?xml version="1.0" encoding="utf-8"?>
<!-- Generator: Adobe Illustrator 27.7.0, SVG Export Plug-In . SVG Version: 6.00 Build 0)  -->
<svg version="1.1" id="Layer_1" xmlns="http://www.w3.org/2000/svg" xmlns:xlink="http://www.w3.org/1999/xlink" x="0px" y="0px"
	 viewBox="0 0 280 176.5" style="enable-background:new 0 0 280 176.5;" xml:space="preserve">
<style type="text/css">
	.st0{fill:none;}
	
		.st1{clip-path:url(#SVGID_00000090260723568161503340000014641136407799841159_);fill:url(#SVGID_00000103958318995271133720000015586500940216567937_);}
	
		.st2{clip-path:url(#SVGID_00000179621695456153427900000012794519162795658431_);fill:url(#SVGID_00000167366221266521590640000012031355060941874331_);}
	
		.st3{clip-path:url(#SVGID_00000150805408313496931270000007970478571690062220_);fill:url(#SVGID_00000016067435087033734430000013042577403825621180_);}
	
		.st4{clip-path:url(#SVGID_00000075843385836835531890000013441012365511429822_);fill:url(#SVGID_00000054986968459551681710000007805297904708629951_);}
	
		.st5{clip-path:url(#SVGID_00000020391823443130142090000006742153739486436515_);fill:url(#SVGID_00000141432663554025470080000013260994525999298489_);}
	
		.st6{clip-path:url(#SVGID_00000164502261826771404230000001580327650131814582_);fill:url(#SVGID_00000096019986510719417260000014228730756732456350_);}
	
		.st7{clip-path:url(#SVGID_00000114069140049194966920000000048187699634667656_);fill:url(#SVGID_00000111874480636609418500000012834100508409964678_);}
	
		.st8{clip-path:url(#SVGID_00000142868448141577436800000004676696595504743563_);fill:url(#SVGID_00000053515597938270208220000015850191496110549634_);}
	
		.st9{clip-path:url(#SVGID_00000168106404253520317000000013850533515952160182_);fill:url(#SVGID_00000100372396172735109110000003488861295581758899_);}
	
		.st10{clip-path:url(#SVGID_00000121985094888685143250000017421950575504967349_);fill:url(#SVGID_00000058585963387708318420000003113724812511603637_);}
	
		.st11{clip-path:url(#SVGID_00000037660550937422109470000011853317285667745183_);fill:url(#SVGID_00000077294129807293164250000017529416532653983877_);}
	
		.st12{clip-path:url(#SVGID_00000148646256921645469920000017251543575624009098_);fill:url(#SVGID_00000092443485648433895900000012054410800958580662_);}
</style>
<g>
	<path d="M11.6,171.7L11.6,171.7c0.4-1.1,1.5-4.7,1.9-6.3c0.1-0.5,0.1-0.6,0.1-0.8c0-0.2-0.1-0.4-0.7-0.4c-0.1,0-0.1,0-0.1-0.1
		c0-0.1,0.1-0.1,0.2-0.1c0.6,0,1.1,0,1.2,0c0.1,0,0.6,0,1,0c0.1,0,0.2,0,0.2,0.1c0,0.1,0,0.1-0.1,0.1c0,0-0.3,0-0.4,0.1
		c-0.4,0.1-0.6,0.7-0.8,1.3c-0.5,1.6-1.8,5.5-2.2,6.9c-0.3,0.9-0.4,1.1-0.5,1.1c-0.1,0-0.2-0.2-0.4-0.6l-2.4-6.9h0
		c-0.4,1.2-2.1,5.7-2.5,6.9c-0.2,0.5-0.3,0.7-0.4,0.7c-0.1,0-0.2-0.1-0.4-1l-2.2-7.3c-0.2-0.7-0.4-0.8-0.7-1
		c-0.2-0.1-0.5-0.1-0.5-0.1c-0.1,0-0.1,0-0.1-0.1c0-0.1,0.1-0.1,0.2-0.1c0.6,0,1.3,0,1.4,0c0.1,0,0.6,0,1.2,0c0.2,0,0.2,0,0.2,0.1
		c0,0.1-0.1,0.1-0.1,0.1c-0.1,0-0.3,0-0.5,0.1c-0.1,0-0.2,0.1-0.2,0.3s0.1,0.6,0.2,1.1c0.2,0.8,1.4,5.3,1.6,6h0l2.6-7.1
		c0.2-0.5,0.2-0.6,0.3-0.6c0.1,0,0.2,0.2,0.3,0.6L11.6,171.7z"/>
	<rect x="1.8" y="2.9" class="st0" width="275.4" height="170.6"/>
	<path d="M24.8,169.8c0,1.2,0,2.2,0.1,2.7c0,0.4,0.1,0.6,0.5,0.7c0.2,0,0.4,0,0.5,0c0.1,0,0.1,0,0.1,0.1c0,0.1-0.1,0.1-0.2,0.1
		c-0.7,0-1.4,0-1.5,0c-0.1,0-0.8,0-1.2,0c-0.1,0-0.2,0-0.2-0.1c0,0,0-0.1,0.1-0.1c0.1,0,0.3,0,0.4,0c0.2-0.1,0.3-0.3,0.4-0.7
		c0.1-0.5,0.1-1.5,0.1-2.7v-1.3c0-0.1,0-0.1-0.1-0.1h-5.2c0,0-0.1,0-0.1,0.1v1.3c0,1.2,0,2.2,0.1,2.7c0,0.4,0.1,0.6,0.5,0.7
		c0.2,0,0.4,0,0.5,0c0.1,0,0.1,0,0.1,0.1c0,0.1-0.1,0.1-0.2,0.1c-0.7,0-1.4,0-1.5,0c-0.1,0-0.8,0-1.2,0c-0.1,0-0.2,0-0.2-0.1
		c0,0,0-0.1,0.1-0.1c0.1,0,0.3,0,0.4,0c0.2-0.1,0.3-0.3,0.4-0.7c0.1-0.5,0.1-1.5,0.1-2.7v-2.2c0-1.9,0-2.3,0-2.7
		c0-0.4-0.1-0.6-0.5-0.7c-0.1,0-0.3,0-0.4,0c0,0-0.1,0-0.1-0.1c0-0.1,0.1-0.1,0.2-0.1c0.5,0,1.3,0,1.4,0c0.1,0,0.8,0,1.2,0
		c0.1,0,0.2,0,0.2,0.1c0,0.1-0.1,0.1-0.1,0.1c-0.1,0-0.2,0-0.3,0c-0.3,0.1-0.4,0.3-0.5,0.7c0,0.4,0,0.7,0,2.7v0.3
		c0,0.1,0,0.1,0.1,0.1h5.2c0,0,0.1,0,0.1-0.1v-0.3c0-1.9,0-2.3,0-2.7c0-0.4-0.1-0.6-0.5-0.7c-0.1,0-0.3,0-0.4,0
		c-0.1,0-0.1,0-0.1-0.1c0-0.1,0.1-0.1,0.2-0.1c0.5,0,1.3,0,1.4,0c0.1,0,0.8,0,1.2,0c0.1,0,0.2,0,0.2,0.1c0,0.1-0.1,0.1-0.1,0.1
		c-0.1,0-0.2,0-0.3,0c-0.3,0.1-0.4,0.3-0.4,0.7c0,0.4,0,0.7,0,2.7V169.8z"/>
	<path d="M29.1,167.7c0-1.9,0-2.3,0-2.7c0-0.4-0.1-0.6-0.5-0.7c-0.1,0-0.3,0-0.4,0c0,0-0.1,0-0.1-0.1c0-0.1,0.1-0.1,0.2-0.1
		c0.3,0,0.6,0,0.9,0l0.5,0c0.1,0,2.5,0,2.8,0c0.2,0,0.4,0,0.5-0.1c0.1,0,0.1-0.1,0.2-0.1c0,0,0.1,0.1,0.1,0.1c0,0.1-0.1,0.2-0.1,0.6
		c0,0.1,0,0.7-0.1,0.8c0,0.1,0,0.1-0.1,0.1c-0.1,0-0.1-0.1-0.1-0.2c0-0.1,0-0.3-0.1-0.4c-0.1-0.2-0.2-0.3-0.9-0.4
		c-0.2,0-1.5,0-1.7,0c-0.1,0-0.1,0-0.1,0.1v3.4c0,0.1,0,0.1,0.1,0.1c0.2,0,1.7,0,1.9,0c0.3,0,0.5-0.1,0.6-0.2
		c0.1-0.1,0.1-0.2,0.2-0.2c0,0,0.1,0,0.1,0.1c0,0.1-0.1,0.3-0.1,0.7c0,0.3,0,0.7,0,0.8c0,0.1,0,0.2-0.1,0.2c-0.1,0-0.1-0.1-0.1-0.1
		c0-0.1,0-0.3-0.1-0.4c0-0.2-0.2-0.4-0.6-0.4c-0.3,0-1.5-0.1-1.7-0.1c-0.1,0-0.1,0-0.1,0.1v1.1c0,0.4,0,1.9,0,2.1c0,0.9,0.2,1,1.4,1
		c0.3,0,0.9,0,1.2-0.1c0.3-0.1,0.5-0.4,0.5-0.9c0-0.1,0.1-0.2,0.1-0.2c0.1,0,0.1,0.1,0.1,0.2c0,0.1-0.1,0.9-0.2,1.2
		c-0.1,0.3-0.2,0.3-0.7,0.3c-0.9,0-1.6,0-2,0c-0.5,0-0.8,0-0.9,0c0,0-0.2,0-0.5,0c-0.2,0-0.5,0-0.7,0c-0.1,0-0.2,0-0.2-0.1
		c0,0,0-0.1,0.1-0.1c0.1,0,0.3,0,0.4-0.1c0.2,0,0.3-0.3,0.4-0.7c0.1-0.5,0.1-1.5,0.1-2.7V167.7z"/>
	<path d="M36.5,167.7c0-1.9,0-2.3,0-2.7c0-0.4-0.1-0.6-0.5-0.7c-0.1,0-0.3,0-0.4,0c0,0-0.1,0-0.1-0.1c0-0.1,0.1-0.1,0.2-0.1
		c0.5,0,1.3,0,1.4,0c0.1,0,1.1,0,1.4,0c0.8,0,1.6,0.1,2.2,0.5c0.3,0.2,0.8,0.8,0.8,1.7c0,0.9-0.4,1.8-1.5,2.9c1,1.3,1.8,2.4,2.5,3.2
		c0.7,0.7,1.2,0.8,1.5,0.9c0.2,0,0.4,0,0.5,0c0.1,0,0.1,0,0.1,0.1c0,0.1-0.1,0.1-0.3,0.1h-0.9c-0.7,0-1-0.1-1.3-0.2
		c-0.5-0.3-0.9-0.9-1.6-1.8c-0.5-0.7-1.1-1.5-1.3-1.8c0-0.1-0.1-0.1-0.2-0.1l-1.5,0c-0.1,0-0.1,0-0.1,0.1v0.3c0,1.2,0,2.2,0.1,2.7
		c0,0.4,0.1,0.6,0.5,0.7c0.2,0,0.4,0.1,0.5,0.1c0.1,0,0.1,0,0.1,0.1c0,0.1-0.1,0.1-0.2,0.1c-0.7,0-1.4,0-1.5,0c0,0-0.8,0-1.1,0
		c-0.1,0-0.2,0-0.2-0.1c0,0,0-0.1,0.1-0.1c0.1,0,0.3,0,0.4-0.1c0.2,0,0.3-0.3,0.4-0.7c0.1-0.5,0.1-1.5,0.1-2.7V167.7z M37.5,168.7
		c0,0.1,0,0.1,0.1,0.1c0.2,0.1,0.7,0.2,1.3,0.2c0.3,0,0.6,0,0.9-0.2c0.4-0.3,0.7-1,0.7-1.9c0-1.5-0.8-2.5-2.1-2.5
		c-0.4,0-0.7,0-0.8,0.1c-0.1,0-0.1,0.1-0.1,0.1V168.7z"/>
	<path d="M45.7,167.7c0-1.9,0-2.3,0-2.7c0-0.4-0.1-0.6-0.5-0.7c-0.1,0-0.3,0-0.4,0c0,0-0.1,0-0.1-0.1c0-0.1,0.1-0.1,0.2-0.1
		c0.3,0,0.6,0,0.9,0l0.5,0c0.1,0,2.5,0,2.8,0c0.2,0,0.4,0,0.5-0.1c0.1,0,0.1-0.1,0.2-0.1c0,0,0.1,0.1,0.1,0.1c0,0.1-0.1,0.2-0.1,0.6
		c0,0.1,0,0.7-0.1,0.8c0,0.1,0,0.1-0.1,0.1c-0.1,0-0.1-0.1-0.1-0.2c0-0.1,0-0.3-0.1-0.4c-0.1-0.2-0.2-0.3-0.9-0.4
		c-0.2,0-1.5,0-1.7,0c0,0-0.1,0-0.1,0.1v3.4c0,0.1,0,0.1,0.1,0.1c0.2,0,1.7,0,1.9,0c0.3,0,0.5-0.1,0.6-0.2c0.1-0.1,0.1-0.2,0.2-0.2
		c0,0,0.1,0,0.1,0.1c0,0.1-0.1,0.3-0.1,0.7c0,0.3,0,0.7,0,0.8c0,0.1,0,0.2-0.1,0.2c-0.1,0-0.1-0.1-0.1-0.1c0-0.1,0-0.3-0.1-0.4
		c0-0.2-0.2-0.4-0.6-0.4c-0.3,0-1.5-0.1-1.7-0.1c-0.1,0-0.1,0-0.1,0.1v1.1c0,0.4,0,1.9,0,2.1c0,0.9,0.2,1,1.4,1c0.3,0,0.9,0,1.2-0.1
		c0.3-0.1,0.5-0.4,0.5-0.9c0-0.1,0-0.2,0.1-0.2c0.1,0,0.1,0.1,0.1,0.2c0,0.1-0.1,0.9-0.2,1.2c-0.1,0.3-0.2,0.3-0.7,0.3
		c-0.9,0-1.6,0-2.1,0c-0.5,0-0.8,0-0.9,0c0,0-0.2,0-0.5,0c-0.2,0-0.5,0-0.7,0c-0.1,0-0.2,0-0.2-0.1c0,0,0-0.1,0.1-0.1
		c0.1,0,0.3,0,0.4-0.1c0.2,0,0.3-0.3,0.4-0.7c0.1-0.5,0.1-1.5,0.1-2.7V167.7z"/>
	<path d="M60.4,163.9c2.7,0,4.8,1.8,4.8,4.6c0,2.8-1.9,5.1-4.8,5.1c-3.3,0-4.7-2.6-4.7-4.9C55.7,166.7,57.1,163.9,60.4,163.9
		 M60.7,173.1c1.1,0,3.4-0.6,3.4-4.2c0-3-1.8-4.6-3.7-4.6c-2,0-3.5,1.4-3.5,4.1C56.8,171.3,58.5,173.1,60.7,173.1"/>
	<rect x="1.8" y="2.9" class="st0" width="275.4" height="170.6"/>
	<path d="M67.8,167.7c0-1.9,0-2.3,0-2.7c0-0.4-0.1-0.6-0.5-0.7c-0.1,0-0.3,0-0.4,0c-0.1,0-0.1,0-0.1-0.1c0-0.1,0.1-0.1,0.2-0.1
		c0.5,0,1.3,0,1.4,0c0.3,0,1,0,1.5,0c1.5,0,2.1,0.5,2.3,0.7c0.3,0.3,0.6,0.8,0.6,1.5c0,1.8-1.3,2.9-3,2.9c-0.1,0-0.2,0-0.3,0
		c-0.1,0-0.1,0-0.1-0.1c0-0.1,0.1-0.1,0.3-0.1c1.2,0,2.1-0.9,2.1-2c0-0.4,0-1.2-0.7-1.9c-0.6-0.7-1.4-0.6-1.7-0.6
		c-0.2,0-0.4,0-0.5,0.1c-0.1,0-0.1,0.1-0.1,0.2v5.1c0,1.2,0,2.2,0.1,2.7c0,0.4,0.1,0.6,0.5,0.7c0.2,0,0.4,0.1,0.5,0.1
		c0.1,0,0.1,0,0.1,0.1c0,0.1-0.1,0.1-0.2,0.1c-0.7,0-1.4,0-1.5,0c0,0-0.8,0-1.2,0c-0.1,0-0.2,0-0.2-0.1c0,0,0-0.1,0.1-0.1
		c0.1,0,0.3,0,0.4-0.1c0.2,0,0.3-0.3,0.4-0.7c0.1-0.5,0.1-1.5,0.1-2.7V167.7z"/>
	<path d="M75.4,167.7c0-1.9,0-2.3,0-2.7c0-0.4-0.1-0.6-0.5-0.7c-0.1,0-0.3,0-0.4,0c0,0-0.1,0-0.1-0.1c0-0.1,0.1-0.1,0.2-0.1
		c0.5,0,1.3,0,1.4,0c0.3,0,1,0,1.5,0c1.5,0,2.1,0.5,2.3,0.7c0.3,0.3,0.6,0.8,0.6,1.5c0,1.8-1.3,2.9-3,2.9c-0.1,0-0.2,0-0.3,0
		c-0.1,0-0.1,0-0.1-0.1c0-0.1,0.1-0.1,0.3-0.1c1.2,0,2.1-0.9,2.1-2c0-0.4,0-1.2-0.7-1.9c-0.6-0.7-1.4-0.6-1.7-0.6
		c-0.2,0-0.4,0-0.5,0.1c-0.1,0-0.1,0.1-0.1,0.2v5.1c0,1.2,0,2.2,0.1,2.7c0,0.4,0.1,0.6,0.5,0.7c0.2,0,0.4,0.1,0.5,0.1
		c0.1,0,0.1,0,0.1,0.1c0,0.1-0.1,0.1-0.2,0.1c-0.7,0-1.4,0-1.5,0c0,0-0.8,0-1.2,0c-0.1,0-0.2,0-0.2-0.1c0,0,0-0.1,0.1-0.1
		c0.1,0,0.3,0,0.4-0.1c0.3,0,0.3-0.3,0.4-0.7c0.1-0.5,0.1-1.5,0.1-2.7V167.7z"/>
	<path d="M86.6,163.9c2.7,0,4.8,1.8,4.8,4.6c0,2.8-1.9,5.1-4.9,5.1c-3.3,0-4.7-2.6-4.7-4.9C81.8,166.7,83.3,163.9,86.6,163.9
		 M86.9,173.1c1.1,0,3.4-0.6,3.4-4.2c0-3-1.8-4.6-3.7-4.6c-2,0-3.5,1.4-3.5,4.1C83,171.3,84.7,173.1,86.9,173.1"/>
	<rect x="1.8" y="2.9" class="st0" width="275.4" height="170.6"/>
	<path d="M94,167.7c0-1.9,0-2.3,0-2.7c0-0.4-0.1-0.6-0.5-0.7c-0.1,0-0.3,0-0.4,0c0,0-0.1,0-0.1-0.1c0-0.1,0.1-0.1,0.2-0.1
		c0.6,0,1.3,0,1.4,0c0.1,0,1.1,0,1.4,0c0.8,0,1.6,0.1,2.2,0.5c0.3,0.2,0.8,0.8,0.8,1.7c0,0.9-0.4,1.8-1.5,2.9c1,1.3,1.8,2.4,2.5,3.2
		c0.7,0.7,1.2,0.8,1.5,0.9c0.2,0,0.4,0,0.5,0c0.1,0,0.1,0,0.1,0.1c0,0.1-0.1,0.1-0.3,0.1H101c-0.7,0-1-0.1-1.3-0.2
		c-0.5-0.3-0.9-0.9-1.6-1.8c-0.5-0.7-1.1-1.5-1.3-1.8c-0.1-0.1-0.1-0.1-0.2-0.1l-1.5,0c-0.1,0-0.1,0-0.1,0.1v0.3
		c0,1.2,0,2.2,0.1,2.7c0,0.4,0.1,0.6,0.5,0.7c0.2,0,0.4,0.1,0.5,0.1c0.1,0,0.1,0,0.1,0.1c0,0.1-0.1,0.1-0.2,0.1c-0.7,0-1.4,0-1.5,0
		c0,0-0.8,0-1.1,0c-0.1,0-0.2,0-0.2-0.1c0,0,0-0.1,0.1-0.1c0.1,0,0.3,0,0.4-0.1c0.2,0,0.3-0.3,0.4-0.7C94,172,94,171,94,169.8V167.7
		z M94.9,168.7c0,0.1,0,0.1,0.1,0.1c0.2,0.1,0.7,0.2,1.3,0.2c0.3,0,0.6,0,0.9-0.2c0.4-0.3,0.7-1,0.7-1.9c0-1.5-0.8-2.5-2.1-2.5
		c-0.4,0-0.7,0-0.8,0.1c-0.1,0-0.1,0.1-0.1,0.1V168.7z"/>
	<path d="M105.1,169.8c0,1.2,0,2.2,0.1,2.7c0,0.4,0.1,0.6,0.5,0.7c0.2,0,0.4,0,0.5,0c0.1,0,0.1,0,0.1,0.1c0,0.1-0.1,0.1-0.2,0.1
		c-0.7,0-1.4,0-1.5,0c-0.1,0-0.8,0-1.2,0c-0.1,0-0.2,0-0.2-0.1c0,0,0-0.1,0.1-0.1c0.1,0,0.3,0,0.4,0c0.2-0.1,0.3-0.3,0.4-0.7
		c0.1-0.5,0.1-1.5,0.1-2.7v-5.2l-1.8,0c-0.8,0-1,0.1-1.2,0.4c-0.1,0.2-0.2,0.3-0.2,0.4c0,0.1-0.1,0.1-0.1,0.1c0,0-0.1,0-0.1-0.1
		c0-0.1,0.2-1.2,0.3-1.3c0-0.1,0.1-0.2,0.1-0.2c0.1,0,0.2,0.1,0.5,0.1c0.4,0,0.8,0.1,1,0.1h4.6c0.4,0,0.7,0,0.9-0.1
		c0.2,0,0.3-0.1,0.3-0.1c0.1,0,0.1,0.1,0.1,0.1c0,0.4,0,1.2,0,1.4c0,0.1,0,0.2-0.1,0.2c-0.1,0-0.1,0-0.1-0.2l0-0.1
		c0-0.4-0.3-0.7-1.5-0.7l-1.5,0V169.8z"/>
	<path d="M110.2,167.7c0-1.9,0-2.3,0-2.7c0-0.4-0.1-0.6-0.5-0.7c-0.1,0-0.3,0-0.4,0c0,0-0.1,0-0.1-0.1c0-0.1,0.1-0.1,0.2-0.1
		c0.5,0,1.3,0,1.4,0s0.8,0,1.2,0c0.1,0,0.2,0,0.2,0.1c0,0.1,0,0.1-0.1,0.1c-0.1,0-0.2,0-0.3,0c-0.3,0.1-0.4,0.3-0.5,0.7
		c0,0.4,0,0.7,0,2.7v1.7c0,1.8,0.4,2.5,0.9,3.1c0.6,0.6,1.1,0.7,1.8,0.7c0.7,0,1.5-0.4,1.9-0.9c0.6-0.7,0.7-1.8,0.7-3v-1.5
		c0-1.9,0-2.3,0-2.7c0-0.4-0.1-0.6-0.5-0.7c-0.1,0-0.3,0-0.4,0c-0.1,0-0.1,0-0.1-0.1c0-0.1,0.1-0.1,0.2-0.1c0.5,0,1.2,0,1.3,0
		c0.1,0,0.7,0,1,0c0.1,0,0.2,0,0.2,0.1c0,0.1,0,0.1-0.1,0.1c-0.1,0-0.2,0-0.3,0c-0.3,0.1-0.4,0.3-0.5,0.7c0,0.4,0,0.7,0,2.7v1.3
		c0,1.3-0.1,2.8-1.1,3.7c-0.9,0.8-1.8,0.9-2.5,0.9c-0.4,0-1.6,0-2.5-0.9c-0.6-0.6-1.1-1.4-1.1-3.2V167.7z"/>
	<path d="M121.3,171.8c0,1,0.1,1.3,0.5,1.4c0.2,0.1,0.5,0.1,0.6,0.1c0.1,0,0.1,0,0.1,0.1c0,0.1-0.1,0.1-0.2,0.1c-0.7,0-1.2,0-1.3,0
		s-0.6,0-1.2,0c-0.1,0-0.2,0-0.2-0.1c0,0,0-0.1,0.1-0.1c0.1,0,0.3,0,0.5-0.1c0.3-0.1,0.4-0.4,0.4-1.6l0-7.1c0-0.5,0-0.6,0.1-0.6
		c0.1,0,0.3,0.3,0.4,0.4c0.2,0.2,2,2.2,3.9,4.2c1.2,1.3,2.5,2.8,2.9,3.2l-0.1-6.3c0-0.8-0.1-1.1-0.5-1.2c-0.2-0.1-0.5-0.1-0.6-0.1
		c-0.1,0-0.1,0-0.1-0.1c0-0.1,0.1-0.1,0.2-0.1c0.5,0,1.1,0,1.3,0c0.1,0,0.5,0,1,0c0.1,0,0.2,0,0.2,0.1c0,0.1,0,0.1-0.1,0.1
		c-0.1,0-0.1,0-0.3,0c-0.4,0.1-0.5,0.4-0.5,1.1l0,7.3c0,0.8,0,0.9-0.1,0.9c-0.1,0-0.2-0.1-0.9-0.8c-0.1-0.1-1.9-1.9-3.2-3.3
		c-1.4-1.5-2.8-3.1-3.2-3.5L121.3,171.8z"/>
	<rect x="1.8" y="2.9" class="st0" width="275.4" height="170.6"/>
	<path d="M133.5,169.8c0,1.2,0,2.2,0.1,2.7c0,0.4,0.1,0.6,0.5,0.7c0.2,0,0.4,0,0.5,0c0.1,0,0.1,0,0.1,0.1c0,0.1-0.1,0.1-0.2,0.1
		c-0.7,0-1.4,0-1.5,0s-0.8,0-1.2,0c-0.1,0-0.2,0-0.2-0.1c0,0,0-0.1,0.1-0.1c0.1,0,0.3,0,0.4,0c0.2-0.1,0.3-0.3,0.4-0.7
		c0.1-0.5,0.1-1.5,0.1-2.7v-2.2c0-1.9,0-2.3,0-2.7c0-0.4-0.1-0.6-0.4-0.7c-0.1,0-0.3-0.1-0.4-0.1c-0.1,0-0.1,0-0.1-0.1
		c0-0.1,0.1-0.1,0.2-0.1c0.4,0,1.2,0,1.2,0s0.8,0,1.2,0c0.1,0,0.2,0,0.2,0.1c0,0.1-0.1,0.1-0.1,0.1c-0.1,0-0.2,0-0.3,0
		c-0.3,0.1-0.4,0.3-0.4,0.7c0,0.4,0,0.7,0,2.7V169.8z"/>
	<path d="M140.4,169.8c0,1.2,0,2.2,0.1,2.7c0,0.4,0.1,0.6,0.5,0.7c0.2,0,0.4,0,0.5,0c0.1,0,0.1,0,0.1,0.1c0,0.1-0.1,0.1-0.2,0.1
		c-0.7,0-1.4,0-1.5,0c-0.1,0-0.8,0-1.2,0c-0.1,0-0.2,0-0.2-0.1c0,0,0-0.1,0.1-0.1c0.1,0,0.3,0,0.4,0c0.2-0.1,0.3-0.3,0.4-0.7
		c0.1-0.5,0.1-1.5,0.1-2.7v-5.2l-1.8,0c-0.8,0-1,0.1-1.2,0.4c-0.1,0.2-0.2,0.3-0.2,0.4c0,0.1-0.1,0.1-0.1,0.1c0,0-0.1,0-0.1-0.1
		c0-0.1,0.2-1.2,0.3-1.3c0-0.1,0.1-0.2,0.1-0.2c0.1,0,0.2,0.1,0.5,0.1c0.3,0,0.8,0.1,1,0.1h4.6c0.4,0,0.7,0,0.9-0.1
		c0.2,0,0.3-0.1,0.3-0.1c0.1,0,0.1,0.1,0.1,0.1c0,0.4,0,1.2,0,1.4c0,0.1,0,0.2-0.1,0.2c-0.1,0-0.1,0-0.1-0.2l0-0.1
		c0-0.4-0.3-0.7-1.5-0.7l-1.5,0V169.8z"/>
	<path d="M147.9,170.2c0-0.7-0.1-0.9-0.3-1.3c-0.1-0.2-1.7-2.9-2.1-3.6c-0.3-0.5-0.6-0.8-0.8-0.9c-0.2-0.1-0.4-0.2-0.5-0.2
		c-0.1,0-0.1,0-0.1-0.1c0,0,0-0.1,0.2-0.1c0.2,0,1.1,0,1.2,0c0.1,0,0.5,0,1,0c0.1,0,0.2,0,0.2,0.1c0,0.1-0.1,0.1-0.2,0.1
		c-0.1,0.1-0.2,0.1-0.2,0.2c0,0.1,0.1,0.3,0.2,0.5c0.2,0.4,2,3.5,2.2,3.9c0.2-0.5,1.8-3.2,2-3.6c0.2-0.3,0.2-0.5,0.2-0.6
		c0-0.2-0.1-0.3-0.2-0.3c-0.1,0-0.2-0.1-0.2-0.1c0,0,0.1-0.1,0.2-0.1c0.3,0,0.7,0,0.8,0c0.1,0,0.9,0,1.2,0c0.1,0,0.2,0,0.2,0.1
		c0,0.1-0.1,0.1-0.2,0.1c-0.1,0-0.4,0.1-0.6,0.2c-0.2,0.1-0.4,0.3-0.6,0.6c-0.4,0.5-2.1,3.4-2.3,3.9c-0.2,0.4-0.2,0.8-0.2,1.2v1.1
		c0,0.2,0,0.7,0,1.2c0,0.4,0.1,0.6,0.5,0.7c0.2,0,0.4,0.1,0.5,0.1c0.1,0,0.1,0,0.1,0.1c0,0.1-0.1,0.1-0.2,0.1c-0.7,0-1.4,0-1.5,0
		c-0.1,0-0.8,0-1.2,0c-0.1,0-0.2,0-0.2-0.1c0,0,0-0.1,0.1-0.1c0.1,0,0.3,0,0.4-0.1c0.2,0,0.4-0.3,0.4-0.7c0-0.5,0-1,0-1.2V170.2z"/>
	<path d="M158.4,167.7c0-1.9,0-2.3,0-2.7c0-0.4-0.1-0.6-0.5-0.7c-0.1,0-0.3,0-0.4,0c0,0-0.1,0-0.1-0.1c0-0.1,0.1-0.1,0.2-0.1
		c0.5,0,1.3,0,1.4,0c0.3,0,0.8,0,1.3,0c2,0,2.4,1.2,2.4,1.9c0,1-0.6,1.6-1.1,2.2c0.9,0.3,2.1,1.2,2.1,2.6c0,1.3-1,2.7-3.1,2.7
		c-0.1,0-0.5,0-0.9,0c-0.4,0-0.7,0-0.7,0c0,0-0.2,0-0.5,0c-0.2,0-0.5,0-0.7,0c-0.1,0-0.2,0-0.2-0.1c0,0,0-0.1,0.1-0.1
		c0.1,0,0.3,0,0.4,0c0.2-0.1,0.3-0.3,0.4-0.7c0.1-0.5,0.1-1.5,0.1-2.7V167.7z M159.4,167.9c0,0.1,0,0.1,0.1,0.1
		c0.1,0,0.3,0.1,0.7,0.1c0.7,0,0.9,0,1.1-0.3c0.3-0.3,0.4-0.7,0.4-1.2c0-1-0.5-2.1-1.6-2.1c-0.1,0-0.4,0-0.6,0.1
		c-0.1,0-0.1,0.1-0.1,0.1V167.9z M159.4,169.3c0,1,0,2.5,0,2.7c0,0.6,0,0.8,0.4,1c0.3,0.2,0.9,0.2,1.1,0.2c0.7,0,1.7-0.4,1.7-1.8
		c0-0.7-0.2-1.8-1.2-2.5c-0.4-0.3-0.7-0.3-1-0.4c-0.2,0-0.8,0-0.9,0c-0.1,0-0.1,0-0.1,0.1V169.3z"/>
	<path d="M166.6,167.7c0-1.9,0-2.3,0-2.7c0-0.4-0.1-0.6-0.5-0.7c-0.1,0-0.3,0-0.4,0c-0.1,0-0.1,0-0.1-0.1c0-0.1,0.1-0.1,0.2-0.1
		c0.3,0,0.6,0,0.9,0l0.5,0c0.1,0,2.5,0,2.8,0c0.2,0,0.4,0,0.5-0.1c0.1,0,0.1-0.1,0.2-0.1c0,0,0,0.1,0,0.1c0,0.1-0.1,0.2-0.1,0.6
		c0,0.1,0,0.7-0.1,0.8c0,0.1,0,0.1-0.1,0.1c-0.1,0-0.1-0.1-0.1-0.2c0-0.1,0-0.3-0.1-0.4c-0.1-0.2-0.2-0.3-0.9-0.4
		c-0.2,0-1.5,0-1.7,0c-0.1,0-0.1,0-0.1,0.1v3.4c0,0.1,0,0.1,0.1,0.1c0.2,0,1.7,0,1.9,0c0.3,0,0.5-0.1,0.6-0.2
		c0.1-0.1,0.1-0.2,0.2-0.2c0,0,0.1,0,0.1,0.1c0,0.1-0.1,0.3-0.1,0.7c0,0.3,0,0.7,0,0.8c0,0.1,0,0.2-0.1,0.2c-0.1,0-0.1-0.1-0.1-0.1
		c0-0.1,0-0.3-0.1-0.4c0-0.2-0.2-0.4-0.6-0.4c-0.3,0-1.5-0.1-1.7-0.1c-0.1,0-0.1,0-0.1,0.1v1.1c0,0.4,0,1.9,0,2.1c0,0.9,0.2,1,1.4,1
		c0.3,0,0.9,0,1.2-0.1c0.3-0.1,0.5-0.4,0.5-0.9c0-0.1,0-0.2,0.1-0.2c0.1,0,0.1,0.1,0.1,0.2c0,0.1-0.1,0.9-0.2,1.2
		c-0.1,0.3-0.2,0.3-0.7,0.3c-0.9,0-1.6,0-2.1,0c-0.5,0-0.8,0-0.9,0c0,0-0.2,0-0.5,0c-0.2,0-0.5,0-0.7,0c-0.1,0-0.2,0-0.2-0.1
		c0,0,0-0.1,0.1-0.1c0.1,0,0.3,0,0.4-0.1c0.2,0,0.3-0.3,0.4-0.7c0.1-0.5,0.1-1.5,0.1-2.7V167.7z"/>
	<path d="M174.1,172.3c-1.2-1.1-1.5-2.5-1.5-3.7c0-0.8,0.3-2.3,1.4-3.4c0.7-0.7,1.8-1.3,3.7-1.3c0.5,0,1.2,0,1.8,0.1
		c0.5,0.1,0.9,0.2,1.2,0.2c0.1,0,0.2,0.1,0.2,0.1c0,0.1,0,0.2-0.1,0.7c0,0.4,0,1.1,0,1.3c0,0.2,0,0.3-0.1,0.3
		c-0.1,0-0.1-0.1-0.1-0.3c0-0.5-0.2-1-0.5-1.3c-0.4-0.4-1.4-0.7-2.4-0.7c-1.6,0-2.4,0.5-2.8,0.9c-0.9,0.9-1.1,2-1.1,3.2
		c0,2.4,1.8,4.5,4.4,4.5c0.9,0,1.6-0.1,2.1-0.6c0.3-0.3,0.4-0.8,0.5-1c0-0.1,0-0.2,0.1-0.2c0.1,0,0.1,0.1,0.1,0.2
		c0,0.1-0.1,1.2-0.3,1.6c-0.1,0.2-0.1,0.3-0.3,0.4c-0.5,0.2-1.4,0.3-2.2,0.3C176.3,173.6,175,173.1,174.1,172.3"/>
	<path d="M187.1,163.9c2.7,0,4.8,1.8,4.8,4.6c0,2.8-1.9,5.1-4.8,5.1c-3.3,0-4.7-2.6-4.7-4.9C182.3,166.7,183.7,163.9,187.1,163.9
		 M187.3,173.1c1.1,0,3.4-0.6,3.4-4.2c0-3-1.8-4.6-3.7-4.6c-2,0-3.5,1.4-3.5,4.1C183.4,171.3,185.1,173.1,187.3,173.1"/>
	<rect x="1.8" y="2.9" class="st0" width="275.4" height="170.6"/>
	<path d="M203.7,171.8c0,0.4,0.1,1.1,0.7,1.3c0.3,0.1,0.7,0.1,0.8,0.1c0.1,0,0.1,0,0.1,0.1c0,0.1-0.1,0.1-0.3,0.1
		c-0.3,0-1.6,0-2-0.1c-0.3,0-0.3-0.1-0.3-0.1c0-0.1,0-0.1,0.1-0.1c0.1,0,0.1-0.2,0-0.4l-0.6-6.4h0l-3,6.4c-0.3,0.5-0.3,0.7-0.4,0.7
		c-0.1,0-0.1-0.1-0.4-0.6c-0.3-0.6-1.4-2.7-1.4-2.9c-0.1-0.2-1.5-3.2-1.6-3.5h-0.1l-0.5,5.7c0,0.2,0,0.4,0,0.6
		c0,0.2,0.1,0.3,0.3,0.4c0.2,0.1,0.4,0.1,0.5,0.1c0.1,0,0.1,0,0.1,0.1c0,0.1-0.1,0.1-0.2,0.1c-0.5,0-1,0-1.1,0c-0.1,0-0.7,0-1,0
		c-0.1,0-0.2,0-0.2-0.1c0,0,0.1-0.1,0.1-0.1c0.1,0,0.2,0,0.4,0c0.4-0.1,0.4-0.6,0.5-1l0.9-8.1c0-0.1,0.1-0.2,0.1-0.2
		c0.1,0,0.1,0,0.2,0.2l3.7,7.8l3.6-7.8c0.1-0.1,0.1-0.2,0.2-0.2c0.1,0,0.1,0.1,0.1,0.3L203.7,171.8z"/>
	<path d="M207.4,167.7c0-1.9,0-2.3,0-2.7c0-0.4-0.1-0.6-0.5-0.7c-0.1,0-0.3,0-0.4,0c-0.1,0-0.1,0-0.1-0.1c0-0.1,0.1-0.1,0.2-0.1
		c0.3,0,0.6,0,0.9,0l0.5,0c0.1,0,2.5,0,2.8,0c0.2,0,0.4,0,0.5-0.1c0.1,0,0.1-0.1,0.2-0.1c0,0,0.1,0.1,0.1,0.1c0,0.1-0.1,0.2-0.1,0.6
		c0,0.1,0,0.7-0.1,0.8c0,0.1,0,0.1-0.1,0.1c-0.1,0-0.1-0.1-0.1-0.2c0-0.1,0-0.3-0.1-0.4c-0.1-0.2-0.2-0.3-0.9-0.4
		c-0.2,0-1.5,0-1.7,0c0,0-0.1,0-0.1,0.1v3.4c0,0.1,0,0.1,0.1,0.1c0.2,0,1.7,0,1.9,0c0.3,0,0.5-0.1,0.6-0.2c0.1-0.1,0.1-0.2,0.2-0.2
		c0,0,0.1,0,0.1,0.1c0,0.1-0.1,0.3-0.1,0.7c0,0.3,0,0.7,0,0.8c0,0.1,0,0.2-0.1,0.2c-0.1,0-0.1-0.1-0.1-0.1c0-0.1,0-0.3,0-0.4
		c-0.1-0.2-0.2-0.4-0.6-0.4c-0.3,0-1.5-0.1-1.7-0.1c-0.1,0-0.1,0-0.1,0.1v1.1c0,0.4,0,1.9,0,2.1c0,0.9,0.2,1,1.4,1
		c0.3,0,0.9,0,1.2-0.1c0.3-0.1,0.5-0.4,0.5-0.9c0-0.1,0.1-0.2,0.1-0.2c0.1,0,0.1,0.1,0.1,0.2c0,0.1-0.1,0.9-0.2,1.2
		c-0.1,0.3-0.2,0.3-0.7,0.3c-0.9,0-1.6,0-2.1,0c-0.5,0-0.8,0-0.9,0c0,0-0.2,0-0.5,0c-0.2,0-0.5,0-0.7,0c-0.1,0-0.2,0-0.2-0.1
		c0,0,0-0.1,0.1-0.1c0.1,0,0.3,0,0.4-0.1c0.2,0,0.3-0.3,0.4-0.7c0.1-0.5,0.1-1.5,0.1-2.7V167.7z"/>
	<path d="M214,173.3c-0.2-0.1-0.2-0.1-0.2-0.5c0-0.6,0-1.1,0.1-1.3c0-0.1,0-0.2,0.1-0.2c0.1,0,0.1,0,0.1,0.1c0,0.1,0,0.3,0,0.5
		c0.2,0.9,1,1.3,1.8,1.3c1.2,0,1.7-0.9,1.7-1.6c0-0.9-0.4-1.3-1.4-2.2l-0.5-0.5c-1.3-1.1-1.6-1.8-1.6-2.7c0-1.3,1-2.2,2.5-2.2
		c0.5,0,0.8,0.1,1.1,0.1c0.2,0,0.3,0.1,0.4,0.1c0.1,0,0.1,0,0.1,0.1c0,0.1-0.1,0.5-0.1,1.3c0,0.2,0,0.3-0.1,0.3
		c-0.1,0-0.1-0.1-0.1-0.2c0-0.1-0.1-0.5-0.2-0.6c-0.1-0.1-0.4-0.7-1.5-0.7c-0.8,0-1.5,0.5-1.5,1.4c0,0.7,0.3,1.2,1.5,2.1l0.3,0.3
		c1.4,1.2,1.8,1.9,1.8,2.9c0,0.5-0.2,1.4-1,2.1c-0.5,0.4-1.2,0.5-1.8,0.5C215.1,173.6,214.5,173.5,214,173.3"/>
	<rect x="1.8" y="2.9" class="st0" width="275.4" height="170.6"/>
	<path d="M225.7,167.7c0-1.9,0-2.3,0-2.7c0-0.4-0.1-0.6-0.5-0.7c-0.1,0-0.3,0-0.4,0c0,0-0.1,0-0.1-0.1c0-0.1,0.1-0.1,0.2-0.1
		c0.5,0,1.3,0,1.4,0c0.1,0,1.1,0,1.4,0c0.8,0,1.6,0.1,2.2,0.5c0.3,0.2,0.8,0.8,0.8,1.7c0,0.9-0.4,1.8-1.5,2.9c1,1.3,1.8,2.4,2.5,3.2
		c0.7,0.7,1.2,0.8,1.5,0.9c0.2,0,0.4,0,0.5,0c0.1,0,0.1,0,0.1,0.1c0,0.1-0.1,0.1-0.3,0.1h-0.9c-0.7,0-1-0.1-1.3-0.2
		c-0.5-0.3-0.9-0.9-1.6-1.8c-0.5-0.7-1.1-1.5-1.3-1.8c0-0.1-0.1-0.1-0.2-0.1l-1.5,0c-0.1,0-0.1,0-0.1,0.1v0.3c0,1.2,0,2.2,0.1,2.7
		c0,0.4,0.1,0.6,0.5,0.7c0.2,0,0.4,0.1,0.5,0.1c0.1,0,0.1,0,0.1,0.1c0,0.1-0.1,0.1-0.2,0.1c-0.7,0-1.4,0-1.5,0c0,0-0.8,0-1.1,0
		c-0.1,0-0.2,0-0.2-0.1c0,0,0-0.1,0.1-0.1c0.1,0,0.3,0,0.4-0.1c0.2,0,0.3-0.3,0.3-0.7c0.1-0.5,0.1-1.5,0.1-2.7V167.7z M226.7,168.7
		c0,0.1,0,0.1,0.1,0.1c0.2,0.1,0.7,0.2,1.3,0.2c0.3,0,0.6,0,0.9-0.2c0.4-0.3,0.7-1,0.7-1.9c0-1.5-0.8-2.5-2.1-2.5
		c-0.4,0-0.7,0-0.8,0.1c-0.1,0-0.1,0.1-0.1,0.1V168.7z"/>
	<path d="M234.9,167.7c0-1.9,0-2.3,0-2.7c0-0.4-0.1-0.6-0.5-0.7c-0.1,0-0.3,0-0.4,0c-0.1,0-0.1,0-0.1-0.1c0-0.1,0.1-0.1,0.2-0.1
		c0.3,0,0.6,0,0.9,0l0.5,0c0.1,0,2.5,0,2.8,0c0.2,0,0.4,0,0.5-0.1c0.1,0,0.1-0.1,0.2-0.1c0,0,0,0.1,0,0.1c0,0.1-0.1,0.2-0.1,0.6
		c0,0.1,0,0.7-0.1,0.8c0,0.1,0,0.1-0.1,0.1c-0.1,0-0.1-0.1-0.1-0.2c0-0.1,0-0.3-0.1-0.4c-0.1-0.2-0.2-0.3-0.9-0.4
		c-0.2,0-1.5,0-1.7,0c-0.1,0-0.1,0-0.1,0.1v3.4c0,0.1,0,0.1,0.1,0.1c0.2,0,1.6,0,1.9,0c0.3,0,0.5-0.1,0.6-0.2
		c0.1-0.1,0.1-0.2,0.2-0.2c0,0,0.1,0,0.1,0.1c0,0.1-0.1,0.3-0.1,0.7c0,0.3,0,0.7,0,0.8c0,0.1,0,0.2-0.1,0.2c-0.1,0-0.1-0.1-0.1-0.1
		c0-0.1,0-0.3-0.1-0.4c0-0.2-0.2-0.4-0.6-0.4c-0.3,0-1.5-0.1-1.7-0.1c-0.1,0-0.1,0-0.1,0.1v1.1c0,0.4,0,1.9,0,2.1c0,0.9,0.2,1,1.4,1
		c0.3,0,0.9,0,1.2-0.1c0.3-0.1,0.5-0.4,0.5-0.9c0-0.1,0.1-0.2,0.1-0.2c0.1,0,0.1,0.1,0.1,0.2c0,0.1-0.1,0.9-0.2,1.2
		c-0.1,0.3-0.2,0.3-0.7,0.3c-0.9,0-1.6,0-2.1,0c-0.5,0-0.8,0-1,0c0,0-0.2,0-0.5,0c-0.2,0-0.5,0-0.7,0c-0.1,0-0.2,0-0.2-0.1
		c0,0,0-0.1,0.1-0.1c0.1,0,0.3,0,0.4-0.1c0.2,0,0.3-0.3,0.3-0.7c0.1-0.5,0.1-1.5,0.1-2.7V167.7z"/>
	<path d="M244,164.4c0.1-0.4,0.2-0.5,0.3-0.5c0.1,0,0.1,0.1,0.3,0.4c0.2,0.5,2.1,5.6,2.8,7.5c0.4,1.1,0.8,1.3,1,1.4
		c0.2,0.1,0.4,0.1,0.5,0.1c0.1,0,0.1,0,0.1,0.1c0,0.1-0.1,0.1-0.2,0.1c-0.2,0-1.1,0-1.9,0c-0.2,0-0.4,0-0.4-0.1c0,0,0-0.1,0.1-0.1
		c0.1,0,0.1-0.1,0.1-0.3l-1.1-3c0,0-0.1-0.1-0.1-0.1h-2.6c-0.1,0-0.1,0-0.1,0.1l-0.7,2.2c-0.1,0.3-0.2,0.6-0.2,0.8
		c0,0.2,0.3,0.4,0.5,0.4h0.1c0.1,0,0.1,0,0.1,0.1c0,0.1-0.1,0.1-0.2,0.1c-0.3,0-0.8,0-0.9,0c-0.1,0-0.8,0-1.4,0
		c-0.2,0-0.2,0-0.2-0.1c0-0.1,0.1-0.1,0.1-0.1c0.1,0,0.3,0,0.4,0c0.6-0.1,0.8-0.5,1-1.2L244,164.4z M245.3,169.3
		C245.3,169.3,245.3,169.3,245.3,169.3l-1.1-3.4c-0.1-0.2-0.1-0.2-0.2,0l-1.1,3.3c0,0.1,0,0.1,0,0.1H245.3z"/>
	<path d="M251.8,169.9c0,1.8,0.1,2.6,0.3,2.8c0.2,0.2,0.5,0.3,1.5,0.3c0.6,0,1.2,0,1.5-0.4c0.2-0.2,0.3-0.5,0.3-0.7
		c0-0.1,0-0.2,0.1-0.2c0.1,0,0.1,0.1,0.1,0.2c0,0.1-0.1,0.9-0.2,1.2c-0.1,0.3-0.1,0.3-0.8,0.3c-0.9,0-1.5,0-2,0c-0.5,0-0.9,0-1.2,0
		c0,0-0.3,0-0.5,0c-0.2,0-0.5,0-0.7,0c-0.1,0-0.2,0-0.2-0.1c0,0,0-0.1,0.1-0.1c0.1,0,0.3,0,0.4-0.1c0.2,0,0.3-0.3,0.4-0.7
		c0.1-0.5,0.1-1.5,0.1-2.7v-2.2c0-1.9,0-2.3,0-2.7c0-0.4-0.1-0.6-0.5-0.7c-0.1,0-0.3,0-0.4,0c-0.1,0-0.1,0-0.1-0.1
		c0-0.1,0.1-0.1,0.2-0.1c0.5,0,1.3,0,1.4,0c0.1,0,0.9,0,1.3,0c0.1,0,0.2,0,0.2,0.1c0,0.1,0,0.1-0.1,0.1c-0.1,0-0.3,0-0.4,0
		c-0.3,0.1-0.4,0.3-0.5,0.7c0,0.4,0,0.7,0,2.7V169.9z"/>
	<path d="M259,169.8c0,1.2,0,2.2,0.1,2.7c0,0.4,0.1,0.6,0.5,0.7c0.2,0,0.4,0,0.5,0c0.1,0,0.1,0,0.1,0.1c0,0.1-0.1,0.1-0.2,0.1
		c-0.7,0-1.4,0-1.5,0c-0.1,0-0.8,0-1.2,0c-0.1,0-0.2,0-0.2-0.1c0,0,0-0.1,0.1-0.1c0.1,0,0.3,0,0.4,0c0.2-0.1,0.3-0.3,0.4-0.7
		c0.1-0.5,0.1-1.5,0.1-2.7v-2.2c0-1.9,0-2.3,0-2.7c0-0.4-0.1-0.6-0.4-0.7c-0.1,0-0.3-0.1-0.4-0.1c0,0-0.1,0-0.1-0.1
		c0-0.1,0.1-0.1,0.2-0.1c0.4,0,1.2,0,1.2,0c0.1,0,0.8,0,1.2,0c0.1,0,0.2,0,0.2,0.1c0,0.1-0.1,0.1-0.1,0.1c-0.1,0-0.2,0-0.3,0
		c-0.3,0.1-0.4,0.3-0.5,0.7c0,0.4,0,0.7,0,2.7V169.8z"/>
	<path d="M265.9,169.8c0,1.2,0,2.2,0.1,2.7c0,0.4,0.1,0.6,0.5,0.7c0.2,0,0.4,0,0.5,0c0.1,0,0.1,0,0.1,0.1c0,0.1-0.1,0.1-0.2,0.1
		c-0.7,0-1.4,0-1.5,0c-0.1,0-0.8,0-1.2,0c-0.1,0-0.2,0-0.2-0.1c0,0,0-0.1,0.1-0.1c0.1,0,0.3,0,0.4,0c0.2-0.1,0.3-0.3,0.4-0.7
		c0.1-0.5,0.1-1.5,0.1-2.7v-5.2l-1.8,0c-0.8,0-1,0.1-1.2,0.4c-0.1,0.2-0.2,0.3-0.2,0.4c0,0.1-0.1,0.1-0.1,0.1c0,0-0.1,0-0.1-0.1
		c0-0.1,0.2-1.2,0.3-1.3c0-0.1,0.1-0.2,0.1-0.2c0.1,0,0.2,0.1,0.5,0.1c0.4,0,0.8,0.1,1,0.1h4.6c0.4,0,0.7,0,0.9-0.1
		c0.2,0,0.3-0.1,0.3-0.1c0.1,0,0.1,0.1,0.1,0.1c0,0.4,0,1.2,0,1.4c0,0.1,0,0.2-0.1,0.2c-0.1,0-0.1,0-0.1-0.2l0-0.1
		c0-0.4-0.3-0.7-1.5-0.7l-1.5,0V169.8z"/>
	<path d="M273.3,170.2c0-0.7-0.1-0.9-0.3-1.3c-0.1-0.2-1.7-2.9-2.1-3.6c-0.3-0.5-0.6-0.8-0.8-0.9c-0.2-0.1-0.4-0.2-0.5-0.2
		c-0.1,0-0.1,0-0.1-0.1c0,0,0.1-0.1,0.2-0.1c0.2,0,1.1,0,1.2,0c0.1,0,0.5,0,1,0c0.1,0,0.2,0,0.2,0.1c0,0.1-0.1,0.1-0.2,0.1
		c-0.1,0.1-0.2,0.1-0.2,0.2c0,0.1,0.1,0.3,0.2,0.5c0.2,0.4,2,3.5,2.2,3.9c0.2-0.5,1.8-3.2,2-3.6c0.2-0.3,0.2-0.5,0.2-0.6
		c0-0.2,0-0.3-0.2-0.3c-0.1,0-0.2-0.1-0.2-0.1c0,0,0.1-0.1,0.2-0.1c0.3,0,0.7,0,0.8,0c0.1,0,1,0,1.2,0c0.1,0,0.2,0,0.2,0.1
		c0,0.1-0.1,0.1-0.2,0.1c-0.1,0-0.4,0.1-0.6,0.2c-0.2,0.1-0.4,0.3-0.6,0.6c-0.4,0.5-2.1,3.4-2.3,3.9c-0.2,0.4-0.2,0.8-0.2,1.2v1.1
		c0,0.2,0,0.7,0,1.2c0,0.4,0.1,0.6,0.5,0.7c0.2,0,0.4,0.1,0.5,0.1c0.1,0,0.1,0,0.1,0.1c0,0.1-0.1,0.1-0.2,0.1c-0.7,0-1.4,0-1.5,0
		c-0.1,0-0.8,0-1.2,0c-0.1,0-0.2,0-0.2-0.1c0,0,0-0.1,0.1-0.1c0.1,0,0.3,0,0.4-0.1c0.2,0,0.4-0.3,0.4-0.7c0-0.5,0-1,0-1.2V170.2z"/>
	<rect x="1.8" y="2.9" class="st0" width="275.4" height="170.6"/>
	<path d="M8.8,142.3c0.1,4.1,0.6,5.4,1.9,5.8c0.9,0.3,2,0.3,2.5,0.3c0.2,0,0.4,0.1,0.4,0.3c0,0.3-0.3,0.4-0.9,0.4
		c-2.8,0-4.8-0.1-5.2-0.1c-0.4,0-2.5,0.1-4.7,0.1c-0.5,0-0.8-0.1-0.8-0.4c0-0.2,0.1-0.3,0.4-0.3c0.4,0,1.3-0.1,2-0.3
		c1.2-0.3,1.5-1.8,1.5-6.4l0-28.7c0-2,0.1-2.5,0.5-2.5c0.4,0,1.2,1.1,1.7,1.6c0.7,0.9,8.1,8.9,15.7,17.2
		c4.9,5.3,10.2,11.4,11.8,13.1L35.1,117c0-3.3-0.4-4.4-1.9-4.8c-0.9-0.2-2-0.3-2.4-0.3c-0.3,0-0.4-0.1-0.4-0.3c0-0.3,0.4-0.4,1-0.4
		c2.2,0,4.6,0.1,5.1,0.1c0.5,0,2.2-0.1,4.2-0.1c0.5,0,0.9,0.1,0.9,0.4c0,0.2-0.2,0.3-0.5,0.3c-0.2,0-0.6,0-1.2,0.2
		c-1.6,0.3-1.8,1.4-1.8,4.5l-0.1,29.4c0,3.3-0.1,3.6-0.4,3.6c-0.4,0-1-0.6-3.6-3.2c-0.5-0.5-7.6-7.9-12.9-13.6
		c-5.7-6.3-11.3-12.6-12.9-14.4L8.8,142.3z"/>
	<path d="M54.2,125.8c0-7.8,0-9.2-0.1-10.8c-0.1-1.7-0.5-2.5-2.1-2.9c-0.4-0.1-1.2-0.2-1.7-0.2c-0.2,0-0.4-0.1-0.4-0.3
		c0-0.3,0.2-0.4,0.8-0.4c1.1,0,2.5,0,3.5,0.1l2,0.1c0.3,0,11.6,0,12.7-0.1c0.9,0,1.7-0.1,2.1-0.2c0.3-0.1,0.4-0.3,0.7-0.3
		c0.1,0,0.2,0.2,0.2,0.5c0,0.3-0.2,1-0.4,2.4c-0.1,0.5-0.1,2.7-0.2,3.3c-0.1,0.3-0.1,0.6-0.3,0.6c-0.3,0-0.4-0.3-0.4-0.7
		c0-0.3,0-1.2-0.3-1.8c-0.3-0.8-0.8-1.4-3.5-1.7c-0.8-0.1-7.6-0.1-8.2-0.1c-0.2,0-0.3,0.1-0.3,0.5v13.8c0,0.3,0.1,0.5,0.3,0.5
		c0.6,0,8.1,0,9.2-0.1c1.2-0.1,1.9-0.2,2.3-0.7c0.3-0.4,0.5-0.7,0.7-0.7c0.1,0,0.3,0.1,0.3,0.4c0,0.3-0.3,1.2-0.4,2.8
		c-0.1,1-0.2,2.9-0.2,3.2c0,0.4,0,1-0.3,1c-0.2,0-0.3-0.2-0.3-0.5c0-0.5,0-1-0.2-1.7c-0.2-0.7-0.6-1.6-2.6-1.8
		c-1.3-0.2-7.6-0.3-8.5-0.3c-0.2,0-0.3,0.1-0.3,0.4v4.4c0,1.7,0,7.5,0,8.6c0.2,3.5,0.9,4.1,5.7,4.1c1.3,0,4.9,0,6.1-0.6
		c1.3-0.6,1.9-1.6,2.2-3.6c0.1-0.6,0.2-0.8,0.4-0.8c0.3,0,0.3,0.4,0.3,0.8c0,0.4-0.4,3.8-0.6,4.9c-0.3,1.3-0.7,1.3-2.7,1.3
		c-3.7,0-7.8-0.1-9.7-0.1c-1.9-0.1-3.1-0.1-3.8-0.1c-0.1,0-0.9,0-2,0.1c-1,0-2.1,0.1-2.9,0.1c-0.5,0-0.8-0.1-0.8-0.4
		c0-0.2,0.1-0.3,0.4-0.3c0.4,0,1-0.1,1.5-0.2c1-0.2,1.2-1.3,1.4-2.8c0.2-2.1,0.2-6.1,0.2-10.9V125.8z"/>
	<path d="M84.9,125.8c0-7.8,0-9.2-0.1-10.8c-0.1-1.7-0.5-2.5-2.1-2.9c-0.4-0.1-1.2-0.2-1.7-0.2c-0.2,0-0.4-0.1-0.4-0.3
		c0-0.3,0.2-0.4,0.8-0.4c2.2,0,5.2,0.1,5.7,0.1c0.4,0,3.4-0.1,4.9-0.1c0.5,0,0.8,0.1,0.8,0.4c0,0.2-0.2,0.3-0.4,0.3
		c-0.3,0-0.6,0.1-1.2,0.2c-1.3,0.2-1.7,1.1-1.8,2.9c-0.1,1.6-0.1,3-0.1,10.8v7c0,7.2,1.6,10.3,3.7,12.4c2.4,2.3,4.6,2.8,7.4,2.8
		c3,0,6-1.5,7.7-3.6c2.3-2.9,2.9-7.1,2.9-12.3v-6.3c0-7.8,0-9.2-0.1-10.8c-0.1-1.7-0.5-2.5-2.1-2.9c-0.4-0.1-1.2-0.2-1.7-0.2
		c-0.2,0-0.4-0.1-0.4-0.3c0-0.3,0.2-0.4,0.8-0.4c2.2,0,4.9,0.1,5.2,0.1c0.3,0,2.7-0.1,4.1-0.1c0.5,0,0.8,0.1,0.8,0.4
		c0,0.2-0.2,0.3-0.4,0.3c-0.3,0-0.6,0.1-1.2,0.2c-1.3,0.3-1.7,1.1-1.8,2.9c-0.1,1.6-0.1,3-0.1,10.8v5.4c0,5.4-0.6,11.4-4.5,15
		c-3.5,3.2-7.2,3.7-10.1,3.7c-1.7,0-6.7-0.2-10.1-3.6c-2.4-2.4-4.3-5.9-4.3-13.2V125.8z"/>
	<path d="M132.8,134.7c0,7.4,0.2,10.6,1.1,11.5c0.8,0.8,2.1,1.2,5.9,1.2c2.6,0,4.8-0.1,6-1.5c0.6-0.8,1.1-2.1,1.3-3
		c0.1-0.4,0.2-0.7,0.4-0.7c0.3,0,0.3,0.2,0.3,0.8c0,0.6-0.3,3.6-0.7,5c-0.3,1.2-0.5,1.4-3.1,1.4c-3.5,0-6.1-0.1-8.2-0.1
		c-2.1-0.1-3.6-0.1-5-0.1c-0.2,0-1,0-2,0c-1,0.1-2.1,0.1-2.8,0.1c-0.5,0-0.8-0.1-0.8-0.4c0-0.1,0.1-0.3,0.4-0.3c0.4,0,1-0.1,1.5-0.2
		c1-0.2,1.2-1.3,1.4-2.8c0.2-2.1,0.2-6.1,0.2-10.9v-8.8c0-7.8,0-9.2-0.1-10.8c-0.1-1.7-0.5-2.5-2.1-2.9c-0.4-0.1-1.2-0.1-1.7-0.1
		c-0.2,0-0.4-0.1-0.4-0.3c0-0.3,0.3-0.4,0.8-0.4c2.2,0,5.3,0.1,5.6,0.1c0.3,0,3.8-0.1,5.3-0.1c0.5,0,0.8,0.1,0.8,0.4
		c0,0.2-0.2,0.3-0.4,0.3c-0.3,0-1,0-1.6,0.1c-1.4,0.3-1.8,1.1-1.9,2.9c-0.1,1.6-0.1,3-0.1,10.8V134.7z"/>
	<path d="M168.8,112.5c0.6-1.7,0.8-2,1.2-2c0.3,0,0.5,0.3,1.2,1.8c0.8,1.9,9.1,22.6,12.3,30.2c1.9,4.5,3.4,5.3,4.5,5.6
		c0.8,0.3,1.6,0.3,2.1,0.3c0.3,0,0.5,0.1,0.5,0.3c0,0.3-0.5,0.4-1.1,0.4c-0.8,0-4.6,0-8.3-0.1c-1-0.1-1.6-0.1-1.6-0.4
		c0-0.2,0.2-0.3,0.4-0.3c0.3-0.1,0.6-0.6,0.3-1.4l-4.9-12.3c-0.1-0.2-0.2-0.3-0.5-0.3h-11.3c-0.3,0-0.4,0.1-0.5,0.4l-3.2,8.9
		c-0.5,1.3-0.7,2.5-0.7,3.4c0,1,1.1,1.4,2,1.4h0.5c0.4,0,0.5,0.1,0.5,0.3c0,0.3-0.3,0.4-0.8,0.4c-1.3,0-3.5-0.2-4.1-0.2
		c-0.6,0-3.5,0.2-6,0.2c-0.7,0-1-0.1-1-0.4c0-0.2,0.2-0.3,0.5-0.3c0.4,0,1.1,0,1.5-0.1c2.4-0.3,3.5-2.2,4.4-4.7L168.8,112.5z
		 M174.3,132.6c0.3,0,0.3-0.1,0.2-0.3l-5-13.5c-0.3-0.8-0.5-0.8-0.8,0l-4.6,13.5c-0.1,0.2,0,0.3,0.2,0.3H174.3z"/>
	<path d="M200.5,142.3c0.1,4.1,0.6,5.4,1.9,5.8c0.9,0.3,2,0.3,2.5,0.3c0.2,0,0.4,0.1,0.4,0.3c0,0.3-0.3,0.4-0.9,0.4
		c-2.8,0-4.8-0.1-5.2-0.1c-0.4,0-2.5,0.1-4.7,0.1c-0.5,0-0.8-0.1-0.8-0.4c0-0.2,0.1-0.3,0.4-0.3c0.4,0,1.3-0.1,2-0.3
		c1.2-0.3,1.5-1.8,1.5-6.4l0.1-28.7c0-2,0.1-2.5,0.5-2.5c0.4,0,1.2,1.1,1.7,1.6c0.7,0.9,8.1,8.9,15.7,17.2
		c4.9,5.3,10.2,11.4,11.8,13.1l-0.5-25.5c0-3.3-0.4-4.4-1.9-4.8c-0.9-0.2-2-0.3-2.4-0.3c-0.3,0-0.4-0.1-0.4-0.3c0-0.3,0.4-0.4,1-0.4
		c2.2,0,4.6,0.1,5.1,0.1s2.2-0.1,4.2-0.1c0.5,0,0.9,0.1,0.9,0.4c0,0.2-0.2,0.3-0.5,0.3c-0.2,0-0.6,0-1.2,0.2
		c-1.6,0.3-1.8,1.4-1.8,4.5l-0.1,29.4c0,3.3-0.1,3.6-0.4,3.6c-0.4,0-1-0.6-3.6-3.2c-0.5-0.5-7.6-7.9-12.9-13.6
		c-5.7-6.3-11.3-12.6-12.9-14.4L200.5,142.3z"/>
	<path d="M244.4,125.8c0-7.8,0-9.2-0.1-10.8c-0.1-1.7-0.5-2.5-2.1-2.9c-0.4-0.1-1.2-0.1-1.7-0.1c-0.2,0-0.4-0.1-0.4-0.3
		c0-0.3,0.3-0.4,0.8-0.4c2.2,0,5.3,0.2,5.6,0.2c0.6,0,3.7-0.2,6.7-0.2c4.9,0,13.9-0.4,19.8,5.7c2.5,2.6,4.8,6.8,4.8,12.7
		c0,6.3-2.6,11.2-5.3,14.1c-2.1,2.3-6.6,5.8-14.9,5.8c-2.1,0-4.7-0.1-6.8-0.3c-2.2-0.1-3.8-0.3-4.1-0.3c-0.1,0-0.9,0-2,0
		c-1,0-2.1,0.1-2.9,0.1c-0.5,0-0.8-0.1-0.8-0.4c0-0.1,0.1-0.3,0.4-0.3c0.4,0,1-0.1,1.5-0.2c1-0.2,1.2-1.3,1.4-2.8
		c0.2-2.1,0.2-6.1,0.2-10.9V125.8z M248.5,131.2c0,5.3,0.1,9.9,0.1,10.9c0.1,1.2,0.1,3.3,0.5,3.8c0.6,1,2.6,2,8.4,2
		c4.6,0,8.8-1.7,11.7-4.7c2.6-2.6,3.9-7.4,3.9-12c0-6.4-2.7-10.5-4.7-12.6c-4.6-5-10.2-5.7-16.1-5.7c-1,0-2.8,0.2-3.2,0.4
		c-0.4,0.2-0.6,0.5-0.6,1c-0.1,1.7-0.1,6.8-0.1,10.7V131.2z"/>
	<rect x="1.8" y="2.9" class="st0" width="275.4" height="170.6"/>
	<g>
		<defs>
			<path id="SVGID_1_" d="M187.2,57.9c0.3,0.2,0.5,0.4,0.8,0.6c0.9-0.4,2-0.4,2.9,0.8c0.7-6.4,5.3-11.4,8.3-17.3
				C197,43.6,191.3,49.4,187.2,57.9"/>
		</defs>
		<clipPath id="SVGID_00000170992612462255110960000010356333208949601935_">
			<use xlink:href="#SVGID_1_"  style="overflow:visible;"/>
		</clipPath>
		
			<linearGradient id="SVGID_00000016073792386601683610000015773353832105392567_" gradientUnits="userSpaceOnUse" x1="-3616.0959" y1="12319.9814" x2="-3610.3884" y2="12319.9814" gradientTransform="matrix(2.0951 0 0 -2.0951 7763.2969 25862.4766)">
			<stop  offset="0" style="stop-color:#A8C238"/>
			<stop  offset="1" style="stop-color:#54813A"/>
		</linearGradient>
		
			<rect x="187.1" y="42" style="clip-path:url(#SVGID_00000170992612462255110960000010356333208949601935_);fill:url(#SVGID_00000016073792386601683610000015773353832105392567_);" width="12" height="17.3"/>
	</g>
	<g>
		<defs>
			<path id="SVGID_00000109710167286696829150000009741152958212100766_" d="M213.7,62.5c-3.2-1.4-8.7-6.2-12.1-9.7
				c-0.2,3.4,3.5,8,6.1,10.7c-1.3-1.1-3.5-1.3-4.2-3c-1.6,1.2-2.2,3.4-2.5,5.8c0.5-0.1,1.2-0.1,1.9,0c1.2,0.1,2.4,0.3,2.5-0.7
				c2.4,1.7,3.5,4.6,5.1,7.1c0.9-1.3-2-4.4-2.5-6.5c1.8,0.6,3.9,0.8,5.1,1.9c0.4-1.9-3.5-5.1-5.1-7.1c4.7,2.4,11.2,8.4,15.9,12.9
				c-1.7-0.4-3.2-1-4.4-1.9c0.5,3.2,7.3,5.5,9.5,9.1c-6.1-3.7-11.3-8.3-17.8-11.6c1.7,3.5,3.4,6.9,5.1,10.3
				c-4.4-3.3-8.1-5.7-14.1-7.3c1.6-1,2.9,0.1,5,0.7c-2.1-4.7-11-5.9-13.1-12.8c-0.5,0.8-0.7,1.7-0.7,2.6c3.7,3.6,6.9,7.8,9.4,12.7
				c-1.4,0.1-2.8-0.8-4-1.6c-1.7-1.1-3.2-2.2-4.1-1.2c8.5,4.9,17.5,9.3,26.3,13.9c-1,0.3-2-0.1-2.9-0.5c-1.4-0.6-2.6-1.2-3.5,0.5
				c4.1,1.3,8,2.3,11.7,3l0.4-0.9c0.4-0.8,1.6-0.4,2.9,0.1c0.9,0.4,1.9,0.7,2.7,0.5c-4.8-2.9-10.2-4.9-16.6-6.1
				c1-0.8,2.4-0.3,3.9,0.3c1,0.4,2.1,0.7,3.1,0.7c-1.4-0.7-2.3-3-4.5-2.6c7.1-1.3,16.3,6.6,24.9,10.5c8.9,0.9,17.6,1.5,27.7,3.7
				c3.1,0.7,4.3,0.8,3.9,0.9h0.1c1.1,0,1.9-0.1,2.5-0.1v-0.7c-0.6-0.2-1.4-0.4-2.5-0.6c-11.2-2.5-18.5-3.5-31.1-7.2
				c0.1-1.4,2.4-0.5,3.1-0.1c-2.6-2.2-9.9-4.9-13.9-7.7c0.2-1.2,2.7,0.7,3.2,1.3c-1.5-7.4-10.7-12.4-17.8-16.2
				c-5.8-8.3-11.1-17.2-16.5-25.9C199.4,41.3,207.9,58.1,213.7,62.5"/>
		</defs>
		<clipPath id="SVGID_00000078748726843187059880000002678249118641885586_">
			<use xlink:href="#SVGID_00000109710167286696829150000009741152958212100766_"  style="overflow:visible;"/>
		</clipPath>
		
			<linearGradient id="SVGID_00000055664504933856280040000008720899259652053638_" gradientUnits="userSpaceOnUse" x1="-6540.6733" y1="9125.7666" x2="-6534.9683" y2="9125.7666" gradientTransform="matrix(14.8774 0 0 -14.8774 97501.2812 135835.7656)">
			<stop  offset="0" style="stop-color:#A8C238"/>
			<stop  offset="1" style="stop-color:#54813A"/>
		</linearGradient>
		
			<rect x="193.3" y="39.9" style="clip-path:url(#SVGID_00000078748726843187059880000002678249118641885586_);fill:url(#SVGID_00000055664504933856280040000008720899259652053638_);" width="83.9" height="57.1"/>
	</g>
	<g>
		<defs>
			<path id="SVGID_00000049924727094392879620000011009682895417350534_" d="M93.3,49c-0.4,0.4-0.8,1-1,1.5c0.3,0.5,0.6,1,0.9,1.5
				c0.4-0.3,0.7-0.7,1-1c0.9-1.1,1.7-2.3,3.2-2.8c-0.7,1.4-1.9,2.3-2.7,3.5c-0.3,0.4-0.6,0.9-0.7,1.4c0.4,0.6,0.7,1.2,1.1,1.8
				c0.4-0.2,0.8-0.5,1.2-0.7c5.7-3.7,9.2-9.6,13.9-14.3C104.8,40.1,97.4,44.2,93.3,49"/>
		</defs>
		<clipPath id="SVGID_00000071528500558298402610000000116893961937773709_">
			<use xlink:href="#SVGID_00000049924727094392879620000011009682895417350534_"  style="overflow:visible;"/>
		</clipPath>
		
			<linearGradient id="SVGID_00000171680971974757505780000014417306767642824637_" gradientUnits="userSpaceOnUse" x1="-4755.394" y1="11104.3232" x2="-4749.688" y2="11104.3232" gradientTransform="matrix(3.1144 0 0 -3.1144 14902.6133 34630.8281)">
			<stop  offset="0" style="stop-color:#272361"/>
			<stop  offset="0.3032" style="stop-color:#283F78"/>
			<stop  offset="0.9886" style="stop-color:#1687C7"/>
			<stop  offset="1" style="stop-color:#1389CA"/>
		</linearGradient>
		
			<rect x="92.3" y="39.8" style="clip-path:url(#SVGID_00000071528500558298402610000000116893961937773709_);fill:url(#SVGID_00000171680971974757505780000014417306767642824637_);" width="17.8" height="15"/>
	</g>
	<g>
		<defs>
			<path id="SVGID_00000101062152399752040970000010579834938497355160_" d="M103.7,60.1c1.2,4.4,6.4,2.4,7.3-0.9
				c2.7,0.8-2.1,1.4-0.9,3.7c6.8-5.1,10-13.8,14.5-21.3C121.1,43.9,113.4,57.9,103.7,60.1"/>
		</defs>
		<clipPath id="SVGID_00000000213121269749169210000006914759546728036747_">
			<use xlink:href="#SVGID_00000101062152399752040970000010579834938497355160_"  style="overflow:visible;"/>
		</clipPath>
		
			<linearGradient id="SVGID_00000040554329462929092340000013386025600280918431_" gradientUnits="userSpaceOnUse" x1="-5090.5698" y1="10730.2373" x2="-5084.8652" y2="10730.2373" gradientTransform="matrix(3.6602 0 0 -3.6602 18736.2676 39327.9766)">
			<stop  offset="0" style="stop-color:#272361"/>
			<stop  offset="0.3032" style="stop-color:#283F78"/>
			<stop  offset="0.9886" style="stop-color:#1687C7"/>
			<stop  offset="1" style="stop-color:#1389CA"/>
		</linearGradient>
		
			<rect x="103.7" y="41.6" style="clip-path:url(#SVGID_00000000213121269749169210000006914759546728036747_);fill:url(#SVGID_00000040554329462929092340000013386025600280918431_);" width="20.9" height="22.9"/>
	</g>
	<g>
		<defs>
			<path id="SVGID_00000147198748445148364080000012309908248830746551_" d="M111.1,39c2,1.3,5.5-2.7,7.1-4.8
				c2.6-0.2,2.3,2.6,3.6,3.7c4.3-8.9,6.7-19.7,12.7-26.8C129.5,16.2,119.1,30.8,111.1,39"/>
		</defs>
		<clipPath id="SVGID_00000091736913354794342220000003979233447081060757_">
			<use xlink:href="#SVGID_00000147198748445148364080000012309908248830746551_"  style="overflow:visible;"/>
		</clipPath>
		
			<linearGradient id="SVGID_00000035500222609774521560000011949235436501481101_" gradientUnits="userSpaceOnUse" x1="-5301.249" y1="10501.9961" x2="-5295.5449" y2="10501.9961" gradientTransform="matrix(4.1123 0 0 -4.1123 21911.4961 43213.1758)">
			<stop  offset="0" style="stop-color:#272361"/>
			<stop  offset="0.3032" style="stop-color:#283F78"/>
			<stop  offset="0.9886" style="stop-color:#1687C7"/>
			<stop  offset="1" style="stop-color:#1389CA"/>
		</linearGradient>
		
			<rect x="111.1" y="11.2" style="clip-path:url(#SVGID_00000091736913354794342220000003979233447081060757_);fill:url(#SVGID_00000035500222609774521560000011949235436501481101_);" width="23.5" height="29.2"/>
	</g>
	<g>
		<defs>
			<path id="SVGID_00000040533642660319394030000000191551662816058246_" d="M150,23.2c-0.6,1.8-4.3-0.7-4.9-1.9
				c3.3,7.9,11.3,15.7,18.5,21.3c-6.7-1.8-14.3-10.6-20.9-15.7c-0.9,6.8,6.3,13.2,10.9,17.6c-4.1-0.7-5.3-4.5-10-4.6
				c-0.2,3.8-2.7,5.2-2.7,9.2h9.1c2.8,2.4,4.4,6,6.3,9.2c1.2-1.9-2.8-6.3-3.6-9.2c3.2,1.1,7.1,1.5,9.1,3.7c0.1-4.4-6.7-9.8-10-13.9
				c8.7,5.3,20.1,15.9,29,24c-3.5-1.3-7.5-2.2-10-4.6c2.5,5.5,13.6,10.2,18.2,16.6c-9.9-7.2-21-13.1-30-21.2
				c0.2,5,5.1,13.3,8.2,18.5c-5.4-3.2-15.7-9.3-25.4-11.1c3-1.8,8.4,1.9,11.8,2.8c-4.8-7.8-19.9-13-24.5-24
				c-3.2,6,1.9,11.6,5.4,13.9c-0.7,1.3-1.6,0.3-2.6-0.6c-0.8-0.7-1.8-1.5-2.8-1.2c-0.3,10.5,10.1,10,13.6,16.6
				c-4.1-3.2-10.1-4.5-13.6-8.3c-3.7,3.4-1.1,9.1,2.7,10.2c-0.4,1.3-1.1,0.6-2-0.2c-0.7-0.6-1.6-1.1-2.5-0.8
				c1.7,3.2,2.7,7.1,4.5,10.2c-3.1-2.4-10.1-8.8-12.7-14.8c-4.5,6,3.2,9.4,5.4,13.9c-0.9,1.8-3.6-2.4-4.5-3.7
				c-2.4,0.3,4.2,6.7,0,3.7c4.5,4.6,17.4,14.5,29,14.8c-3.1-4.5-11.9-8.1-13.5-14.8c7.4,4.5,13.5,18.3,30.9,15.7
				c-1.9-3.3-5.4-5-7.3-8.3c8,11.6,27.6,11.4,47.3,11.1c4.5-0.1,9.1-0.1,13.5,0c-11.2-4-24.2-6.1-38.1-7.4c2.5-1.6,5.4-1,8.4-0.4
				c2.2,0.4,4.6,0.9,7,0.4c-9.7-4-19.1-8.3-30.9-10.2c1.9-1.3,4.4-0.6,7,0.1c1.9,0.5,3.8,1,5.7,0.8c-3.1-2-6-4.4-10-5.5
				c15.5,3.2,36.2,19.2,54.5,22.2c0.4,0.1,0.9,0.1,1.3,0.2h38.7c1.5-0.1,3-0.1,4.4-0.2c2.5-0.1,4.3-0.1,5.4-0.1
				c2.2,0,1.5,0.1-2.7-0.9c-20.1-4.4-34.7-2.4-56.3-9.2c0.8-1.7,2.1-1.1,3.5-0.5c0.9,0.4,1.9,0.8,2.9,0.5
				C212,82.4,203,78,194.5,73.1c1-0.9,2.4,0.1,4.1,1.2c1.3,0.8,2.7,1.6,4,1.6c-6.9-13.3-18.8-21.5-32.7-27.7
				c-9.1-15.4-19.2-29.7-28.1-45.3C140.8,9.8,142.9,21.5,150,23.2"/>
		</defs>
		<clipPath id="SVGID_00000147937241122690298040000015575001606568418199_">
			<use xlink:href="#SVGID_00000040533642660319394030000000191551662816058246_"  style="overflow:visible;"/>
		</clipPath>
		
			<linearGradient id="SVGID_00000142150304893433028830000013366465403789842602_" gradientUnits="userSpaceOnUse" x1="-6763.2788" y1="8886.3887" x2="-6757.5737" y2="8886.3887" gradientTransform="matrix(27.5135 0 0 -27.5135 186199.4844 244546.2188)">
			<stop  offset="0" style="stop-color:#272361"/>
			<stop  offset="0.3032" style="stop-color:#283F78"/>
			<stop  offset="0.9886" style="stop-color:#1687C7"/>
			<stop  offset="1" style="stop-color:#1389CA"/>
		</linearGradient>
		
			<rect x="114.6" y="2.9" style="clip-path:url(#SVGID_00000147937241122690298040000015575001606568418199_);fill:url(#SVGID_00000142150304893433028830000013366465403789842602_);" width="161.1" height="94.8"/>
	</g>
	<g>
		<defs>
			<path id="SVGID_00000036952300010410998520000008216364309293509566_" d="M45.6,76.4c-11.4,14.3-31.3,19.6-35.8,20
				c-1.4-0.1-8.5,0.4-4.8,1.1h15.6c2.4-2.1,5.5-3.3,7.7-5.5c2,0.6-1.5,1-0.7,2.7C32.2,90,38,86.7,43,82.5c0.8,1.7-3.8,3.8-4.7,6.1
				c0.4-1.1,7.7-3.9,8.5-10.5c3.7,2.1,7.3-8.8,12.1-10.4c-3.5,4.5-6.6,9.5-10.6,13.5c5.5-4.1,12.2-12.8,18.6-18.3c-0.3,0-0.7,0-1,0
				C57,62.8,53.9,73.9,45.6,76.4"/>
		</defs>
		<clipPath id="SVGID_00000128466690774715231710000006195404376602876337_">
			<use xlink:href="#SVGID_00000036952300010410998520000008216364309293509566_"  style="overflow:visible;"/>
		</clipPath>
		
			<linearGradient id="SVGID_00000163772101230372137930000004940429147797621136_" gradientUnits="userSpaceOnUse" x1="-6387.6245" y1="9306.8789" x2="-6381.9194" y2="9306.8789" gradientTransform="matrix(11.0324 0 0 -11.0324 70474.5625 102757.0625)">
			<stop  offset="0" style="stop-color:#F26138"/>
			<stop  offset="0.6092" style="stop-color:#C9432A"/>
			<stop  offset="1" style="stop-color:#BA3526"/>
		</linearGradient>
		
			<rect x="1.3" y="62.8" style="clip-path:url(#SVGID_00000128466690774715231710000006195404376602876337_);fill:url(#SVGID_00000163772101230372137930000004940429147797621136_);" width="65.6" height="34.7"/>
	</g>
	<g>
		<defs>
			<path id="SVGID_00000126321313101582628600000016639696537729963161_" d="M53.6,86.5c-3.3,3.4-8.4,5-12.6,7.4
				c1.3,0.8,8.5-3.8,12.6-4.7c-0.3-1.1,0.8-3.2,0.5-3.2C54,86.1,53.9,86.2,53.6,86.5"/>
		</defs>
		<clipPath id="SVGID_00000088819603950244554110000016165327186822038957_">
			<use xlink:href="#SVGID_00000126321313101582628600000016639696537729963161_"  style="overflow:visible;"/>
		</clipPath>
		
			<linearGradient id="SVGID_00000060025814546600810530000002485259043694209665_" gradientUnits="userSpaceOnUse" x1="-3992.1741" y1="11951.7402" x2="-3986.4692" y2="11951.7402" gradientTransform="matrix(2.3155 0 0 -2.3155 9284.8164 27764.6211)">
			<stop  offset="0" style="stop-color:#F26138"/>
			<stop  offset="0.6092" style="stop-color:#C9432A"/>
			<stop  offset="1" style="stop-color:#BA3526"/>
		</linearGradient>
		
			<rect x="41" y="86.1" style="clip-path:url(#SVGID_00000088819603950244554110000016165327186822038957_);fill:url(#SVGID_00000060025814546600810530000002485259043694209665_);" width="13.4" height="8.7"/>
	</g>
	<g>
		<defs>
			<path id="SVGID_00000032643672682933113450000005630198492239662769_" d="M57.6,89.9c1,0.4,2.5-1,4.1-2.4
				c1.6-1.5,3.3-2.9,4.6-2.3c1-1.4,2.2-2.7,2.7-4.7C68.4,81.6,60.7,86.9,57.6,89.9"/>
		</defs>
		<clipPath id="SVGID_00000072281883220523992060000016473674294117094062_">
			<use xlink:href="#SVGID_00000032643672682933113450000005630198492239662769_"  style="overflow:visible;"/>
		</clipPath>
		
			<linearGradient id="SVGID_00000052092463071129453060000009772425059921587598_" gradientUnits="userSpaceOnUse" x1="-3471.0808" y1="12522.4609" x2="-3465.3743" y2="12522.4609" gradientTransform="matrix(1.9794 0 0 -1.9794 6928.2788 24872.4844)">
			<stop  offset="0" style="stop-color:#F26138"/>
			<stop  offset="0.6092" style="stop-color:#C9432A"/>
			<stop  offset="1" style="stop-color:#BA3526"/>
		</linearGradient>
		
			<rect x="57.6" y="80.5" style="clip-path:url(#SVGID_00000072281883220523992060000016473674294117094062_);fill:url(#SVGID_00000052092463071129453060000009772425059921587598_);" width="11.3" height="9.9"/>
	</g>
	<g>
		<defs>
			<path id="SVGID_00000074400966885085550260000000010452840209666725_" d="M57.6,77.7c2.8,1.2,8.7-0.1,9.3-3.4c1,0.3-0.3,0.9,0,2
				c4.1-2.6,5-8.5,8.6-11.5C70.6,67.6,65.7,76,57.6,77.7"/>
		</defs>
		<clipPath id="SVGID_00000170248989110905756270000011158261248665445538_">
			<use xlink:href="#SVGID_00000074400966885085550260000000010452840209666725_"  style="overflow:visible;"/>
		</clipPath>
		
			<linearGradient id="SVGID_00000084505251596395735210000002756448465500853418_" gradientUnits="userSpaceOnUse" x1="-4786.9888" y1="11073.0098" x2="-4781.2847" y2="11073.0098" gradientTransform="matrix(3.1456 0 0 -3.1456 15115.7559 34903.7188)">
			<stop  offset="0" style="stop-color:#F26138"/>
			<stop  offset="0.6092" style="stop-color:#C9432A"/>
			<stop  offset="1" style="stop-color:#BA3526"/>
		</linearGradient>
		
			<rect x="57.6" y="64.9" style="clip-path:url(#SVGID_00000170248989110905756270000011158261248665445538_);fill:url(#SVGID_00000084505251596395735210000002756448465500853418_);" width="17.9" height="14.1"/>
	</g>
	<g>
		<defs>
			<path id="SVGID_00000163774188853775035860000002116471466200783001_" d="M88.1,50.7c0,0,4.8,9,10.6,13.6
				c-3.4-1.5-9.1-6.5-12.6-10.2c-0.2,3.5,3.6,8.4,6.4,11.2c-1.3-1.2-3.6-1.4-4.4-3.1c-1.7,1.2-2.2,3.6-2.7,6.1c0.5-0.1,1.3-0.1,2,0
				c1.2,0.1,2.5,0.3,2.7-0.7c2.5,1.7,3.7,4.8,5.3,7.4c0.9-1.4-2.1-4.6-2.7-6.8c1.8,0.6,4,0.8,5.3,2c0.4-2-3.6-5.3-5.3-7.4
				c4.9,2.5,11.7,8.8,16.6,13.5c-1.8-0.5-3.4-1.1-4.6-2c0.5,3.3,7.6,5.8,10,9.5c-6.4-3.9-11.8-8.7-18.6-12.2
				c1.8,3.6,3.5,7.2,5.3,10.8C96.9,79,91.1,76.8,84.8,75c1.7-1,5.8,1.3,8,2c-2.2-4.9-12.4-7.7-14.6-14.9c-1.8,3.3,1.2,7.3,3.3,8.8
				c-0.2,1.1-1,0.4-1.7-0.3c-0.7-0.7-1.4-1.3-1.6-0.4c-0.1,5.9,6.2,5.4,8,9.5c-2.5-1.7-5.6-2.9-8-4.7c-1.1,2-2,5.4,1.2,5.4
				c-3.2,0.1-0.8,4.2,0.8,6.1c-2-0.9-6.5-5.2-8-8.8c-2.3,3.6,1.8,6.3,3.3,8.1c-0.6,1-3.1-1.7-4-2.7c-3.6,4.8,3.9,5.8,5.3,9.5
				c-3.1-0.7-3.5-4.1-6.6-4.7c-0.3,2.8,0.4,4.6,1.3,6.1c-0.7-0.6-3.5-2-4.6,1.4c-1.1-1.6,3.2-3.4,2.7-6.8c-2.2,2.3-4.4,4-5.7,7.2
				c-1.5,0-2.7,0.9-4.2,0.9c3.3,1,10,0.8,16.6,0.7c4-0.1,8.1-0.2,11.3,0c-1.5-2-4.1-3.1-5.3-5.4c2.9,1,5,3,7.3,4.7
				c-0.6-3-5.2-7.8-8-10.8c3.3,1.6,8.5,7.1,11.3,11.5h10c-2.8-3-5.1-5.2-7.3-7.4c7.8,7.9,22.9,7.4,37.9,7.4
				c-6.1-2.4-13.4-3.5-21.3-4.1c0.4-1,2-0.8,3.5-0.7c0.9,0.1,1.8,0.2,2.5,0c-5-3.1-11.3-4.8-17.9-6.1c1-0.9,2.8-0.4,4.6,0.1
				c1.2,0.3,2.4,0.6,3.4,0.6c-1.3-1.1-2.4-2.5-4.6-2.7c9.2,0.8,21.3,11,31.9,12.8c7.9,1.4,18.8,0.6,27.3,0c4.5-0.3,3.5,0.1,0-0.7
				c-11.7-2.6-19.3-1.6-32.6-5.4c0.2-1.5,2.7-0.5,3.3,0c-2.6-2.3-10.4-5.2-14.6-8.1c0.2-1.2,2.8,0.7,3.3,1.4
				c-1.5-7.7-11.2-13-18.6-16.9c-6.1-8.7-11.6-18-17.3-27.1C83.8,42,86.4,47.4,88.1,50.7"/>
		</defs>
		<clipPath id="SVGID_00000010275841885625707100000006090603434930651291_">
			<use xlink:href="#SVGID_00000163774188853775035860000002116471466200783001_"  style="overflow:visible;"/>
		</clipPath>
		
			<linearGradient id="SVGID_00000065797095909218672540000000011083546404239035_" gradientUnits="userSpaceOnUse" x1="-6642.3398" y1="9021.4229" x2="-6636.6353" y2="9021.4229" gradientTransform="matrix(18.586 0 0 -18.586 123514.1094 167741.8125)">
			<stop  offset="0" style="stop-color:#F26138"/>
			<stop  offset="0.6092" style="stop-color:#C9432A"/>
			<stop  offset="1" style="stop-color:#BA3526"/>
		</linearGradient>
		
			<rect x="59.6" y="40.5" style="clip-path:url(#SVGID_00000010275841885625707100000006090603434930651291_);fill:url(#SVGID_00000065797095909218672540000000011083546404239035_);" width="107.5" height="58.2"/>
	</g>
	<g>
		<defs>
			<path id="SVGID_00000151520533289708628770000008832602871215608227_" d="M69.5,61.5C69.5,61.5,69.5,61.5,69.5,61.5L69.5,61.5
				c0.3-0.1,0.6-0.5,1.1-0.8c1.2-0.9,2.9-1.7,4.3,0.1c0.7-6.7,3.9-10.9,6.6-15.6C79.5,47.4,73,56.4,69.5,61.5"/>
		</defs>
		<clipPath id="SVGID_00000008848348496468030070000013475145069935957403_">
			<use xlink:href="#SVGID_00000151520533289708628770000008832602871215608227_"  style="overflow:visible;"/>
		</clipPath>
		
			<linearGradient id="SVGID_00000057859507655405284850000008249765970589842820_" gradientUnits="userSpaceOnUse" x1="-3690.2639" y1="12288.0898" x2="-3684.5588" y2="12288.0898" gradientTransform="matrix(2.1126 0 0 -2.1126 7865.6172 26013.623)">
			<stop  offset="0" style="stop-color:#F26138"/>
			<stop  offset="0.6092" style="stop-color:#C9432A"/>
			<stop  offset="1" style="stop-color:#BA3526"/>
		</linearGradient>
		
			<rect x="69.5" y="45.3" style="clip-path:url(#SVGID_00000008848348496468030070000013475145069935957403_);fill:url(#SVGID_00000057859507655405284850000008249765970589842820_);" width="12" height="16.3"/>
	</g>
</g>
</svg>
