<?xml version="1.0" encoding="utf-8"?>
<!-- Generator: Adobe Illustrator 27.7.0, SVG Export Plug-In . SVG Version: 6.00 Build 0)  -->
<svg version="1.1" id="Layer_1" xmlns="http://www.w3.org/2000/svg" xmlns:xlink="http://www.w3.org/1999/xlink" x="0px" y="0px"
	 viewBox="0 0 500 500" style="enable-background:new 0 0 500 500;" xml:space="preserve">
<style type="text/css">
	.st0{fill:none;stroke:#939598;stroke-width:2;}
	.st1{fill:none;stroke:url(#SVGID_1_);stroke-width:3;stroke-miterlimit:10;}
	.st2{fill:#4D4E4F;}
	.st3{fill:#939598;}
	.st4{fill:none;stroke:#DCDDDE;stroke-width:8;stroke-linecap:round;stroke-linejoin:round;}
	.st5{fill:none;stroke:#A8AAAC;stroke-width:8;stroke-linecap:round;stroke-linejoin:round;}
	.st6{fill:none;stroke:#939598;stroke-width:8;stroke-linecap:round;stroke-linejoin:round;}
	.st7{fill:none;stroke:#005595;stroke-width:10;stroke-linecap:round;stroke-linejoin:round;}
	.st8{fill:none;stroke:#C7C8CA;stroke-width:8;stroke-linecap:round;stroke-linejoin:round;}
	.st9{fill:#6E6F71;}
	.st10{fill:none;stroke:#005595;stroke-width:5;stroke-linecap:round;stroke-linejoin:round;}
	.st11{fill:none;stroke:#939598;stroke-width:5;stroke-linecap:round;stroke-linejoin:round;}
	.st12{fill:none;stroke:#A8AAAC;stroke-width:5;stroke-linecap:round;stroke-linejoin:round;}
	.st13{fill:none;stroke:#C7C8CA;stroke-width:5;stroke-linecap:round;stroke-linejoin:round;}
	.st14{fill:none;stroke:#DCDDDE;stroke-width:5;stroke-linecap:round;stroke-linejoin:round;}
</style>
<g>
	<line class="st0" x1="3.7" y1="5.2" x2="496.3" y2="5.2"/>
	<linearGradient id="SVGID_1_" gradientUnits="userSpaceOnUse" x1="3.689" y1="47.0653" x2="496.2733" y2="47.0653">
		<stop  offset="0" style="stop-color:#E55B32"/>
		<stop  offset="0.2185" style="stop-color:#DA512E"/>
		<stop  offset="1" style="stop-color:#BD3726"/>
	</linearGradient>
	<polyline class="st1" points="3.7,47.1 496.3,47.1 496.3,47.1 3.7,47.1 	"/>
	<g>
		<path class="st2" d="M9.7,16.4v18.5H5.5V16.4H9.7z"/>
		<path class="st2" d="M13.3,25.8c0-1.7-0.1-3.1-0.1-4.3h3.6l0.2,1.8h0.1c0.5-0.9,1.9-2.1,4.1-2.1c2.7,0,4.8,1.8,4.8,5.8v8h-4.2
			v-7.4c0-1.7-0.6-2.9-2.1-2.9c-1.2,0-1.8,0.8-2.1,1.6c-0.1,0.2-0.2,0.7-0.2,1v7.7h-4.2V25.8z"/>
		<path class="st2" d="M39.4,34.6c-0.7,0.3-2.1,0.6-3.7,0.6c-4.3,0-7.1-2.6-7.1-6.9c0-3.9,2.7-7.1,7.7-7.1c1.1,0,2.3,0.2,3.2,0.5
			l-0.7,3.1c-0.5-0.2-1.2-0.4-2.3-0.4c-2.2,0-3.6,1.6-3.6,3.8c0,2.5,1.6,3.8,3.7,3.8c1,0,1.8-0.2,2.4-0.4L39.4,34.6z"/>
		<path class="st2" d="M54.7,28c0,4.9-3.5,7.2-7.1,7.2c-3.9,0-6.9-2.6-6.9-6.9c0-4.3,2.9-7.1,7.2-7.1C52,21.2,54.7,24,54.7,28z
			 M45,28.2c0,2.3,1,4,2.7,4c1.6,0,2.7-1.6,2.7-4c0-2-0.8-4-2.7-4C45.7,24.1,45,26.2,45,28.2z"/>
		<path class="st2" d="M57.3,25.8c0-1.7-0.1-3.1-0.1-4.3h3.5l0.2,1.8H61c0.6-0.9,1.8-2.1,4.1-2.1c1.7,0,3.1,0.9,3.7,2.3h0.1
			c0.5-0.7,1.1-1.2,1.7-1.6c0.7-0.4,1.6-0.7,2.6-0.7c2.6,0,4.5,1.8,4.5,5.8v7.9h-4.1v-7.3c0-1.9-0.6-3.1-2-3.1c-1,0-1.6,0.7-1.9,1.5
			c-0.1,0.3-0.2,0.7-0.2,1.1v7.9h-4.1v-7.5c0-1.7-0.6-2.9-1.9-2.9c-1.1,0-1.7,0.8-1.9,1.5c-0.1,0.3-0.2,0.7-0.2,1v7.8h-4.1V25.8z"/>
		<path class="st2" d="M84.1,29.5c0.1,1.7,1.8,2.6,3.8,2.6c1.4,0,2.6-0.2,3.7-0.5l0.5,2.8c-1.4,0.5-3,0.8-4.9,0.8
			c-4.6,0-7.2-2.6-7.2-6.8c0-3.4,2.1-7.2,6.8-7.2c4.3,0,6,3.4,6,6.7c0,0.7-0.1,1.3-0.1,1.6H84.1z M89,26.7c0-1-0.4-2.7-2.4-2.7
			c-1.8,0-2.5,1.6-2.6,2.7H89z"/>
	</g>
	<g>
		<path class="st3" d="M376.9,18c-1.4,2.2-2.5,5.5-2.5,9.9c0,4.3,1.1,7.5,2.5,9.8h-2.6c-1.3-1.9-2.8-5.1-2.8-9.8
			c0-4.7,1.5-8,2.8-9.9H376.9z"/>
	</g>
	<g>
		<path class="st3" d="M379.4,17.9h9.7v0c-0.6,1-0.9,1.5-1,1.6h-2.6c0.4,0.5,0.6,1.1,0.7,1.7h2.8c0,0,0,0,0,0c-0.6,1-0.9,1.6-1,1.6
			h-1.8c0,0.5-0.3,1.2-0.7,2c-0.6,0.8-1.1,1.3-1.6,1.5c-0.9,0.5-1.8,0.8-2.7,0.8v0c0,0.1,0.2,0.4,0.6,0.9l4.8,6.6V35c0,0,0,0,0,0
			h-2.1c-3.8-5-5.7-7.5-5.7-7.6v-1.5l0-0.1c0.3,0.1,0.7,0.1,1.2,0.1c2.1,0,3.4-0.8,4-2.3c0.1-0.2,0.1-0.5,0.1-0.7h-5.8
			c0,0,0,0,0-0.1c0.6-1,1-1.6,1-1.6h4.6v0c-0.3-0.6-0.8-1.1-1.5-1.4c-0.5-0.2-1-0.3-1.5-0.3h-2.6v-0.1
			C379.1,18.4,379.4,17.9,379.4,17.9z"/>
	</g>
	<g>
		<path class="st3" d="M401.3,19.6c0,1-0.8,1.9-2,1.9c-1.2,0-2-0.8-1.9-1.9c0-1.1,0.8-1.9,2-1.9S401.3,18.6,401.3,19.6z M397.5,34.9
			V23h3.7v11.9H397.5z"/>
		<path class="st3" d="M404.1,26.8c0-1.5,0-2.8-0.1-3.8h3.2l0.2,1.6h0.1c0.5-0.8,1.7-1.9,3.7-1.9c2.4,0,4.3,1.6,4.3,5.1v7.1h-3.7
			v-6.6c0-1.5-0.5-2.6-1.9-2.6c-1,0-1.6,0.7-1.9,1.4c-0.1,0.2-0.1,0.6-0.1,0.9v6.9h-3.7V26.8z"/>
		<path class="st3" d="M432.3,34.6c-0.7,0.3-1.9,0.5-3.3,0.5c-3.9,0-6.3-2.3-6.3-6.1c0-3.5,2.4-6.3,6.8-6.3c1,0,2,0.2,2.8,0.5
			l-0.6,2.8c-0.4-0.2-1.1-0.4-2.1-0.4c-2,0-3.2,1.4-3.2,3.3c0,2.2,1.5,3.3,3.3,3.3c0.9,0,1.6-0.1,2.1-0.4L432.3,34.6z"/>
		<path class="st3" d="M434.4,26.9c0-1.8,0-2.9-0.1-3.9h3.2l0.1,2.2h0.1c0.6-1.7,2.1-2.5,3.2-2.5c0.3,0,0.5,0,0.8,0v3.5
			c-0.3,0-0.6-0.1-1-0.1c-1.4,0-2.3,0.7-2.5,1.9c0,0.2-0.1,0.5-0.1,0.8v6.1h-3.7V26.9z"/>
		<path class="st3" d="M455.3,28.8c0,4.4-3.1,6.4-6.3,6.4c-3.5,0-6.2-2.3-6.2-6.1c0-3.9,2.5-6.3,6.4-6.3
			C452.8,22.7,455.3,25.2,455.3,28.8z M446.6,28.9c0,2,0.9,3.6,2.4,3.6c1.4,0,2.4-1.4,2.4-3.6c0-1.8-0.7-3.6-2.4-3.6
			C447.3,25.3,446.6,27.2,446.6,28.9z"/>
		<path class="st3" d="M457.6,26.9c0-1.8,0-2.9-0.1-3.9h3.2l0.1,2.2h0.1c0.6-1.7,2.1-2.5,3.2-2.5c0.3,0,0.5,0,0.8,0v3.5
			c-0.3,0-0.6-0.1-1-0.1c-1.4,0-2.3,0.7-2.5,1.9c0,0.2-0.1,0.5-0.1,0.8v6.1h-3.7V26.9z"/>
		<path class="st3" d="M469.5,30.1c0.1,1.5,1.6,2.3,3.4,2.3c1.3,0,2.3-0.2,3.3-0.5l0.5,2.5c-1.2,0.5-2.7,0.7-4.3,0.7
			c-4,0-6.4-2.3-6.4-6.1c0-3,1.9-6.4,6-6.4c3.9,0,5.3,3,5.3,6c0,0.6-0.1,1.2-0.1,1.5H469.5z M473.9,27.6c0-0.9-0.4-2.4-2.1-2.4
			c-1.6,0-2.2,1.4-2.3,2.4H473.9z"/>
		<path class="st3" d="M479.5,31.7c0.7,0.4,2.1,0.9,3.2,0.9c1.1,0,1.6-0.4,1.6-1s-0.4-0.9-1.8-1.4c-2.5-0.8-3.4-2.2-3.4-3.6
			c0-2.2,1.9-3.9,4.9-3.9c1.4,0,2.6,0.3,3.4,0.7l-0.7,2.6c-0.5-0.3-1.6-0.7-2.6-0.7c-0.9,0-1.4,0.4-1.4,1c0,0.6,0.5,0.9,1.9,1.4
			c2.3,0.8,3.2,1.9,3.2,3.7c0,2.2-1.8,3.9-5.2,3.9c-1.6,0-3-0.3-3.9-0.8L479.5,31.7z"/>
		<path class="st3" d="M489.5,37.7c1.3-2.2,2.5-5.5,2.5-9.9s-1.1-7.6-2.5-9.8h2.6c1.3,1.9,2.8,5.1,2.8,9.8c0,4.8-1.5,8-2.8,9.9
			H489.5z"/>
	</g>
	<line class="st4" x1="35.2" y1="267.7" x2="35.2" y2="450.1"/>
	<line class="st5" x1="182.6" y1="186.7" x2="182.6" y2="450.1"/>
	<line class="st6" x1="254.7" y1="186.7" x2="254.7" y2="450.1"/>
	<line class="st7" x1="328.1" y1="114.9" x2="328.1" y2="450.1"/>
	<line class="st8" x1="110.4" y1="240.3" x2="110.4" y2="450.1"/>
	<g>
		<path class="st2" d="M423.9,359.2c-0.5,0-1.1,0-1.7,0.1c-3.6,0.6-5.5,3.2-5.9,6h0.1c0.8-1.1,2.2-1.9,4.1-1.9c3,0,5.1,2.2,5.1,5.4
			c0,3.1-2.1,5.9-5.6,5.9c-3.6,0-6-2.8-6-7.2c0-3.3,1.2-5.9,2.9-7.6c1.4-1.4,3.3-2.2,5.4-2.5c0.7-0.1,1.2-0.1,1.7-0.1V359.2z
			 M423.2,368.9c0-2.4-1.4-3.9-3.5-3.9c-1.4,0-2.6,0.9-3.3,2.1c-0.2,0.3-0.3,0.6-0.3,1c0.1,2.8,1.3,4.8,3.7,4.8
			C421.9,372.9,423.2,371.3,423.2,368.9z"/>
		<path class="st2" d="M438.5,357.6v1.5l-7.3,15.3h-2.4l7.3-14.9v-0.1h-8.2v-1.9H438.5z"/>
		<path class="st2" d="M452.1,365.8c0,5.7-2.1,8.9-5.9,8.9c-3.3,0-5.5-3.1-5.6-8.7c0-5.7,2.4-8.8,5.9-8.8
			C450,357.3,452.1,360.4,452.1,365.8z M442.9,366.1c0,4.4,1.3,6.9,3.4,6.9c2.3,0,3.4-2.7,3.4-7c0-4.1-1.1-6.9-3.4-6.9
			C444.4,359,442.9,361.5,442.9,366.1z"/>
		<path class="st2" d="M454.3,373.1c0-1,0.6-1.6,1.6-1.6s1.5,0.7,1.5,1.6c0,0.9-0.6,1.6-1.6,1.6C455,374.7,454.3,374,454.3,373.1z"
			/>
		<path class="st2" d="M460.1,371.8c0.6,0.4,2.2,1.1,3.7,1.1c2.9,0,3.8-1.9,3.8-3.3c0-2.4-2.2-3.4-4.4-3.4H462v-1.7h1.3
			c1.7,0,3.8-0.9,3.8-2.9c0-1.3-0.9-2.5-3-2.5c-1.3,0-2.6,0.6-3.4,1.1l-0.6-1.7c0.9-0.6,2.6-1.3,4.4-1.3c3.3,0,4.8,2,4.8,4
			c0,1.7-1,3.2-3.1,4v0.1c2.1,0.4,3.8,2,3.8,4.3c0,2.7-2.1,5.1-6.1,5.1c-1.9,0-3.6-0.6-4.4-1.1L460.1,371.8z"/>
		<path class="st2" d="M472.8,374.4V373l1.8-1.7c4.3-4.1,6.2-6.3,6.3-8.8c0-1.7-0.8-3.3-3.3-3.3c-1.5,0-2.8,0.8-3.6,1.4l-0.7-1.6
			c1.2-1,2.8-1.7,4.8-1.7c3.6,0,5.2,2.5,5.2,4.9c0,3.1-2.3,5.6-5.8,9l-1.3,1.2v0.1h7.6v1.9H472.8z"/>
	</g>
	<g>
		<path class="st9" d="M88.6,476.2h8.3v2.2h-5.7v4h5.3v2.2h-5.3v6.1h-2.6V476.2z"/>
		<path class="st9" d="M101.7,490.6v-6l-4.5-8.4h3l1.7,3.7c0.5,1.1,0.9,1.9,1.2,2.9h0c0.4-0.9,0.8-1.8,1.3-2.9l1.7-3.7h3l-4.8,8.3
			v6.1H101.7z"/>
		<path class="st9" d="M112.4,490.6V489l1.6-1.5c3.3-3,4.8-4.7,4.8-6.5c0-1.2-0.7-2.3-2.5-2.3c-1.2,0-2.3,0.6-3,1.2l-0.8-1.9
			c1-0.8,2.5-1.4,4.3-1.4c3.1,0,4.6,1.9,4.6,4.2c0,2.4-1.8,4.4-4.2,6.6l-1.2,1v0h5.7v2.2H112.4z"/>
		<path class="st9" d="M132.6,483.6c0,4.5-1.8,7.3-5.1,7.3c-3.2,0-4.9-2.9-4.9-7.1c0-4.3,1.8-7.2,5.1-7.2
			C131,476.5,132.6,479.5,132.6,483.6z M125.3,483.7c0,3.4,0.9,5.1,2.4,5.1c1.5,0,2.3-1.9,2.3-5.2c0-3.2-0.8-5.1-2.3-5.1
			C126.2,478.5,125.2,480.2,125.3,483.7z"/>
	</g>
	<g>
		<path class="st9" d="M13.6,476.2h8.3v2.2h-5.7v4h5.3v2.2h-5.3v6.1h-2.6V476.2z"/>
		<path class="st9" d="M26.7,490.6v-6l-4.5-8.4h3l1.7,3.7c0.5,1.1,0.9,1.9,1.2,2.9h0c0.4-0.9,0.8-1.8,1.3-2.9l1.7-3.7h3l-4.8,8.3
			v6.1H26.7z"/>
		<path class="st9" d="M41.6,479.1L41.6,479.1l-2.6,1.3l-0.4-2l3.4-1.7h2.2v13.9h-2.5V479.1z"/>
		<path class="st9" d="M48.9,488.7c0.4,0,0.8,0,1.5,0c1-0.1,2-0.4,2.8-1.1c0.9-0.7,1.5-1.8,1.8-3.1l0,0c-0.7,0.8-1.7,1.2-3,1.2
			c-2.4,0-4.2-1.8-4.2-4.3c0-2.6,2-5,5-5c3.2,0,5,2.5,5,5.9c0,3-1,5.1-2.4,6.4c-1.2,1.1-2.9,1.8-4.7,1.9c-0.6,0.1-1.2,0.1-1.6,0
			V488.7z M50.2,481.3c0,1.4,0.8,2.5,2.3,2.5c1.1,0,1.8-0.5,2.2-1.2c0.1-0.2,0.1-0.4,0.1-0.7c0-1.9-0.7-3.5-2.4-3.5
			C51.2,478.5,50.2,479.6,50.2,481.3z"/>
		<path class="st9" d="M162,476.2h8.3v2.2h-5.7v4h5.3v2.2h-5.3v6.1H162V476.2z"/>
		<path class="st9" d="M175.1,490.6v-6l-4.5-8.4h3l1.7,3.7c0.5,1.1,0.9,1.9,1.2,2.9h0c0.4-0.9,0.8-1.8,1.3-2.9l1.7-3.7h3l-4.8,8.3
			v6.1H175.1z"/>
		<path class="st9" d="M185.8,490.6V489l1.6-1.5c3.3-3,4.8-4.7,4.8-6.5c0-1.2-0.7-2.3-2.5-2.3c-1.2,0-2.3,0.6-3,1.2l-0.8-1.9
			c1-0.8,2.5-1.4,4.3-1.4c3.1,0,4.6,1.9,4.6,4.2c0,2.4-1.8,4.4-4.2,6.6l-1.2,1v0h5.7v2.2H185.8z"/>
		<path class="st9" d="M200.4,479.1L200.4,479.1l-2.6,1.3l-0.4-2l3.4-1.7h2.2v13.9h-2.5V479.1z"/>
		<path class="st9" d="M235.5,476.2h8.3v2.2h-5.7v4h5.3v2.2h-5.3v6.1h-2.6V476.2z"/>
		<path class="st9" d="M248.6,490.6v-6l-4.5-8.4h3l1.7,3.7c0.5,1.1,0.9,1.9,1.2,2.9h0c0.4-0.9,0.8-1.8,1.3-2.9l1.7-3.7h3l-4.8,8.3
			v6.1H248.6z"/>
		<path class="st9" d="M259.3,490.6V489l1.6-1.5c3.3-3,4.8-4.7,4.8-6.5c0-1.2-0.7-2.3-2.5-2.3c-1.2,0-2.3,0.6-3,1.2l-0.8-1.9
			c1-0.8,2.5-1.4,4.3-1.4c3.1,0,4.6,1.9,4.6,4.2c0,2.4-1.8,4.4-4.2,6.6l-1.2,1v0h5.7v2.2H259.3z"/>
		<path class="st9" d="M269.7,490.6V489l1.6-1.5c3.3-3,4.8-4.7,4.8-6.5c0-1.2-0.7-2.3-2.5-2.3c-1.2,0-2.3,0.6-3,1.2l-0.8-1.9
			c1-0.8,2.5-1.4,4.3-1.4c3.1,0,4.6,1.9,4.6,4.2c0,2.4-1.8,4.4-4.2,6.6l-1.2,1v0h5.7v2.2H269.7z"/>
		<path class="st9" d="M309,476.2h8.3v2.2h-5.7v4h5.3v2.2h-5.3v6.1H309V476.2z"/>
		<path class="st9" d="M322.1,490.6v-6l-4.5-8.4h3l1.7,3.7c0.5,1.1,0.9,1.9,1.2,2.9h0c0.4-0.9,0.8-1.8,1.3-2.9l1.7-3.7h3l-4.8,8.3
			v6.1H322.1z"/>
		<path class="st9" d="M332.8,490.6V489l1.6-1.5c3.3-3,4.8-4.7,4.8-6.5c0-1.2-0.7-2.3-2.5-2.3c-1.2,0-2.3,0.6-3,1.2l-0.8-1.9
			c1-0.8,2.5-1.4,4.3-1.4c3.1,0,4.6,1.9,4.6,4.2c0,2.4-1.8,4.4-4.2,6.6l-1.2,1v0h5.7v2.2H332.8z"/>
		<path class="st9" d="M343.7,487.9c0.5,0.3,1.8,0.9,3.2,0.9c2,0,2.8-1.1,2.8-2.2c0-1.6-1.5-2.3-3.1-2.3h-1.2v-1.9h1.2
			c1.2,0,2.8-0.6,2.8-1.9c0-0.9-0.7-1.7-2.2-1.7c-1.1,0-2.3,0.5-2.8,0.9l-0.6-1.9c0.8-0.6,2.3-1.1,4-1.1c2.9,0,4.3,1.6,4.3,3.4
			c0,1.5-0.9,2.6-2.6,3.2v0c1.7,0.3,3.1,1.6,3.1,3.5c0,2.3-2,4.2-5.4,4.2c-1.7,0-3.1-0.5-3.9-1L343.7,487.9z"/>
	</g>
	<g>
		<path class="st2" d="M415.8,240.5c0.5,0.1,1.1,0,1.8-0.1c1.3-0.2,2.6-0.7,3.5-1.6c1.1-1,1.9-2.5,2.2-4.5h-0.1
			c-0.9,1.1-2.3,1.8-4,1.8c-3,0-5-2.3-5-5.2c0-3.2,2.3-6,5.8-6s5.6,2.8,5.6,7.1c0,3.7-1.2,6.3-2.9,7.9c-1.3,1.3-3.1,2-4.9,2.3
			c-0.8,0.1-1.6,0.2-2.1,0.1V240.5z M416.6,230.8c0,2.1,1.3,3.6,3.2,3.6c1.5,0,2.7-0.8,3.3-1.8c0.1-0.2,0.2-0.5,0.2-0.8
			c0-2.9-1.1-5.1-3.4-5.1C418,226.7,416.6,228.4,416.6,230.8z"/>
		<path class="st2" d="M437.8,227.2h-6.4l-0.6,4.3c0.4-0.1,0.8-0.1,1.4-0.1c1.3,0,2.6,0.3,3.6,0.9c1.3,0.8,2.4,2.2,2.4,4.3
			c0,3.3-2.6,5.8-6.3,5.8c-1.8,0-3.4-0.5-4.2-1l0.6-1.7c0.7,0.4,2.1,0.9,3.6,0.9c2.2,0,4-1.4,4-3.7c0-2.2-1.5-3.7-4.8-3.7
			c-1,0-1.7,0.1-2.3,0.2l1.1-8.1h8.1V227.2z"/>
		<path class="st2" d="M441.6,239.5c0.6,0.4,2.2,1.1,3.7,1.1c2.9,0,3.8-1.9,3.8-3.3c0-2.4-2.2-3.4-4.4-3.4h-1.3v-1.7h1.3
			c1.7,0,3.8-0.9,3.8-2.9c0-1.3-0.9-2.5-3-2.5c-1.3,0-2.6,0.6-3.4,1.1l-0.6-1.7c0.9-0.6,2.6-1.3,4.4-1.3c3.3,0,4.8,2,4.8,4
			c0,1.7-1,3.2-3.1,4v0.1c2.1,0.4,3.8,2,3.8,4.3c0,2.7-2.1,5.1-6.1,5.1c-1.9,0-3.6-0.6-4.4-1.1L441.6,239.5z"/>
		<path class="st2" d="M454.5,240.8c0-1,0.6-1.6,1.6-1.6s1.5,0.7,1.5,1.6c0,0.9-0.6,1.6-1.6,1.6
			C455.2,242.4,454.5,241.7,454.5,240.8z"/>
		<path class="st2" d="M464.7,227.4L464.7,227.4l-3,1.6l-0.4-1.7l3.7-2h1.9v16.9h-2.2V227.4z"/>
		<path class="st2" d="M483.1,227.2h-6.4l-0.6,4.3c0.4-0.1,0.8-0.1,1.4-0.1c1.3,0,2.6,0.3,3.6,0.9c1.3,0.8,2.4,2.2,2.4,4.3
			c0,3.3-2.6,5.8-6.3,5.8c-1.8,0-3.4-0.5-4.2-1l0.6-1.7c0.7,0.4,2.1,0.9,3.6,0.9c2.2,0,4-1.4,4-3.7c0-2.2-1.5-3.7-4.8-3.7
			c-1,0-1.7,0.1-2.3,0.2l1.1-8.1h8.1V227.2z"/>
	</g>
	<g>
		<path class="st2" d="M415.6,284.6c0.5,0.1,1.1,0,1.8-0.1c1.3-0.2,2.6-0.7,3.5-1.6c1.1-1,1.9-2.5,2.2-4.5h-0.1
			c-0.9,1.1-2.3,1.8-4,1.8c-3,0-5-2.3-5-5.2c0-3.2,2.3-6,5.8-6s5.6,2.8,5.6,7.1c0,3.7-1.2,6.3-2.9,7.9c-1.3,1.3-3.1,2-4.9,2.3
			c-0.8,0.1-1.6,0.2-2.1,0.1V284.6z M416.4,274.9c0,2.1,1.3,3.6,3.2,3.6c1.5,0,2.7-0.8,3.3-1.8c0.1-0.2,0.2-0.5,0.2-0.8
			c0-2.9-1.1-5.1-3.4-5.1C417.8,270.8,416.4,272.5,416.4,274.9z"/>
		<path class="st2" d="M437.6,271.3h-6.4l-0.6,4.3c0.4-0.1,0.8-0.1,1.4-0.1c1.3,0,2.6,0.3,3.6,0.9c1.3,0.8,2.4,2.2,2.4,4.3
			c0,3.3-2.6,5.8-6.3,5.8c-1.8,0-3.4-0.5-4.2-1l0.6-1.7c0.7,0.4,2.1,0.9,3.6,0.9c2.2,0,4-1.4,4-3.7c0-2.2-1.5-3.7-4.8-3.7
			c-1,0-1.7,0.1-2.3,0.2l1.1-8.1h8.1V271.3z"/>
		<path class="st2" d="M441.4,283.6c0.6,0.4,2.2,1.1,3.7,1.1c2.9,0,3.8-1.9,3.8-3.3c0-2.4-2.2-3.4-4.4-3.4h-1.3v-1.7h1.3
			c1.7,0,3.8-0.9,3.8-2.9c0-1.3-0.9-2.5-3-2.5c-1.3,0-2.6,0.6-3.4,1.1l-0.6-1.7c0.9-0.6,2.6-1.3,4.4-1.3c3.3,0,4.8,2,4.8,4
			c0,1.7-1,3.2-3.1,4v0.1c2.1,0.4,3.8,2,3.8,4.3c0,2.7-2.1,5.1-6.1,5.1c-1.9,0-3.6-0.6-4.4-1.1L441.4,283.6z"/>
		<path class="st2" d="M454.3,284.9c0-1,0.6-1.6,1.6-1.6s1.5,0.7,1.5,1.6c0,0.9-0.6,1.6-1.6,1.6C455,286.5,454.3,285.8,454.3,284.9z
			"/>
		<path class="st2" d="M470.7,277.6c0,5.7-2.1,8.9-5.9,8.9c-3.3,0-5.5-3.1-5.6-8.7c0-5.7,2.4-8.8,5.9-8.8
			C468.7,269.1,470.7,272.3,470.7,277.6z M461.6,277.9c0,4.4,1.3,6.9,3.4,6.9c2.3,0,3.4-2.7,3.4-7c0-4.1-1.1-6.9-3.4-6.9
			C463,270.9,461.6,273.3,461.6,277.9z"/>
		<path class="st2" d="M477.8,271.5L477.8,271.5l-3,1.6l-0.4-1.7l3.7-2h1.9v16.9h-2.2V271.5z"/>
	</g>
	<g>
		<path class="st2" d="M425.2,313.5v1.5l-7.3,15.3h-2.4l7.3-14.9v-0.1h-8.2v-1.9H425.2z"/>
		<path class="st2" d="M437.2,315.1c-0.5,0-1.1,0-1.7,0.1c-3.6,0.6-5.5,3.2-5.9,6h0.1c0.8-1.1,2.2-1.9,4.1-1.9c3,0,5.1,2.2,5.1,5.4
			c0,3.1-2.1,5.9-5.6,5.9c-3.6,0-6-2.8-6-7.2c0-3.3,1.2-5.9,2.9-7.6c1.4-1.4,3.3-2.2,5.4-2.5c0.7-0.1,1.2-0.1,1.7-0.1V315.1z
			 M436.5,324.8c0-2.4-1.4-3.9-3.5-3.9c-1.4,0-2.6,0.9-3.3,2.1c-0.2,0.3-0.3,0.6-0.3,1c0.1,2.8,1.3,4.8,3.7,4.8
			C435.2,328.9,436.5,327.2,436.5,324.8z"/>
		<path class="st2" d="M450.5,315.1c-0.5,0-1.1,0-1.7,0.1c-3.6,0.6-5.5,3.2-5.9,6h0.1c0.8-1.1,2.2-1.9,4.1-1.9c3,0,5.1,2.2,5.1,5.4
			c0,3.1-2.1,5.9-5.6,5.9c-3.6,0-6-2.8-6-7.2c0-3.3,1.2-5.9,2.9-7.6c1.4-1.4,3.3-2.2,5.4-2.5c0.7-0.1,1.2-0.1,1.7-0.1V315.1z
			 M449.8,324.8c0-2.4-1.4-3.9-3.5-3.9c-1.4,0-2.6,0.9-3.3,2.1c-0.2,0.3-0.3,0.6-0.3,1c0.1,2.8,1.3,4.8,3.7,4.8
			C448.5,328.9,449.8,327.2,449.8,324.8z"/>
		<path class="st2" d="M454.3,329c0-1,0.6-1.6,1.6-1.6s1.5,0.7,1.5,1.6c0,0.9-0.6,1.6-1.6,1.6C455,330.6,454.3,329.9,454.3,329z"/>
		<path class="st2" d="M469.1,315.1c-0.5,0-1.1,0-1.7,0.1c-3.6,0.6-5.5,3.2-5.9,6h0.1c0.8-1.1,2.2-1.9,4.1-1.9c3,0,5.1,2.2,5.1,5.4
			c0,3.1-2.1,5.9-5.6,5.9c-3.6,0-6-2.8-6-7.2c0-3.3,1.2-5.9,2.9-7.6c1.4-1.4,3.3-2.2,5.4-2.5c0.7-0.1,1.2-0.1,1.7-0.1V315.1z
			 M468.5,324.8c0-2.4-1.4-3.9-3.5-3.9c-1.4,0-2.6,0.9-3.3,2.1c-0.2,0.3-0.3,0.6-0.3,1c0.1,2.8,1.3,4.8,3.7,4.8
			C467.2,328.9,468.5,327.2,468.5,324.8z"/>
		<path class="st2" d="M484,321.7c0,5.7-2.1,8.9-5.9,8.9c-3.3,0-5.5-3.1-5.6-8.7c0-5.7,2.4-8.8,5.9-8.8
			C482,313.2,484,316.4,484,321.7z M474.9,322c0,4.4,1.3,6.9,3.4,6.9c2.3,0,3.4-2.7,3.4-7c0-4.1-1.1-6.9-3.4-6.9
			C476.3,315,474.9,317.4,474.9,322z"/>
	</g>
	<g>
		<path class="st2" d="M400.4,183.3L400.4,183.3l-3,1.6l-0.4-1.7l3.7-2h1.9V198h-2.2V183.3z"/>
		<path class="st2" d="M408,201.2c0.6-1.5,1.3-4.3,1.6-6.2l2.5-0.3c-0.6,2.2-1.7,5.1-2.5,6.3L408,201.2z"/>
		<path class="st2" d="M414.1,198v-1.4l1.8-1.7c4.3-4.1,6.2-6.3,6.3-8.8c0-1.7-0.8-3.3-3.3-3.3c-1.5,0-2.8,0.8-3.6,1.4l-0.7-1.6
			c1.2-1,2.8-1.7,4.8-1.7c3.6,0,5.2,2.5,5.2,4.9c0,3.1-2.3,5.6-5.8,9l-1.3,1.2v0.1h7.6v1.9H414.1z"/>
		<path class="st2" d="M438.6,189.4c0,5.7-2.1,8.9-5.9,8.9c-3.3,0-5.5-3.1-5.6-8.7c0-5.7,2.4-8.8,5.9-8.8
			C436.6,180.9,438.6,184.1,438.6,189.4z M429.5,189.7c0,4.4,1.3,6.9,3.4,6.9c2.3,0,3.4-2.7,3.4-7c0-4.1-1.1-6.9-3.4-6.9
			C430.9,182.7,429.5,185.1,429.5,189.7z"/>
		<path class="st2" d="M451.9,189.4c0,5.7-2.1,8.9-5.9,8.9c-3.3,0-5.5-3.1-5.6-8.7c0-5.7,2.4-8.8,5.9-8.8
			C449.9,180.9,451.9,184.1,451.9,189.4z M442.8,189.7c0,4.4,1.3,6.9,3.4,6.9c2.3,0,3.4-2.7,3.4-7c0-4.1-1.1-6.9-3.4-6.9
			C444.2,182.7,442.8,185.1,442.8,189.7z"/>
		<path class="st2" d="M454.2,196.7c0-1,0.6-1.6,1.6-1.6s1.5,0.7,1.5,1.6c0,0.9-0.6,1.6-1.6,1.6
			C454.8,198.3,454.2,197.6,454.2,196.7z"/>
		<path class="st2" d="M460.7,196.4c0.5,0.1,1.1,0,1.8-0.1c1.3-0.2,2.6-0.7,3.5-1.6c1.1-1,1.9-2.5,2.2-4.5h-0.1
			c-0.9,1.1-2.3,1.8-4,1.8c-3,0-5-2.3-5-5.2c0-3.2,2.3-6,5.8-6s5.6,2.8,5.6,7.1c0,3.7-1.2,6.3-2.9,7.9c-1.3,1.3-3.1,2-4.9,2.3
			c-0.8,0.1-1.6,0.2-2.1,0.1V196.4z M461.6,186.7c0,2.1,1.3,3.6,3.2,3.6c1.5,0,2.7-0.8,3.3-1.8c0.1-0.2,0.2-0.5,0.2-0.8
			c0-2.9-1.1-5.1-3.4-5.1C462.9,182.6,461.6,184.4,461.6,186.7z"/>
		<path class="st2" d="M482.8,183.1h-6.4l-0.6,4.3c0.4-0.1,0.8-0.1,1.4-0.1c1.3,0,2.6,0.3,3.6,0.9c1.3,0.8,2.4,2.2,2.4,4.3
			c0,3.3-2.6,5.8-6.3,5.8c-1.8,0-3.4-0.5-4.2-1l0.6-1.7c0.7,0.4,2.1,0.9,3.6,0.9c2.2,0,4-1.4,4-3.7c0-2.2-1.5-3.7-4.8-3.7
			c-1,0-1.7,0.1-2.3,0.2l1.1-8.1h8.1V183.1z"/>
	</g>
	<line class="st10" x1="363.4" y1="189.1" x2="382.4" y2="189.1"/>
	<line class="st11" x1="363.4" y1="232.1" x2="382.4" y2="232.1"/>
	<line class="st12" x1="363.4" y1="275.1" x2="382.4" y2="275.1"/>
	<line class="st13" x1="363.4" y1="321.7" x2="382.4" y2="321.7"/>
	<line class="st14" x1="363.4" y1="365.3" x2="382.4" y2="365.3"/>
</g>
</svg>
