<?xml version="1.0" encoding="utf-8"?>
<!-- Generator: Adobe Illustrator 27.7.0, SVG Export Plug-In . SVG Version: 6.00 Build 0)  -->
<svg version="1.1" id="Layer_1" xmlns="http://www.w3.org/2000/svg" xmlns:xlink="http://www.w3.org/1999/xlink" x="0px" y="0px"
	 viewBox="0 0 500 500" style="enable-background:new 0 0 500 500;" xml:space="preserve">
<style type="text/css">
	.st0{fill:#939598;}
	.st1{fill:none;stroke:#939598;stroke-width:2;}
	.st2{fill:none;stroke:url(#SVGID_1_);stroke-width:3;stroke-miterlimit:10;}
	.st3{fill:#4D4E4F;}
	.st4{fill:none;stroke:#DCDDDE;stroke-width:8;stroke-linecap:round;stroke-linejoin:round;}
	.st5{fill:none;stroke:#A8AAAC;stroke-width:8;stroke-linecap:round;stroke-linejoin:round;}
	.st6{fill:none;stroke:#939598;stroke-width:8;stroke-linecap:round;stroke-linejoin:round;}
	.st7{fill:none;stroke:#005595;stroke-width:10;stroke-linecap:round;stroke-linejoin:round;}
	.st8{fill:none;stroke:#C7C8CA;stroke-width:8;stroke-linecap:round;stroke-linejoin:round;}
	.st9{fill:#6E6F71;}
	.st10{fill:none;stroke:#005595;stroke-width:5;stroke-linecap:round;stroke-linejoin:round;}
	.st11{fill:none;stroke:#939598;stroke-width:5;stroke-linecap:round;stroke-linejoin:round;}
	.st12{fill:none;stroke:#A8AAAC;stroke-width:5;stroke-linecap:round;stroke-linejoin:round;}
	.st13{fill:none;stroke:#C7C8CA;stroke-width:5;stroke-linecap:round;stroke-linejoin:round;}
	.st14{fill:none;stroke:#DCDDDE;stroke-width:5;stroke-linecap:round;stroke-linejoin:round;}
</style>
<g>
	<g>
		<path class="st0" d="M376.7,18.3c-1.4,2.2-2.5,5.5-2.5,9.9c0,4.3,1.1,7.5,2.5,9.8h-2.6c-1.3-1.9-2.8-5.1-2.8-9.8
			c0-4.7,1.5-7.9,2.8-9.8H376.7z"/>
	</g>
	<g>
		<path class="st0" d="M379.2,18.2h9.7v0c-0.6,1-0.9,1.5-1,1.6h-2.6c0.4,0.5,0.6,1.1,0.7,1.7h2.8c0,0,0,0,0,0c-0.6,1-0.9,1.6-1,1.6
			h-1.8c0,0.5-0.3,1.2-0.7,2c-0.6,0.8-1.1,1.3-1.6,1.5c-0.9,0.5-1.8,0.8-2.7,0.8v0c0,0.1,0.2,0.4,0.6,0.9l4.8,6.6v0.3c0,0,0,0,0,0
			h-2.1c-3.8-5-5.7-7.5-5.7-7.5v-1.5l0-0.1c0.3,0.1,0.7,0.1,1.2,0.1c2.1,0,3.4-0.8,4-2.3c0.1-0.2,0.1-0.5,0.1-0.7h-5.8
			c0,0,0,0,0-0.1c0.6-1,1-1.6,1-1.6h4.6v0c-0.3-0.6-0.8-1.1-1.5-1.4c-0.5-0.2-1-0.3-1.5-0.3h-2.6v-0.1
			C378.9,18.7,379.2,18.2,379.2,18.2z"/>
	</g>
	<g>
		<path class="st0" d="M401.1,19.9c0,1-0.8,1.9-2,1.9c-1.2,0-2-0.8-1.9-1.9c0-1.1,0.8-1.9,2-1.9C400.3,18.1,401,18.9,401.1,19.9z
			 M397.2,35.2V23.3h3.7v11.9H397.2z"/>
		<path class="st0" d="M403.9,27.1c0-1.5,0-2.8-0.1-3.8h3.2l0.2,1.6h0.1c0.5-0.8,1.7-1.9,3.7-1.9c2.4,0,4.3,1.6,4.3,5.1v7.1h-3.7
			v-6.6c0-1.5-0.5-2.6-1.9-2.6c-1,0-1.6,0.7-1.9,1.4c-0.1,0.2-0.1,0.6-0.1,0.9v6.9h-3.7V27.1z"/>
		<path class="st0" d="M432.1,34.9c-0.7,0.3-1.9,0.5-3.3,0.5c-3.8,0-6.3-2.3-6.3-6.1c0-3.5,2.4-6.3,6.8-6.3c1,0,2,0.2,2.8,0.5
			l-0.6,2.8c-0.4-0.2-1.1-0.4-2.1-0.4c-1.9,0-3.2,1.4-3.2,3.3c0,2.2,1.5,3.3,3.3,3.3c0.9,0,1.6-0.1,2.1-0.4L432.1,34.9z"/>
		<path class="st0" d="M434.1,27.2c0-1.8,0-2.9-0.1-3.9h3.2l0.1,2.2h0.1c0.6-1.7,2.1-2.5,3.2-2.5c0.3,0,0.5,0,0.8,0v3.5
			c-0.3,0-0.6-0.1-1-0.1c-1.4,0-2.3,0.7-2.5,1.9c0,0.2-0.1,0.5-0.1,0.8v6h-3.7V27.2z"/>
		<path class="st0" d="M455,29.1c0,4.4-3.1,6.4-6.3,6.4c-3.5,0-6.2-2.3-6.2-6.1c0-3.9,2.5-6.3,6.4-6.3C452.5,23,455,25.5,455,29.1z
			 M446.3,29.2c0,2,0.9,3.6,2.4,3.6c1.4,0,2.4-1.4,2.4-3.6c0-1.8-0.7-3.6-2.4-3.6C447,25.6,446.3,27.5,446.3,29.2z"/>
		<path class="st0" d="M457.3,27.2c0-1.8,0-2.9-0.1-3.9h3.2l0.1,2.2h0.1c0.6-1.7,2.1-2.5,3.2-2.5c0.3,0,0.5,0,0.8,0v3.5
			c-0.3,0-0.6-0.1-1-0.1c-1.4,0-2.3,0.7-2.5,1.9c0,0.2-0.1,0.5-0.1,0.8v6h-3.7V27.2z"/>
		<path class="st0" d="M469.2,30.4c0.1,1.5,1.6,2.3,3.4,2.3c1.3,0,2.3-0.2,3.3-0.5l0.5,2.5c-1.2,0.5-2.7,0.7-4.3,0.7
			c-4,0-6.4-2.3-6.4-6.1c0-3,1.9-6.4,6-6.4c3.8,0,5.3,3,5.3,5.9c0,0.6-0.1,1.2-0.1,1.5H469.2z M473.6,27.9c0-0.9-0.4-2.4-2.1-2.4
			c-1.6,0-2.2,1.4-2.3,2.4H473.6z"/>
		<path class="st0" d="M479.2,31.9c0.7,0.4,2.1,0.9,3.2,0.9c1.1,0,1.6-0.4,1.6-1c0-0.6-0.4-0.9-1.8-1.4c-2.5-0.8-3.4-2.2-3.4-3.6
			c0-2.2,1.9-3.9,4.8-3.9c1.4,0,2.6,0.3,3.4,0.7l-0.7,2.6c-0.5-0.3-1.6-0.7-2.6-0.7c-0.9,0-1.4,0.4-1.4,1c0,0.6,0.5,0.9,1.9,1.4
			c2.3,0.8,3.2,1.9,3.2,3.7c0,2.2-1.8,3.9-5.2,3.9c-1.6,0-2.9-0.3-3.9-0.8L479.2,31.9z"/>
		<path class="st0" d="M489.2,38c1.3-2.2,2.5-5.5,2.5-9.8s-1.1-7.6-2.5-9.8h2.6c1.3,1.9,2.8,5.1,2.8,9.8c0,4.8-1.5,7.9-2.8,9.8
			H489.2z"/>
	</g>
	<line class="st1" x1="4" y1="5.5" x2="495.9" y2="5.5"/>
	<linearGradient id="SVGID_1_" gradientUnits="userSpaceOnUse" x1="4.0403" y1="47.3292" x2="495.9237" y2="47.3292">
		<stop  offset="0" style="stop-color:#E55B32"/>
		<stop  offset="0.2185" style="stop-color:#DA512E"/>
		<stop  offset="1" style="stop-color:#BD3726"/>
	</linearGradient>
	<polyline class="st2" points="4,47.3 495.9,47.3 495.9,47.3 4,47.3 	"/>
	<g>
		<path class="st3" d="M5.8,16.9c1.3-0.2,3.1-0.4,5.6-0.4c2.6,0,4.4,0.5,5.6,1.5c1.2,0.9,2,2.5,2,4.3c0,1.8-0.6,3.3-1.7,4.4
			c-1.4,1.3-3.5,1.9-6,1.9c-0.5,0-1,0-1.4-0.1v6.6H5.8V16.9z M10,25.3c0.4,0.1,0.8,0.1,1.4,0.1c2.2,0,3.6-1.1,3.6-3
			c0-1.7-1.2-2.7-3.3-2.7c-0.9,0-1.4,0.1-1.7,0.2V25.3z"/>
		<path class="st3" d="M24.5,30.4l-1.3,4.7h-4.3l5.6-18.5h5.5l5.7,18.5h-4.5l-1.4-4.7H24.5z M29.2,27.3L28,23.4
			c-0.3-1.1-0.7-2.5-0.9-3.6H27c-0.3,1.1-0.5,2.5-0.8,3.6l-1.1,3.9H29.2z"/>
		<path class="st3" d="M39.5,20.2h-5v-3.5h14.2v3.5h-5v15h-4.2V20.2z"/>
	</g>
	<line class="st4" x1="32.5" y1="426.9" x2="32.5" y2="449.7"/>
	<line class="st5" x1="179.6" y1="291.8" x2="179.6" y2="449.7"/>
	<line class="st6" x1="251.7" y1="326.7" x2="251.7" y2="449.7"/>
	<line class="st7" x1="325" y1="115.1" x2="325" y2="449.7"/>
	<line class="st8" x1="107.6" y1="428.2" x2="107.6" y2="449.7"/>
	<g>
		<path class="st3" d="M417,359.5L417,359.5l-3,1.6l-0.4-1.7l3.7-2h1.9v16.8H417V359.5z"/>
		<path class="st3" d="M435,359c-0.5,0-1.1,0-1.7,0.1c-3.6,0.6-5.5,3.2-5.9,6h0.1c0.8-1.1,2.2-1.9,4.1-1.9c3,0,5.1,2.1,5.1,5.4
			c0,3.1-2.1,5.9-5.6,5.9c-3.6,0-6-2.8-6-7.2c0-3.3,1.2-5.9,2.8-7.6c1.4-1.4,3.3-2.2,5.4-2.5c0.7-0.1,1.2-0.1,1.7-0.1V359z
			 M434.3,368.7c0-2.4-1.4-3.9-3.5-3.9c-1.4,0-2.6,0.9-3.3,2.1c-0.2,0.3-0.3,0.6-0.3,1c0.1,2.8,1.3,4.8,3.7,4.8
			C433,372.7,434.3,371.1,434.3,368.7z"/>
		<path class="st3" d="M438.8,372.9c0-1,0.6-1.6,1.6-1.6s1.5,0.7,1.5,1.6c0,0.9-0.6,1.6-1.6,1.6
			C439.4,374.5,438.8,373.8,438.8,372.9z"/>
		<path class="st3" d="M448.9,359.5L448.9,359.5l-3,1.6l-0.4-1.7l3.7-2h1.9v16.8h-2.2V359.5z"/>
		<path class="st3" d="M464.3,374.2v-4.6h-7.8v-1.5l7.5-10.7h2.5v10.5h2.4v1.8h-2.4v4.6H464.3z M464.3,367.8v-5.6
			c0-0.9,0-1.8,0.1-2.6h-0.1c-0.5,1-0.9,1.7-1.4,2.5l-4.1,5.7v0.1H464.3z"/>
	</g>
	<g>
		<path class="st9" d="M85.8,475.9h8.3v2.2h-5.7v4h5.3v2.2h-5.3v6.1h-2.6V475.9z"/>
		<path class="st9" d="M98.8,490.2v-6l-4.5-8.4h3l1.7,3.7c0.5,1.1,0.9,1.9,1.2,2.9h0c0.4-0.9,0.8-1.8,1.3-2.9l1.7-3.7h3l-4.8,8.3
			v6.1H98.8z"/>
		<path class="st9" d="M109.6,490.2v-1.6l1.6-1.5c3.3-3,4.8-4.7,4.8-6.5c0-1.2-0.7-2.3-2.5-2.3c-1.2,0-2.3,0.6-3,1.2l-0.8-1.9
			c1-0.8,2.5-1.4,4.3-1.4c3.1,0,4.6,1.9,4.6,4.2c0,2.4-1.7,4.4-4.2,6.6l-1.2,1v0h5.7v2.2H109.6z"/>
		<path class="st9" d="M129.7,483.2c0,4.5-1.7,7.2-5.1,7.2c-3.2,0-4.9-2.9-4.9-7.1c0-4.3,1.8-7.2,5.1-7.2
			C128.1,476.2,129.7,479.1,129.7,483.2z M122.4,483.4c0,3.4,0.9,5.1,2.4,5.1c1.5,0,2.3-1.9,2.3-5.2c0-3.2-0.8-5.1-2.3-5.1
			C123.3,478.2,122.3,479.9,122.4,483.4z"/>
	</g>
	<g>
		<path class="st9" d="M10.9,475.9h8.3v2.2h-5.7v4h5.3v2.2h-5.3v6.1h-2.6V475.9z"/>
		<path class="st9" d="M24,490.2v-6l-4.5-8.4h3l1.7,3.7c0.5,1.1,0.9,1.9,1.2,2.9h0c0.4-0.9,0.8-1.8,1.3-2.9l1.7-3.7h3l-4.8,8.3v6.1
			H24z"/>
		<path class="st9" d="M38.8,478.8L38.8,478.8l-2.6,1.3l-0.4-2l3.4-1.7h2.2v13.9h-2.5V478.8z"/>
		<path class="st9" d="M46.2,488.4c0.4,0,0.8,0,1.4,0c1-0.1,2-0.4,2.8-1.1c0.9-0.7,1.5-1.8,1.8-3.1l0,0c-0.7,0.8-1.7,1.2-3,1.2
			c-2.4,0-4.2-1.7-4.2-4.3c0-2.6,2-4.9,5-4.9c3.2,0,4.9,2.5,4.9,5.9c0,3-1,5.1-2.4,6.4c-1.2,1.1-2.9,1.8-4.7,1.9
			c-0.6,0.1-1.2,0.1-1.6,0V488.4z M47.5,481c0,1.4,0.8,2.5,2.3,2.5c1.1,0,1.8-0.5,2.2-1.2c0.1-0.2,0.1-0.4,0.1-0.7
			c0-1.9-0.7-3.5-2.4-3.5C48.5,478.1,47.5,479.3,47.5,481z"/>
		<path class="st9" d="M159.2,475.9h8.3v2.2h-5.7v4h5.3v2.2h-5.3v6.1h-2.6V475.9z"/>
		<path class="st9" d="M172.2,490.2v-6l-4.5-8.4h3l1.7,3.7c0.5,1.1,0.9,1.9,1.2,2.9h0c0.4-0.9,0.8-1.8,1.3-2.9l1.7-3.7h3l-4.8,8.3
			v6.1H172.2z"/>
		<path class="st9" d="M182.9,490.2v-1.6l1.6-1.5c3.3-3,4.8-4.7,4.8-6.5c0-1.2-0.7-2.3-2.5-2.3c-1.2,0-2.3,0.6-3,1.2l-0.8-1.9
			c1-0.8,2.5-1.4,4.3-1.4c3.1,0,4.6,1.9,4.6,4.2c0,2.4-1.7,4.4-4.2,6.6l-1.2,1v0h5.7v2.2H182.9z"/>
		<path class="st9" d="M197.4,478.8L197.4,478.8l-2.6,1.3l-0.4-2l3.4-1.7h2.2v13.9h-2.5V478.8z"/>
		<path class="st9" d="M232.5,475.9h8.3v2.2h-5.7v4h5.3v2.2h-5.3v6.1h-2.6V475.9z"/>
		<path class="st9" d="M245.6,490.2v-6l-4.5-8.4h3l1.7,3.7c0.5,1.1,0.9,1.9,1.2,2.9h0c0.4-0.9,0.8-1.8,1.3-2.9l1.7-3.7h3l-4.8,8.3
			v6.1H245.6z"/>
		<path class="st9" d="M256.3,490.2v-1.6l1.6-1.5c3.3-3,4.8-4.7,4.8-6.5c0-1.2-0.7-2.3-2.5-2.3c-1.2,0-2.3,0.6-3,1.2l-0.8-1.9
			c1-0.8,2.5-1.4,4.3-1.4c3.1,0,4.6,1.9,4.6,4.2c0,2.4-1.7,4.4-4.2,6.6l-1.2,1v0h5.7v2.2H256.3z"/>
		<path class="st9" d="M266.7,490.2v-1.6l1.6-1.5c3.3-3,4.8-4.7,4.8-6.5c0-1.2-0.7-2.3-2.5-2.3c-1.2,0-2.3,0.6-3,1.2l-0.8-1.9
			c1-0.8,2.5-1.4,4.3-1.4c3.1,0,4.6,1.9,4.6,4.2c0,2.4-1.7,4.4-4.2,6.6l-1.2,1v0h5.7v2.2H266.7z"/>
		<path class="st9" d="M305.9,475.9h8.3v2.2h-5.7v4h5.3v2.2h-5.3v6.1h-2.6V475.9z"/>
		<path class="st9" d="M318.9,490.2v-6l-4.5-8.4h3l1.7,3.7c0.5,1.1,0.9,1.9,1.2,2.9h0c0.4-0.9,0.8-1.8,1.3-2.9l1.7-3.7h3l-4.8,8.3
			v6.1H318.9z"/>
		<path class="st9" d="M329.6,490.2v-1.6l1.6-1.5c3.3-3,4.8-4.7,4.8-6.5c0-1.2-0.7-2.3-2.5-2.3c-1.2,0-2.3,0.6-3,1.2l-0.8-1.9
			c1-0.8,2.5-1.4,4.3-1.4c3.1,0,4.6,1.9,4.6,4.2c0,2.4-1.7,4.4-4.2,6.6l-1.2,1v0h5.7v2.2H329.6z"/>
		<path class="st9" d="M340.6,487.5c0.5,0.3,1.8,0.9,3.2,0.9c2,0,2.8-1.1,2.8-2.2c0-1.6-1.5-2.3-3.1-2.3h-1.2v-1.9h1.2
			c1.2,0,2.8-0.6,2.8-1.9c0-0.9-0.7-1.7-2.2-1.7c-1.1,0-2.3,0.5-2.8,0.9l-0.6-1.9c0.8-0.6,2.3-1.1,4-1.1c2.9,0,4.3,1.6,4.3,3.4
			c0,1.5-0.9,2.6-2.6,3.2v0c1.7,0.3,3,1.6,3,3.5c0,2.3-2,4.2-5.4,4.2c-1.7,0-3.1-0.5-3.9-1L340.6,487.5z"/>
	</g>
	<g>
		<path class="st3" d="M421.9,226.9c-0.5,0-1.1,0-1.7,0.1c-3.6,0.6-5.5,3.2-5.9,6h0.1c0.8-1.1,2.2-1.9,4.1-1.9c3,0,5.1,2.1,5.1,5.4
			c0,3.1-2.1,5.9-5.6,5.9c-3.6,0-6-2.8-6-7.2c0-3.3,1.2-5.9,2.8-7.6c1.4-1.4,3.3-2.2,5.4-2.5c0.7-0.1,1.2-0.1,1.7-0.1V226.9z
			 M421.2,236.6c0-2.4-1.4-3.9-3.5-3.9c-1.4,0-2.6,0.9-3.3,2.1c-0.2,0.3-0.3,0.6-0.3,1c0.1,2.8,1.3,4.8,3.7,4.8
			C419.9,240.6,421.2,239,421.2,236.6z"/>
		<path class="st3" d="M426.1,239.5c0.6,0.4,2.1,1.1,3.7,1.1c2.9,0,3.8-1.9,3.8-3.3c0-2.4-2.1-3.4-4.4-3.4H428v-1.7h1.3
			c1.7,0,3.8-0.9,3.8-2.8c0-1.3-0.9-2.5-3-2.5c-1.3,0-2.6,0.6-3.4,1.1l-0.6-1.7c0.9-0.6,2.6-1.3,4.4-1.3c3.3,0,4.8,2,4.8,4
			c0,1.7-1,3.2-3.1,4v0.1c2.1,0.4,3.8,2,3.8,4.3c0,2.7-2.1,5-6.1,5c-1.9,0-3.5-0.6-4.4-1.1L426.1,239.5z"/>
		<path class="st3" d="M439,240.8c0-1,0.6-1.6,1.6-1.6s1.5,0.7,1.5,1.6c0,0.9-0.6,1.6-1.6,1.6C439.6,242.4,439,241.7,439,240.8z"/>
		<path class="st3" d="M454.2,227.2h-6.4l-0.6,4.3c0.4-0.1,0.8-0.1,1.4-0.1c1.3,0,2.6,0.3,3.6,0.9c1.3,0.8,2.4,2.2,2.4,4.3
			c0,3.3-2.6,5.7-6.3,5.7c-1.8,0-3.4-0.5-4.2-1l0.6-1.7c0.7,0.4,2.1,0.9,3.6,0.9c2.1,0,4-1.4,4-3.7c0-2.2-1.5-3.7-4.8-3.7
			c-1,0-1.7,0.1-2.3,0.2l1.1-8.1h8.1V227.2z"/>
		<path class="st3" d="M458,239.5c0.6,0.4,2.1,1.1,3.7,1.1c2.9,0,3.8-1.9,3.8-3.3c0-2.4-2.1-3.4-4.4-3.4h-1.3v-1.7h1.3
			c1.7,0,3.8-0.9,3.8-2.8c0-1.3-0.9-2.5-3-2.5c-1.3,0-2.6,0.6-3.4,1.1l-0.6-1.7c0.9-0.6,2.6-1.3,4.4-1.3c3.3,0,4.8,2,4.8,4
			c0,1.7-1,3.2-3.1,4v0.1c2.1,0.4,3.8,2,3.8,4.3c0,2.7-2.1,5-6.1,5c-1.9,0-3.5-0.6-4.4-1.1L458,239.5z"/>
	</g>
	<g>
		<path class="st3" d="M411.9,281.9c0-2.1,1.3-3.6,3.3-4.5l0-0.1c-1.9-0.9-2.7-2.3-2.7-3.8c0-2.7,2.3-4.5,5.2-4.5
			c3.3,0,4.9,2,4.9,4.1c0,1.4-0.7,3-2.8,3.9v0.1c2.1,0.8,3.4,2.3,3.4,4.3c0,2.9-2.5,4.9-5.7,4.9C414,286.4,411.9,284.3,411.9,281.9z
			 M420.9,281.8c0-2-1.4-3-3.7-3.7c-2,0.6-3,1.9-3,3.5c-0.1,1.7,1.2,3.2,3.4,3.2C419.6,284.8,420.9,283.5,420.9,281.8z M414.7,273.4
			c0,1.7,1.3,2.6,3.2,3.1c1.5-0.5,2.6-1.5,2.6-3.1c0-1.3-0.8-2.7-2.8-2.7C415.7,270.7,414.7,271.9,414.7,273.4z"/>
		<path class="st3" d="M436.5,277.6c0,5.7-2.1,8.9-5.9,8.9c-3.3,0-5.5-3.1-5.6-8.6c0-5.6,2.4-8.8,5.9-8.8
			C434.5,269,436.5,272.2,436.5,277.6z M427.4,277.8c0,4.4,1.3,6.9,3.4,6.9c2.3,0,3.4-2.7,3.4-7c0-4.1-1.1-6.9-3.4-6.9
			C428.8,270.8,427.4,273.2,427.4,277.8z"/>
		<path class="st3" d="M438.8,284.8c0-1,0.6-1.6,1.6-1.6s1.5,0.7,1.5,1.6c0,0.9-0.6,1.6-1.6,1.6
			C439.4,286.4,438.8,285.7,438.8,284.8z"/>
		<path class="st3" d="M444,286.2v-1.4l1.8-1.7c4.3-4.1,6.2-6.3,6.3-8.8c0-1.7-0.8-3.3-3.3-3.3c-1.5,0-2.8,0.8-3.6,1.4l-0.7-1.6
			c1.2-1,2.8-1.7,4.8-1.7c3.6,0,5.2,2.5,5.2,4.9c0,3.1-2.3,5.6-5.8,9l-1.3,1.2v0.1h7.6v1.9H444z"/>
		<path class="st3" d="M458.6,284.5c0.5,0.1,1.1,0,1.8-0.1c1.3-0.2,2.6-0.7,3.5-1.6c1.1-1,1.9-2.5,2.2-4.5h-0.1
			c-0.9,1.1-2.3,1.8-4,1.8c-3,0-5-2.3-5-5.2c0-3.2,2.3-6,5.7-6c3.4,0,5.6,2.8,5.6,7.1c0,3.7-1.2,6.3-2.9,7.9c-1.3,1.3-3.1,2-4.9,2.3
			c-0.8,0.1-1.6,0.2-2.1,0.1V284.5z M459.4,274.9c0,2.1,1.3,3.6,3.2,3.6c1.5,0,2.7-0.8,3.3-1.8c0.1-0.2,0.2-0.5,0.2-0.8
			c0-2.9-1.1-5.1-3.4-5.1C460.8,270.8,459.4,272.5,459.4,274.9z"/>
	</g>
	<g>
		<path class="st3" d="M417,315.5L417,315.5l-3,1.6l-0.4-1.7l3.7-2h1.9v16.8H417V315.5z"/>
		<path class="st3" d="M435.4,315.3H429l-0.6,4.3c0.4-0.1,0.8-0.1,1.4-0.1c1.3,0,2.6,0.3,3.6,0.9c1.3,0.8,2.4,2.2,2.4,4.3
			c0,3.3-2.6,5.7-6.3,5.7c-1.8,0-3.4-0.5-4.2-1l0.6-1.7c0.7,0.4,2.1,0.9,3.6,0.9c2.1,0,4-1.4,4-3.7c0-2.2-1.5-3.7-4.8-3.7
			c-1,0-1.7,0.1-2.3,0.2l1.1-8.1h8.1V315.3z"/>
		<path class="st3" d="M438.8,328.8c0-1,0.6-1.6,1.6-1.6s1.5,0.7,1.5,1.6c0,0.9-0.6,1.6-1.6,1.6
			C439.4,330.5,438.8,329.8,438.8,328.8z"/>
		<path class="st3" d="M443.8,325.9c0-2.1,1.3-3.6,3.3-4.5l0-0.1c-1.9-0.9-2.7-2.3-2.7-3.8c0-2.7,2.3-4.5,5.2-4.5
			c3.3,0,4.9,2,4.9,4.1c0,1.4-0.7,3-2.8,3.9v0.1c2.1,0.8,3.4,2.3,3.4,4.3c0,2.9-2.5,4.9-5.7,4.9
			C445.9,330.5,443.8,328.4,443.8,325.9z M452.8,325.8c0-2-1.4-3-3.7-3.7c-2,0.6-3,1.9-3,3.5c-0.1,1.7,1.2,3.2,3.4,3.2
			C451.5,328.8,452.8,327.6,452.8,325.8z M446.6,317.4c0,1.7,1.3,2.6,3.2,3.1c1.5-0.5,2.6-1.5,2.6-3.1c0-1.3-0.8-2.7-2.8-2.7
			C447.6,314.7,446.6,316,446.6,317.4z"/>
		<path class="st3" d="M457.1,325.9c0-2.1,1.3-3.6,3.3-4.5l0-0.1c-1.9-0.9-2.7-2.3-2.7-3.8c0-2.7,2.3-4.5,5.2-4.5
			c3.3,0,4.9,2,4.9,4.1c0,1.4-0.7,3-2.8,3.9v0.1c2.1,0.8,3.4,2.3,3.4,4.3c0,2.9-2.5,4.9-5.7,4.9
			C459.2,330.5,457.1,328.4,457.1,325.9z M466.1,325.8c0-2-1.4-3-3.7-3.7c-2,0.6-3,1.9-3,3.5c-0.1,1.7,1.2,3.2,3.4,3.2
			C464.8,328.8,466.1,327.6,466.1,325.8z M459.9,317.4c0,1.7,1.3,2.6,3.2,3.1c1.5-0.5,2.6-1.5,2.6-3.1c0-1.3-0.8-2.7-2.8-2.7
			C460.9,314.7,459.9,316,459.9,317.4z"/>
	</g>
	<g>
		<path class="st3" d="M403.6,183.4L403.6,183.4l-3,1.6l-0.4-1.7l3.7-2h1.9v16.8h-2.2V183.4z"/>
		<path class="st3" d="M421.6,182.9c-0.5,0-1.1,0-1.7,0.1c-3.6,0.6-5.5,3.2-5.9,6h0.1c0.8-1.1,2.2-1.9,4.1-1.9c3,0,5.1,2.1,5.1,5.4
			c0,3.1-2.1,5.9-5.6,5.9c-3.6,0-6-2.8-6-7.2c0-3.3,1.2-5.9,2.8-7.6c1.4-1.4,3.3-2.2,5.4-2.5c0.7-0.1,1.2-0.1,1.7-0.1V182.9z
			 M420.9,192.6c0-2.4-1.4-3.9-3.5-3.9c-1.4,0-2.6,0.9-3.3,2.1c-0.2,0.3-0.3,0.6-0.3,1c0.1,2.8,1.3,4.8,3.7,4.8
			C419.6,196.6,420.9,195,420.9,192.6z"/>
		<path class="st3" d="M425.8,195.5c0.6,0.4,2.1,1.1,3.7,1.1c2.9,0,3.8-1.9,3.8-3.3c0-2.4-2.1-3.4-4.4-3.4h-1.3v-1.7h1.3
			c1.7,0,3.8-0.9,3.8-2.8c0-1.3-0.9-2.5-3-2.5c-1.3,0-2.6,0.6-3.4,1.1l-0.6-1.7c0.9-0.6,2.6-1.3,4.4-1.3c3.3,0,4.8,2,4.8,4
			c0,1.7-1,3.2-3.1,4v0.1c2.1,0.4,3.8,2,3.8,4.3c0,2.7-2.1,5-6.1,5c-1.9,0-3.5-0.6-4.4-1.1L425.8,195.5z"/>
		<path class="st3" d="M438.7,196.7c0-1,0.6-1.6,1.6-1.6s1.5,0.7,1.5,1.6c0,0.9-0.6,1.6-1.6,1.6
			C439.3,198.4,438.7,197.7,438.7,196.7z"/>
		<path class="st3" d="M448.8,183.4L448.8,183.4l-3,1.6l-0.4-1.7l3.7-2h1.9v16.8h-2.2V183.4z"/>
		<path class="st3" d="M457.2,198.1v-1.4l1.8-1.7c4.3-4.1,6.2-6.3,6.3-8.8c0-1.7-0.8-3.3-3.3-3.3c-1.5,0-2.8,0.8-3.6,1.4l-0.7-1.6
			c1.2-1,2.8-1.7,4.8-1.7c3.6,0,5.2,2.5,5.2,4.9c0,3.1-2.3,5.6-5.8,9l-1.3,1.2v0.1h7.6v1.9H457.2z"/>
	</g>
	<line class="st10" x1="360.1" y1="189.2" x2="379.1" y2="189.2"/>
	<line class="st11" x1="360.1" y1="232.1" x2="379.1" y2="232.1"/>
	<line class="st12" x1="360.1" y1="275.1" x2="379.1" y2="275.1"/>
	<line class="st13" x1="360.1" y1="321.6" x2="379.1" y2="321.6"/>
	<line class="st14" x1="360.1" y1="365.1" x2="379.1" y2="365.1"/>
</g>
</svg>
