<?xml version="1.0" encoding="utf-8"?>
<!-- Generator: Adobe Illustrator 27.7.0, SVG Export Plug-In . SVG Version: 6.00 Build 0)  -->
<svg version="1.1" id="Layer_1" xmlns="http://www.w3.org/2000/svg" xmlns:xlink="http://www.w3.org/1999/xlink" x="0px" y="0px"
	 viewBox="0 0 500 500" style="enable-background:new 0 0 500 500;" xml:space="preserve">
<style type="text/css">
	.st0{fill:#939598;}
	.st1{fill:none;stroke:#939598;stroke-width:2;}
	.st2{fill:none;stroke:url(#SVGID_1_);stroke-width:3;stroke-miterlimit:10;}
	.st3{fill:#4D4E4F;}
	.st4{fill:none;stroke:#DCDDDE;stroke-width:8;stroke-linecap:round;stroke-linejoin:round;}
	.st5{fill:none;stroke:#A8AAAC;stroke-width:8;stroke-linecap:round;stroke-linejoin:round;}
	.st6{fill:none;stroke:#939598;stroke-width:8;stroke-linecap:round;stroke-linejoin:round;}
	.st7{fill:none;stroke:#005595;stroke-width:10;stroke-linecap:round;stroke-linejoin:round;}
	.st8{fill:none;stroke:#C7C8CA;stroke-width:8;stroke-linecap:round;stroke-linejoin:round;}
	.st9{fill:#6E6F71;}
	.st10{fill:none;stroke:#005595;stroke-width:5;stroke-linecap:round;stroke-linejoin:round;}
	.st11{fill:none;stroke:#939598;stroke-width:5;stroke-linecap:round;stroke-linejoin:round;}
	.st12{fill:none;stroke:#A8AAAC;stroke-width:5;stroke-linecap:round;stroke-linejoin:round;}
	.st13{fill:none;stroke:#C7C8CA;stroke-width:5;stroke-linecap:round;stroke-linejoin:round;}
	.st14{fill:none;stroke:#DCDDDE;stroke-width:5;stroke-linecap:round;stroke-linejoin:round;}a
</style>
<g>
	<g>
		<path class="st0" d="M376.2,19.2c-1.4,2.2-2.5,5.5-2.5,9.8c0,4.3,1.1,7.5,2.5,9.8h-2.6c-1.3-1.9-2.8-5.1-2.8-9.8
			c0-4.7,1.5-7.9,2.8-9.8H376.2z"/>
	</g>
	<g>
		<path class="st0" d="M378.7,19.1h9.7v0c-0.6,1-0.9,1.5-1,1.6h-2.6c0.4,0.5,0.6,1,0.7,1.7h2.7c0,0,0,0,0,0c-0.6,1-0.9,1.6-0.9,1.6
			h-1.8c0,0.5-0.3,1.2-0.7,1.9c-0.6,0.8-1.1,1.3-1.6,1.5c-0.9,0.5-1.8,0.8-2.7,0.8v0c0,0.1,0.2,0.4,0.6,0.9l4.8,6.5V36c0,0,0,0,0,0
			h-2.1c-3.8-5-5.7-7.5-5.7-7.5V27l0-0.1c0.3,0.1,0.7,0.1,1.2,0.1c2.1,0,3.4-0.8,3.9-2.3c0.1-0.2,0.1-0.5,0.1-0.7h-5.7
			c0,0,0,0,0-0.1c0.6-1,1-1.6,1-1.6h4.6v0c-0.3-0.6-0.8-1.1-1.5-1.4c-0.5-0.2-1-0.3-1.4-0.3h-2.5v-0.1
			C378.4,19.6,378.7,19.1,378.7,19.1z"/>
	</g>
	<g>
		<path class="st0" d="M400.5,20.8c0,1-0.8,1.8-2,1.8c-1.2,0-1.9-0.8-1.9-1.8c0-1.1,0.8-1.9,1.9-1.9S400.4,19.7,400.5,20.8z
			 M396.7,36V24.1h3.7V36H396.7z"/>
		<path class="st0" d="M403.3,27.9c0-1.5,0-2.7-0.1-3.8h3.2l0.2,1.6h0.1c0.5-0.8,1.7-1.9,3.7-1.9c2.4,0,4.2,1.6,4.2,5.1v7h-3.7v-6.6
			c0-1.5-0.5-2.6-1.9-2.6c-1,0-1.6,0.7-1.9,1.4c-0.1,0.2-0.1,0.6-0.1,0.9V36h-3.7V27.9z"/>
		<path class="st0" d="M431.3,35.7c-0.7,0.3-1.9,0.5-3.3,0.5c-3.8,0-6.3-2.3-6.3-6.1c0-3.5,2.4-6.3,6.8-6.3c1,0,2,0.2,2.8,0.5
			l-0.6,2.7c-0.4-0.2-1.1-0.4-2.1-0.4c-1.9,0-3.2,1.4-3.2,3.3c0,2.2,1.5,3.3,3.3,3.3c0.9,0,1.6-0.1,2.1-0.4L431.3,35.7z"/>
		<path class="st0" d="M433.4,28c0-1.7,0-2.9-0.1-3.9h3.2l0.1,2.2h0.1c0.6-1.7,2.1-2.5,3.2-2.5c0.3,0,0.5,0,0.8,0v3.5
			c-0.3,0-0.6-0.1-1-0.1c-1.4,0-2.3,0.7-2.5,1.9c0,0.2-0.1,0.5-0.1,0.8v6h-3.7V28z"/>
		<path class="st0" d="M454.2,29.9c0,4.3-3.1,6.3-6.3,6.3c-3.5,0-6.1-2.3-6.1-6.1c0-3.8,2.5-6.3,6.3-6.3
			C451.7,23.8,454.2,26.3,454.2,29.9z M445.6,30c0,2,0.8,3.6,2.4,3.6c1.4,0,2.4-1.4,2.4-3.6c0-1.8-0.7-3.6-2.4-3.6
			C446.2,26.4,445.6,28.3,445.6,30z"/>
		<path class="st0" d="M456.4,28c0-1.7,0-2.9-0.1-3.9h3.2l0.1,2.2h0.1c0.6-1.7,2.1-2.5,3.2-2.5c0.3,0,0.5,0,0.8,0v3.5
			c-0.3,0-0.6-0.1-1-0.1c-1.4,0-2.3,0.7-2.5,1.9c0,0.2-0.1,0.5-0.1,0.8v6h-3.7V28z"/>
		<path class="st0" d="M468.3,31.2c0.1,1.5,1.6,2.3,3.4,2.3c1.3,0,2.3-0.2,3.3-0.5l0.5,2.5c-1.2,0.5-2.7,0.7-4.3,0.7
			c-4,0-6.3-2.3-6.3-6c0-3,1.9-6.3,6-6.3c3.8,0,5.3,3,5.3,5.9c0,0.6-0.1,1.2-0.1,1.5H468.3z M472.7,28.7c0-0.9-0.4-2.4-2.1-2.4
			c-1.6,0-2.2,1.4-2.3,2.4H472.7z"/>
		<path class="st0" d="M478.3,32.7c0.7,0.4,2.1,0.9,3.2,0.9c1.1,0,1.6-0.4,1.6-1c0-0.6-0.4-0.9-1.7-1.4c-2.5-0.8-3.4-2.2-3.4-3.6
			c0-2.2,1.9-3.9,4.8-3.9c1.4,0,2.6,0.3,3.3,0.7l-0.7,2.5c-0.5-0.3-1.6-0.7-2.6-0.7c-0.9,0-1.4,0.4-1.4,1c0,0.6,0.5,0.8,1.9,1.4
			c2.3,0.8,3.2,1.9,3.2,3.7c0,2.2-1.7,3.8-5.1,3.8c-1.6,0-2.9-0.3-3.8-0.8L478.3,32.7z"/>
		<path class="st0" d="M488.2,38.8c1.3-2.2,2.5-5.5,2.5-9.8s-1.1-7.5-2.5-9.8h2.6c1.3,1.9,2.8,5,2.8,9.8c0,4.7-1.5,7.9-2.8,9.8
			H488.2z"/>
	</g>
	<line class="st1" x1="5" y1="6.4" x2="494.9" y2="6.4"/>
	<linearGradient id="SVGID_1_" gradientUnits="userSpaceOnUse" x1="5.0245" y1="48.0626" x2="494.9398" y2="48.0626">
		<stop  offset="0" style="stop-color:#E55B32"/>
		<stop  offset="0.2185" style="stop-color:#DA512E"/>
		<stop  offset="1" style="stop-color:#BD3726"/>
	</linearGradient>
	<polyline class="st2" points="5,48.1 494.9,48.1 494.9,48.1 5,48.1 	"/>
	<g>
		<path class="st3" d="M17.8,28.2H11v4.4h7.6V36H6.8V17.6h11.4V21H11v3.8h6.8V28.2z"/>
		<path class="st3" d="M21.4,17.8c1.1-0.2,3.3-0.4,5.4-0.4c2.5,0,4.1,0.2,5.4,1c1.3,0.7,2.2,1.9,2.2,3.6c0,1.6-1,3.2-3,3.9V26
			c2.1,0.6,3.7,2.2,3.7,4.5c0,1.7-0.8,3-1.9,3.9c-1.3,1.1-3.6,1.7-7.2,1.7c-2,0-3.6-0.1-4.5-0.3V17.8z M25.5,24.8h1.4
			c2.2,0,3.4-0.9,3.4-2.3c0-1.4-1.1-2.1-2.9-2.1c-0.9,0-1.4,0.1-1.8,0.1V24.8z M25.5,33c0.4,0.1,0.9,0.1,1.6,0.1
			c1.9,0,3.5-0.7,3.5-2.6c0-1.9-1.7-2.6-3.7-2.6h-1.4V33z"/>
		<path class="st3" d="M42.1,17.6V36h-4.2V17.6H42.1z"/>
		<path class="st3" d="M49.2,21h-4.9v-3.5h14.1V21h-5V36h-4.2V21z"/>
		<path class="st3" d="M60.6,17.8c1.5-0.2,3.5-0.4,5.6-0.4c3.5,0,5.8,0.6,7.5,2c1.9,1.4,3.1,3.7,3.1,6.9c0,3.5-1.3,6-3.1,7.5
			c-1.9,1.6-4.9,2.4-8.5,2.4c-2.2,0-3.7-0.1-4.7-0.3V17.8z M64.8,32.8c0.4,0.1,0.9,0.1,1.4,0.1c3.8,0,6.2-2,6.2-6.4
			c0-3.8-2.2-5.8-5.8-5.8c-0.9,0-1.5,0.1-1.9,0.2V32.8z"/>
		<path class="st3" d="M83.5,31.2L82.2,36h-4.3l5.6-18.4H89L94.7,36h-4.5l-1.4-4.7H83.5z M88.2,28.1L87,24.2
			c-0.3-1.1-0.7-2.5-0.9-3.5h-0.1c-0.3,1.1-0.5,2.5-0.8,3.5l-1.1,3.9H88.2z"/>
	</g>
	<line class="st4" x1="34.4" y1="385.5" x2="34.4" y2="448.9"/>
	<line class="st5" x1="181" y1="261.1" x2="181" y2="448.9"/>
	<line class="st6" x1="252.7" y1="283.8" x2="252.7" y2="448.9"/>
	<line class="st7" x1="325.8" y1="115.6" x2="325.8" y2="448.9"/>
	<line class="st8" x1="109.2" y1="331.8" x2="109.2" y2="448.9"/>
	<g>
		<path class="st3" d="M422.1,358.5c-0.5,0-1.1,0-1.7,0.1c-3.6,0.6-5.4,3.2-5.8,6h0.1c0.8-1.1,2.2-1.9,4-1.9c3,0,5.1,2.1,5.1,5.4
			c0,3.1-2.1,5.9-5.6,5.9c-3.6,0-5.9-2.8-5.9-7.1c0-3.3,1.2-5.9,2.8-7.6c1.4-1.4,3.2-2.2,5.4-2.5c0.7-0.1,1.2-0.1,1.7-0.1V358.5z
			 M421.4,368.1c0-2.4-1.4-3.8-3.5-3.8c-1.4,0-2.6,0.9-3.2,2.1c-0.2,0.3-0.3,0.6-0.3,1c0.1,2.8,1.3,4.8,3.7,4.8
			C420.1,372.2,421.4,370.5,421.4,368.1z"/>
		<path class="st3" d="M430.7,359L430.7,359l-3,1.6l-0.4-1.7l3.7-2h1.9v16.8h-2.2V359z"/>
		<path class="st3" d="M439.1,372.3c0-1,0.6-1.6,1.5-1.6c0.9,0,1.5,0.7,1.5,1.6c0,0.9-0.6,1.6-1.5,1.6
			C439.8,373.9,439.1,373.2,439.1,372.3z"/>
		<path class="st3" d="M444.8,371c0.6,0.4,2.1,1.1,3.7,1.1c2.9,0,3.8-1.9,3.8-3.2c0-2.3-2.1-3.4-4.3-3.4h-1.3v-1.7h1.3
			c1.7,0,3.7-0.9,3.7-2.8c0-1.3-0.9-2.5-2.9-2.5c-1.3,0-2.6,0.6-3.4,1.1l-0.6-1.7c0.9-0.6,2.6-1.3,4.4-1.3c3.3,0,4.8,2,4.8,4
			c0,1.7-1,3.2-3.1,3.9v0.1c2.1,0.4,3.7,2,3.7,4.3c0,2.7-2.1,5-6.1,5c-1.9,0-3.5-0.6-4.4-1.1L444.8,371z"/>
		<path class="st3" d="M467.1,358.5c-0.5,0-1.1,0-1.7,0.1c-3.6,0.6-5.4,3.2-5.8,6h0.1c0.8-1.1,2.2-1.9,4-1.9c3,0,5.1,2.1,5.1,5.4
			c0,3.1-2.1,5.9-5.6,5.9c-3.6,0-5.9-2.8-5.9-7.1c0-3.3,1.2-5.9,2.8-7.6c1.4-1.4,3.2-2.2,5.4-2.5c0.7-0.1,1.2-0.1,1.7-0.1V358.5z
			 M466.4,368.1c0-2.4-1.4-3.8-3.5-3.8c-1.4,0-2.6,0.9-3.2,2.1c-0.2,0.3-0.3,0.6-0.3,1c0.1,2.8,1.3,4.8,3.7,4.8
			C465.1,372.2,466.4,370.5,466.4,368.1z"/>
	</g>
	<g>
		<path class="st9" d="M87.5,474.9h8.3v2.1h-5.6v4h5.3v2.1h-5.3v6.1h-2.6V474.9z"/>
		<path class="st9" d="M100.5,489.2v-6l-4.5-8.3h3l1.7,3.7c0.5,1.1,0.8,1.9,1.2,2.8h0c0.4-0.9,0.8-1.8,1.3-2.8l1.7-3.7h3l-4.8,8.3v6
			H100.5z"/>
		<path class="st9" d="M111.2,489.2v-1.6l1.6-1.5c3.2-3,4.8-4.7,4.8-6.5c0-1.2-0.7-2.3-2.5-2.3c-1.2,0-2.3,0.6-3,1.1l-0.8-1.8
			c1-0.8,2.5-1.4,4.2-1.4c3.1,0,4.5,1.9,4.5,4.2c0,2.4-1.7,4.4-4.1,6.6l-1.2,1v0h5.7v2.2H111.2z"/>
		<path class="st9" d="M131.3,482.2c0,4.4-1.7,7.2-5,7.2c-3.2,0-4.9-2.9-4.9-7.1c0-4.3,1.8-7.2,5.1-7.2
			C129.7,475.2,131.3,478.1,131.3,482.2z M124,482.4c0,3.4,0.9,5.1,2.4,5.1c1.5,0,2.3-1.9,2.3-5.2c0-3.2-0.8-5.1-2.3-5.1
			C124.9,477.2,124,478.9,124,482.4z"/>
	</g>
	<g>
		<path class="st9" d="M13,474.9h8.3v2.1h-5.6v4h5.3v2.1h-5.3v6.1H13V474.9z"/>
		<path class="st9" d="M26,489.2v-6l-4.5-8.3h3l1.7,3.7c0.5,1.1,0.8,1.9,1.2,2.8h0c0.4-0.9,0.8-1.8,1.3-2.8l1.7-3.7h3l-4.8,8.3v6H26
			z"/>
		<path class="st9" d="M40.8,477.8L40.8,477.8l-2.6,1.3l-0.4-2l3.4-1.7h2.2v13.8h-2.5V477.8z"/>
		<path class="st9" d="M48.1,487.3c0.4,0,0.8,0,1.4,0c1-0.1,2-0.4,2.8-1.1c0.9-0.7,1.5-1.8,1.8-3.1l0,0c-0.7,0.8-1.7,1.2-3,1.2
			c-2.4,0-4.2-1.7-4.2-4.3c0-2.6,2-4.9,5-4.9c3.2,0,4.9,2.5,4.9,5.9c0,3-1,5.1-2.4,6.4c-1.2,1.1-2.9,1.8-4.7,1.9
			c-0.6,0.1-1.2,0.1-1.6,0V487.3z M49.4,480c0,1.4,0.8,2.5,2.3,2.5c1.1,0,1.8-0.5,2.2-1.1c0.1-0.2,0.1-0.4,0.1-0.7
			c0-1.9-0.7-3.5-2.4-3.5C50.4,477.1,49.4,478.3,49.4,480z"/>
		<path class="st9" d="M160.6,474.9h8.3v2.1h-5.6v4h5.3v2.1h-5.3v6.1h-2.6V474.9z"/>
		<path class="st9" d="M173.6,489.2v-6l-4.5-8.3h3l1.7,3.7c0.5,1.1,0.8,1.9,1.2,2.8h0c0.4-0.9,0.8-1.8,1.3-2.8l1.7-3.7h3l-4.8,8.3v6
			H173.6z"/>
		<path class="st9" d="M184.3,489.2v-1.6l1.6-1.5c3.2-3,4.8-4.7,4.8-6.5c0-1.2-0.7-2.3-2.5-2.3c-1.2,0-2.3,0.6-3,1.1l-0.8-1.8
			c1-0.8,2.5-1.4,4.2-1.4c3.1,0,4.5,1.9,4.5,4.2c0,2.4-1.7,4.4-4.1,6.6l-1.2,1v0h5.7v2.2H184.3z"/>
		<path class="st9" d="M198.7,477.8L198.7,477.8l-2.6,1.3l-0.4-2l3.4-1.7h2.2v13.8h-2.5V477.8z"/>
		<path class="st9" d="M233.7,474.9h8.3v2.1h-5.6v4h5.3v2.1h-5.3v6.1h-2.6V474.9z"/>
		<path class="st9" d="M246.7,489.2v-6l-4.5-8.3h3l1.7,3.7c0.5,1.1,0.8,1.9,1.2,2.8h0c0.4-0.9,0.8-1.8,1.3-2.8l1.7-3.7h3l-4.8,8.3v6
			H246.7z"/>
		<path class="st9" d="M257.4,489.2v-1.6l1.6-1.5c3.2-3,4.8-4.7,4.8-6.5c0-1.2-0.7-2.3-2.5-2.3c-1.2,0-2.3,0.6-3,1.1l-0.8-1.8
			c1-0.8,2.5-1.4,4.2-1.4c3.1,0,4.5,1.9,4.5,4.2c0,2.4-1.7,4.4-4.1,6.6l-1.2,1v0h5.7v2.2H257.4z"/>
		<path class="st9" d="M267.7,489.2v-1.6l1.6-1.5c3.2-3,4.8-4.7,4.8-6.5c0-1.2-0.7-2.3-2.5-2.3c-1.2,0-2.3,0.6-3,1.1l-0.8-1.8
			c1-0.8,2.5-1.4,4.2-1.4c3.1,0,4.5,1.9,4.5,4.2c0,2.4-1.7,4.4-4.1,6.6l-1.2,1v0h5.7v2.2H267.7z"/>
		<path class="st9" d="M306.7,474.9h8.3v2.1h-5.6v4h5.3v2.1h-5.3v6.1h-2.6V474.9z"/>
		<path class="st9" d="M319.8,489.2v-6l-4.5-8.3h3l1.7,3.7c0.5,1.1,0.8,1.9,1.2,2.8h0c0.4-0.9,0.8-1.8,1.3-2.8l1.7-3.7h3l-4.8,8.3v6
			H319.8z"/>
		<path class="st9" d="M330.4,489.2v-1.6l1.6-1.5c3.2-3,4.8-4.7,4.8-6.5c0-1.2-0.7-2.3-2.5-2.3c-1.2,0-2.3,0.6-3,1.1l-0.8-1.8
			c1-0.8,2.5-1.4,4.2-1.4c3.1,0,4.5,1.9,4.5,4.2c0,2.4-1.7,4.4-4.1,6.6l-1.2,1v0h5.7v2.2H330.4z"/>
		<path class="st9" d="M341.3,486.5c0.5,0.3,1.8,0.8,3.1,0.8c2,0,2.8-1.1,2.8-2.2c0-1.6-1.5-2.3-3.1-2.3h-1.2v-1.9h1.2
			c1.2,0,2.7-0.6,2.7-1.9c0-0.9-0.7-1.7-2.2-1.7c-1.1,0-2.3,0.5-2.8,0.9l-0.6-1.9c0.8-0.6,2.3-1.1,4-1.1c2.8,0,4.3,1.6,4.3,3.4
			c0,1.4-0.8,2.6-2.5,3.2v0c1.7,0.3,3,1.6,3,3.4c0,2.3-2,4.2-5.4,4.2c-1.7,0-3.1-0.5-3.9-1L341.3,486.5z"/>
	</g>
	<g>
		<path class="st3" d="M404.4,227.4L404.4,227.4l-3,1.6l-0.4-1.7l3.7-2h1.9v16.8h-2.2V227.4z"/>
		<path class="st3" d="M419.7,242.1v-4.6h-7.8V236l7.5-10.7h2.4v10.4h2.3v1.8h-2.3v4.6H419.7z M419.7,235.7v-5.6
			c0-0.9,0-1.8,0.1-2.6h-0.1c-0.5,1-0.9,1.7-1.4,2.5l-4.1,5.7v0.1H419.7z"/>
		<path class="st3" d="M432.9,242.1v-4.6h-7.8V236l7.5-10.7h2.5v10.4h2.3v1.8h-2.3v4.6H432.9z M432.9,235.7v-5.6
			c0-0.9,0-1.8,0.1-2.6h-0.1c-0.5,1-0.9,1.7-1.4,2.5l-4.1,5.7v0.1H432.9z"/>
		<path class="st3" d="M439.3,240.7c0-1,0.6-1.6,1.5-1.6c0.9,0,1.5,0.7,1.5,1.6c0,0.9-0.6,1.6-1.5,1.6
			C440,242.3,439.3,241.6,439.3,240.7z"/>
		<path class="st3" d="M444.5,242.1v-1.4l1.8-1.7c4.3-4.1,6.2-6.2,6.2-8.8c0-1.7-0.8-3.3-3.3-3.3c-1.5,0-2.8,0.8-3.6,1.4l-0.7-1.6
			c1.2-1,2.8-1.7,4.7-1.7c3.6,0,5.1,2.5,5.1,4.9c0,3.1-2.2,5.6-5.8,9l-1.3,1.2v0.1h7.5v1.9H444.5z"/>
		<path class="st3" d="M468.6,225.3v1.5l-7.3,15.3H459l7.3-14.8v-0.1H458v-1.9H468.6z"/>
	</g>
	<g>
		<path class="st3" d="M404.2,271.3L404.2,271.3l-3,1.6l-0.4-1.7l3.7-2h1.9v16.8h-2.2V271.3z"/>
		<path class="st3" d="M422.1,270.8c-0.5,0-1.1,0-1.7,0.1c-3.6,0.6-5.4,3.2-5.8,6h0.1c0.8-1.1,2.2-1.9,4-1.9c3,0,5.1,2.1,5.1,5.4
			c0,3.1-2.1,5.9-5.6,5.9c-3.6,0-5.9-2.8-5.9-7.1c0-3.3,1.2-5.9,2.8-7.6c1.4-1.4,3.2-2.2,5.4-2.5c0.7-0.1,1.2-0.1,1.7-0.1V270.8z
			 M421.4,280.4c0-2.4-1.4-3.8-3.5-3.8c-1.4,0-2.6,0.9-3.2,2.1c-0.2,0.3-0.3,0.6-0.3,1c0.1,2.8,1.3,4.8,3.7,4.8
			C420.1,284.5,421.4,282.8,421.4,280.4z"/>
		<path class="st3" d="M425.7,285.9v-1.4l1.8-1.7c4.3-4.1,6.2-6.2,6.2-8.8c0-1.7-0.8-3.3-3.3-3.3c-1.5,0-2.8,0.8-3.6,1.4l-0.7-1.6
			c1.2-1,2.8-1.7,4.7-1.7c3.6,0,5.1,2.5,5.1,4.9c0,3.1-2.2,5.6-5.8,9l-1.3,1.2v0.1h7.5v1.9H425.7z"/>
		<path class="st3" d="M439.1,284.6c0-1,0.6-1.6,1.5-1.6c0.9,0,1.5,0.7,1.5,1.6c0,0.9-0.6,1.6-1.5,1.6
			C439.8,286.2,439.1,285.5,439.1,284.6z"/>
		<path class="st3" d="M454.3,271.1h-6.4l-0.6,4.3c0.4-0.1,0.7-0.1,1.4-0.1c1.3,0,2.6,0.3,3.6,0.9c1.3,0.7,2.4,2.2,2.4,4.3
			c0,3.3-2.6,5.7-6.2,5.7c-1.8,0-3.4-0.5-4.2-1l0.6-1.7c0.7,0.4,2.1,0.9,3.6,0.9c2.1,0,4-1.4,4-3.6c0-2.2-1.5-3.7-4.8-3.7
			c-1,0-1.7,0.1-2.3,0.2l1.1-8h8V271.1z"/>
		<path class="st3" d="M464.5,285.9v-4.6h-7.8v-1.5l7.5-10.7h2.5v10.4h2.3v1.8h-2.3v4.6H464.5z M464.5,279.6V274
			c0-0.9,0-1.8,0.1-2.6h-0.1c-0.5,1-0.9,1.7-1.4,2.5l-4.1,5.7v0.1H464.5z"/>
	</g>
	<g>
		<path class="st3" d="M404.2,315.1L404.2,315.1l-3,1.6l-0.4-1.7l3.7-2h1.9v16.8h-2.2V315.1z"/>
		<path class="st3" d="M423.6,321.2c0,5.7-2.1,8.8-5.8,8.8c-3.3,0-5.5-3.1-5.5-8.6c0-5.6,2.4-8.7,5.8-8.7
			C421.6,312.7,423.6,315.9,423.6,321.2z M414.5,321.5c0,4.4,1.3,6.8,3.4,6.8c2.3,0,3.4-2.7,3.4-7c0-4.1-1.1-6.8-3.4-6.8
			C416,314.5,414.5,316.9,414.5,321.5z"/>
		<path class="st3" d="M435.7,314.9h-6.4l-0.6,4.3c0.4-0.1,0.7-0.1,1.4-0.1c1.3,0,2.6,0.3,3.6,0.9c1.3,0.7,2.4,2.2,2.4,4.3
			c0,3.3-2.6,5.7-6.2,5.7c-1.8,0-3.4-0.5-4.2-1l0.6-1.7c0.7,0.4,2.1,0.9,3.6,0.9c2.1,0,4-1.4,4-3.6c0-2.2-1.5-3.7-4.8-3.7
			c-1,0-1.7,0.1-2.3,0.2l1.1-8h8V314.9z"/>
		<path class="st3" d="M439.1,328.5c0-1,0.6-1.6,1.5-1.6c0.9,0,1.5,0.7,1.5,1.6c0,0.9-0.6,1.6-1.5,1.6
			C439.8,330.1,439.1,329.4,439.1,328.5z"/>
		<path class="st3" d="M444.8,327.2c0.6,0.4,2.1,1.1,3.7,1.1c2.9,0,3.8-1.9,3.8-3.2c0-2.3-2.1-3.4-4.3-3.4h-1.3v-1.7h1.3
			c1.7,0,3.7-0.9,3.7-2.8c0-1.3-0.9-2.5-2.9-2.5c-1.3,0-2.6,0.6-3.4,1.1l-0.6-1.7c0.9-0.6,2.6-1.3,4.4-1.3c3.3,0,4.8,2,4.8,4
			c0,1.7-1,3.2-3.1,3.9v0.1c2.1,0.4,3.7,2,3.7,4.3c0,2.7-2.1,5-6.1,5c-1.9,0-3.5-0.6-4.4-1.1L444.8,327.2z"/>
		<path class="st3" d="M464.5,329.8v-4.6h-7.8v-1.5l7.5-10.7h2.5v10.4h2.3v1.8h-2.3v4.6H464.5z M464.5,323.5v-5.6
			c0-0.9,0-1.8,0.1-2.6h-0.1c-0.5,1-0.9,1.7-1.4,2.5l-4.1,5.7v0.1H464.5z"/>
	</g>
	<g>
		<path class="st3" d="M399.2,198.2v-1.4l1.8-1.7c4.3-4.1,6.2-6.2,6.2-8.8c0-1.7-0.8-3.3-3.3-3.3c-1.5,0-2.8,0.8-3.6,1.4l-0.7-1.6
			c1.2-1,2.8-1.7,4.7-1.7c3.6,0,5.1,2.5,5.1,4.9c0,3.1-2.2,5.6-5.8,9l-1.3,1.2v0.1h7.5v1.9H399.2z"/>
		<path class="st3" d="M412.2,194c0-2.1,1.3-3.6,3.3-4.5l0-0.1c-1.9-0.9-2.7-2.3-2.7-3.8c0-2.7,2.2-4.5,5.2-4.5c3.2,0,4.9,2,4.9,4.1
			c0,1.4-0.7,2.9-2.8,3.9v0.1c2.1,0.8,3.4,2.3,3.4,4.3c0,2.9-2.5,4.9-5.7,4.9C414.3,198.5,412.2,196.4,412.2,194z M421.2,193.9
			c0-2-1.4-3-3.7-3.7c-2,0.6-3,1.9-3,3.5c-0.1,1.7,1.2,3.2,3.4,3.2C419.9,196.9,421.2,195.6,421.2,193.9z M415,185.5
			c0,1.7,1.3,2.6,3.2,3.1c1.4-0.5,2.6-1.5,2.6-3c0-1.3-0.8-2.7-2.8-2.7C416,182.8,415,184,415,185.5z"/>
		<path class="st3" d="M430.5,183.6L430.5,183.6l-3,1.6l-0.4-1.7l3.7-2h1.9v16.8h-2.2V183.6z"/>
		<path class="st3" d="M439,196.9c0-1,0.6-1.6,1.5-1.6c0.9,0,1.5,0.7,1.5,1.6c0,0.9-0.6,1.6-1.5,1.6
			C439.6,198.5,439,197.8,439,196.9z"/>
		<path class="st3" d="M455.3,189.7c0,5.7-2.1,8.8-5.8,8.8c-3.3,0-5.5-3.1-5.5-8.6c0-5.6,2.4-8.7,5.8-8.7
			C453.3,181.2,455.3,184.3,455.3,189.7z M446.2,189.9c0,4.4,1.3,6.8,3.4,6.8c2.3,0,3.4-2.7,3.4-7c0-4.1-1.1-6.8-3.4-6.8
			C447.7,182.9,446.2,185.4,446.2,189.9z"/>
		<path class="st3" d="M467,183.1c-0.5,0-1.1,0-1.7,0.1c-3.6,0.6-5.4,3.2-5.8,6h0.1c0.8-1.1,2.2-1.9,4-1.9c3,0,5.1,2.1,5.1,5.4
			c0,3.1-2.1,5.9-5.6,5.9c-3.6,0-5.9-2.8-5.9-7.1c0-3.3,1.2-5.9,2.8-7.6c1.4-1.4,3.2-2.2,5.4-2.5c0.7-0.1,1.2-0.1,1.7-0.1V183.1z
			 M466.3,192.7c0-2.4-1.4-3.8-3.5-3.8c-1.4,0-2.6,0.9-3.2,2.1c-0.2,0.3-0.3,0.6-0.3,1c0.1,2.8,1.3,4.8,3.7,4.8
			C465,196.8,466.3,195.1,466.3,192.7z"/>
	</g>
	<line class="st10" x1="360.8" y1="189.4" x2="379.7" y2="189.4"/>
	<line class="st11" x1="360.8" y1="232.1" x2="379.7" y2="232.1"/>
	<line class="st12" x1="360.8" y1="274.9" x2="379.7" y2="274.9"/>
	<line class="st13" x1="360.8" y1="321.2" x2="379.7" y2="321.2"/>
	<line class="st14" x1="360.8" y1="364.5" x2="379.7" y2="364.5"/>
</g>
</svg>
