<?xml version="1.0" encoding="utf-8"?>
<!-- Generator: Adobe Illustrator 27.7.0, SVG Export Plug-In . SVG Version: 6.00 Build 0)  -->
<svg version="1.1" id="Layer_1" xmlns="http://www.w3.org/2000/svg" xmlns:xlink="http://www.w3.org/1999/xlink" x="0px" y="0px"
	 viewBox="0 0 462.6 477" style="enable-background:new 0 0 462.6 477;" xml:space="preserve">
<style type="text/css">
	.st0{fill:none;stroke:#939598;stroke-width:2;}
	.st1{fill:none;stroke:url(#SVGID_1_);stroke-width:3;stroke-miterlimit:10;}
	.st2{fill:#9CBA3D;}
	.st3{fill:#E55A32;}
	.st4{fill:#005595;}
	.st5{fill:#FFFFFF;}
	.st6{fill:#4D4E4F;}
	.st7{fill:none;stroke:#005595;stroke-width:5;stroke-linecap:round;stroke-linejoin:round;}
	.st8{fill:none;stroke:#E55A32;stroke-width:5;stroke-linecap:round;stroke-linejoin:round;}
	.st9{fill:none;stroke:#9CBA3D;stroke-width:5;stroke-linecap:round;stroke-linejoin:round;}
	.st10{fill:#939598;}
</style>
<g>
	<line class="st0" x1="6" y1="5.1" x2="456.6" y2="5.1"/>
	<linearGradient id="SVGID_1_" gradientUnits="userSpaceOnUse" x1="5.9665" y1="46.1719" x2="456.5935" y2="46.1719">
		<stop  offset="0" style="stop-color:#E55B32"/>
		<stop  offset="0.2185" style="stop-color:#DA512E"/>
		<stop  offset="1" style="stop-color:#BD3726"/>
	</linearGradient>
	<polyline class="st1" points="6,46.2 456.6,46.2 456.6,46.2 6,46.2 	"/>
	<path class="st2" d="M140.5,239.3l-108.8-79c26.2-36,64.2-55.4,108.8-55.4V239.3z"/>
	<path class="st3" d="M140.5,239.3L77.3,358.1c-65.6-34.9-90.5-116.3-55.6-181.8c2.8-5.2,6.4-11.1,9.9-15.9L140.5,239.3z"/>
	<path class="st4" d="M140.5,239.3V104.9c74.3,0,134.5,60.2,134.5,134.5c0,74.3-60.2,134.5-134.5,134.5c-23.8,0-42.1-4.6-63.1-15.7
		L140.5,239.3z"/>
	<path class="st5" d="M140.4,361.1c66.4,0,120.2-54.5,120.2-121.7c0-67.2-53.8-121.7-120.2-121.7c-66.4,0-120.2,54.5-120.2,121.7
		C20.3,306.6,74.1,361.1,140.4,361.1"/>
	<path class="st0" d="M140.4,342.8c56.4,0,102.1-46.3,102.1-103.4c0-57.1-45.7-103.4-102.1-103.4c-56.4,0-102.1,46.3-102.1,103.4
		C38.3,296.5,84,342.8,140.4,342.8z"/>
	<g>
		<path class="st6" d="M122.1,196.8c-0.9,0-1.9,0-3.2,0.2c-6.8,0.8-10.1,5-11,9.5h0.2c1.6-1.9,4.1-3.2,7.3-3.2c5.6,0,10,4,10,10.6
			c0,6.2-4.6,11.7-11.5,11.7c-7.9,0-12.3-6-12.3-14.1c0-6.3,2.3-11.4,5.7-14.7c3-2.8,6.9-4.4,11.6-4.8c1.4-0.2,2.4-0.2,3.1-0.1
			L122.1,196.8z M119.2,214.4c0-3.8-2.1-6.5-5.7-6.5c-2.3,0-4.4,1.4-5.3,3.4c-0.3,0.5-0.4,1.1-0.4,2c0.1,4.3,2.2,7.8,6.1,7.8
			C117.1,221.1,119.2,218.3,119.2,214.4z"/>
		<path class="st6" d="M151.6,192.5v4l-13.8,28.7h-6.5l13.8-27.4v-0.1h-15.4v-5.1H151.6z"/>
		<path class="st6" d="M179.1,208.6c0,10.5-4.1,17.1-11.9,17.1c-7.5,0-11.6-6.8-11.6-16.8c0-10.1,4.3-17,12-17
			C175.5,191.9,179.1,199,179.1,208.6z M161.8,208.9c-0.1,7.9,2.2,12.1,5.6,12.1c3.6,0,5.5-4.4,5.5-12.3c0-7.6-1.8-12.1-5.5-12.1
			C164.1,196.6,161.8,200.7,161.8,208.9z"/>
	</g>
	<g>
		<path class="st6" d="M78.2,240.8H73v-1.9h12.5v1.9h-5.2v15.1h-2.2V240.8z"/>
		<path class="st6" d="M96.6,249.6c0,4.5-3.1,6.5-6.1,6.5c-3.3,0-5.8-2.4-5.8-6.3c0-4.1,2.7-6.5,6-6.5
			C94.2,243.4,96.6,245.9,96.6,249.6z M86.9,249.8c0,2.7,1.5,4.7,3.7,4.7c2.1,0,3.7-2,3.7-4.7c0-2.1-1-4.7-3.6-4.7
			C88.1,245,86.9,247.5,86.9,249.8z"/>
		<path class="st6" d="M102,240.2v3.5h3.2v1.7H102v6.6c0,1.5,0.4,2.4,1.7,2.4c0.6,0,1-0.1,1.3-0.2l0.1,1.7c-0.4,0.2-1.1,0.3-2,0.3
			c-1,0-1.9-0.3-2.4-0.9c-0.6-0.7-0.9-1.7-0.9-3.2v-6.6H98v-1.7h1.9v-2.9L102,240.2z"/>
		<path class="st6" d="M114.4,255.8l-0.2-1.5h-0.1c-0.7,1-2,1.8-3.7,1.8c-2.5,0-3.7-1.7-3.7-3.5c0-2.9,2.6-4.5,7.3-4.5v-0.3
			c0-1-0.3-2.8-2.8-2.8c-1.1,0-2.3,0.4-3.2,0.9l-0.5-1.5c1-0.7,2.5-1.1,4-1.1c3.7,0,4.6,2.5,4.6,5v4.5c0,1.1,0.1,2.1,0.2,2.9H114.4z
			 M114.1,249.6c-2.4,0-5.1,0.4-5.1,2.7c0,1.4,1,2.1,2.1,2.1c1.6,0,2.6-1,2.9-2c0.1-0.2,0.1-0.5,0.1-0.7V249.6z"/>
		<path class="st6" d="M119.8,238h2.2v17.8h-2.2V238z"/>
		<path class="st6" d="M133.3,238.9v16.9h-2.2v-16.9H133.3z"/>
		<path class="st6" d="M137.3,247c0-1.3,0-2.3-0.1-3.3h2l0.1,2h0.1c0.6-1.2,2-2.3,4-2.3c1.7,0,4.3,1,4.3,5.2v7.3h-2.2v-7
			c0-2-0.7-3.6-2.8-3.6c-1.5,0-2.6,1-3,2.3c-0.1,0.3-0.2,0.7-0.2,1v7.3h-2.2V247z"/>
		<path class="st6" d="M159.9,255.4c-0.6,0.3-1.9,0.7-3.5,0.7c-3.7,0-6.1-2.5-6.1-6.2c0-3.7,2.6-6.5,6.5-6.5c1.3,0,2.5,0.3,3.1,0.6
			l-0.5,1.7c-0.5-0.3-1.4-0.6-2.6-0.6c-2.8,0-4.3,2.1-4.3,4.6c0,2.8,1.8,4.5,4.2,4.5c1.3,0,2.1-0.3,2.7-0.6L159.9,255.4z"/>
		<path class="st6" d="M173.3,249.6c0,4.5-3.1,6.5-6.1,6.5c-3.3,0-5.8-2.4-5.8-6.3c0-4.1,2.7-6.5,6-6.5
			C171,243.4,173.3,245.9,173.3,249.6z M163.7,249.8c0,2.7,1.5,4.7,3.7,4.7c2.1,0,3.7-2,3.7-4.7c0-2.1-1-4.7-3.6-4.7
			C164.8,245,163.7,247.5,163.7,249.8z"/>
		<path class="st6" d="M176.1,247c0-1.3,0-2.3-0.1-3.3h1.9l0.1,2h0.1c0.7-1.2,1.8-2.2,3.8-2.2c1.7,0,2.9,1,3.4,2.4h0.1
			c0.4-0.7,0.9-1.2,1.4-1.6c0.7-0.6,1.5-0.9,2.7-0.9c1.6,0,4,1.1,4,5.3v7.2h-2.2v-6.9c0-2.3-0.9-3.7-2.6-3.7c-1.3,0-2.2,0.9-2.6,2
			c-0.1,0.3-0.2,0.7-0.2,1.1v7.5h-2.2v-7.3c0-1.9-0.9-3.3-2.5-3.3c-1.4,0-2.4,1.1-2.7,2.2c-0.1,0.3-0.2,0.7-0.2,1.1v7.3h-2.2V247z"
			/>
		<path class="st6" d="M198.3,250.1c0.1,3,2,4.2,4.2,4.2c1.6,0,2.5-0.3,3.4-0.6l0.4,1.6c-0.8,0.4-2.1,0.8-4,0.8c-3.7,0-6-2.5-6-6.1
			s2.2-6.6,5.7-6.6c4,0,5,3.5,5,5.7c0,0.5,0,0.8-0.1,1H198.3z M204.8,248.6c0-1.4-0.6-3.6-3.1-3.6c-2.2,0-3.2,2.1-3.4,3.6H204.8z"/>
	</g>
	<g>
		<path class="st6" d="M97.6,269.1c-1.8,2.5-3.2,5.7-3.2,10.3c0,4.5,1.4,7.7,3.2,10.2h-1.7c-1.6-2.1-3.3-5.3-3.3-10.2
			c0-4.9,1.7-8.2,3.3-10.3H97.6z"/>
	</g>
	<g>
		<path class="st6" d="M99.9,269h10v0c-0.6,1-0.9,1.6-1,1.7h-2.7c0.4,0.5,0.6,1.1,0.7,1.8h2.8c0,0,0,0,0,0c-0.6,1.1-1,1.6-1,1.6H107
			c0,0.5-0.3,1.2-0.7,2c-0.6,0.8-1.1,1.3-1.6,1.5c-1,0.5-1.9,0.8-2.8,0.8v0c0,0.1,0.2,0.4,0.6,1l4.9,6.8v0.3c0,0,0,0,0,0h-2.2
			c-3.9-5.2-5.9-7.8-5.9-7.8v-1.6l0-0.1c0.3,0.1,0.7,0.1,1.2,0.1c2.2,0,3.5-0.8,4.1-2.4c0.1-0.2,0.1-0.5,0.1-0.7h-5.9c0,0,0,0,0-0.1
			c0.7-1.1,1-1.6,1-1.6h4.7v0c-0.3-0.6-0.8-1.1-1.6-1.4c-0.6-0.2-1.1-0.3-1.5-0.3h-2.6v-0.1C99.5,269.6,99.8,269,99.9,269z"/>
	</g>
	<g>
		<path class="st6" d="M129.7,286c-0.8,0.4-2.4,0.8-4.5,0.8c-4.8,0-8.4-3-8.4-8.6c0-5.3,3.6-8.9,8.8-8.9c2.1,0,3.4,0.5,4,0.8
			l-0.5,1.8c-0.8-0.4-2-0.7-3.4-0.7c-4,0-6.6,2.5-6.6,7c0,4.1,2.4,6.8,6.5,6.8c1.3,0,2.7-0.3,3.6-0.7L129.7,286z"/>
		<path class="st6" d="M132.4,278.2c0-1.4,0-2.7-0.1-3.8h1.9l0.1,2.4h0.1c0.6-1.6,1.9-2.7,3.4-2.7c0.3,0,0.4,0,0.6,0.1v2.1
			c-0.2,0-0.5-0.1-0.8-0.1c-1.6,0-2.7,1.2-3,2.8c-0.1,0.3-0.1,0.7-0.1,1v6.5h-2.2V278.2z"/>
		<path class="st6" d="M151.3,280.3c0,4.5-3.1,6.5-6.1,6.5c-3.3,0-5.8-2.4-5.8-6.3c0-4.1,2.7-6.5,6-6.5
			C149,274.1,151.3,276.6,151.3,280.3z M141.7,280.5c0,2.7,1.5,4.7,3.7,4.7c2.1,0,3.7-2,3.7-4.7c0-2.1-1-4.7-3.6-4.7
			C142.8,275.7,141.7,278.2,141.7,280.5z"/>
		<path class="st6" d="M154.1,278.2c0-1.4,0-2.7-0.1-3.8h1.9l0.1,2.4h0.1c0.6-1.6,1.9-2.7,3.4-2.7c0.3,0,0.4,0,0.6,0.1v2.1
			c-0.2,0-0.5-0.1-0.8-0.1c-1.6,0-2.7,1.2-3,2.8c-0.1,0.3-0.1,0.7-0.1,1v6.5h-2.2V278.2z"/>
		<path class="st6" d="M163.3,280.8c0.1,3,2,4.2,4.2,4.2c1.6,0,2.5-0.3,3.4-0.6l0.4,1.6c-0.8,0.4-2.1,0.8-4,0.8c-3.7,0-6-2.5-6-6.1
			s2.2-6.6,5.7-6.6c4,0,5,3.5,5,5.7c0,0.5,0,0.8-0.1,1H163.3z M169.8,279.3c0-1.4-0.6-3.6-3.1-3.6c-2.2,0-3.2,2.1-3.4,3.6H169.8z"/>
		<path class="st6" d="M174.4,284.3c0.7,0.4,1.8,0.9,2.9,0.9c1.6,0,2.4-0.8,2.4-1.8c0-1.1-0.6-1.6-2.3-2.2c-2.2-0.8-3.2-2-3.2-3.4
			c0-2,1.6-3.6,4.2-3.6c1.2,0,2.3,0.4,3,0.8l-0.6,1.6c-0.5-0.3-1.4-0.7-2.5-0.7c-1.3,0-2,0.8-2,1.7c0,1,0.7,1.5,2.3,2.1
			c2.1,0.8,3.2,1.9,3.2,3.7c0,2.1-1.7,3.6-4.5,3.6c-1.3,0-2.6-0.3-3.4-0.8L174.4,284.3z"/>
		<path class="st6" d="M183.3,289.6c1.8-2.5,3.2-5.8,3.2-10.3c0-4.5-1.4-7.7-3.2-10.2h1.7c1.6,2.1,3.3,5.3,3.3,10.2
			c0,4.9-1.7,8.1-3.3,10.2H183.3z"/>
	</g>
	<g>
		<g>
			<path class="st6" d="M42.5,408c0.9-0.2,2.2-0.3,3.7-0.3c1.9,0,3.3,0.4,4.2,1.3c0.8,0.7,1.3,1.8,1.3,3.1c0,1.4-0.4,2.4-1.2,3.2
				c-1,1.1-2.7,1.7-4.6,1.7c-0.6,0-1.1,0-1.6-0.1v6h-1.9V408z M44.4,415.2c0.4,0.1,1,0.2,1.6,0.2c2.3,0,3.8-1.1,3.8-3.2
				c0-2-1.4-2.9-3.5-2.9c-0.8,0-1.5,0.1-1.8,0.2V415.2z"/>
			<path class="st6" d="M54,415.4c0-1.3,0-2.4-0.1-3.4h1.7l0.1,2.1h0.1c0.5-1.5,1.7-2.4,3-2.4c0.2,0,0.4,0,0.6,0.1v1.9
				c-0.2,0-0.4-0.1-0.7-0.1c-1.4,0-2.4,1-2.6,2.5c0,0.3-0.1,0.6-0.1,0.9v5.8H54V415.4z"/>
			<path class="st6" d="M63.5,409c0,0.7-0.5,1.2-1.2,1.2c-0.7,0-1.2-0.5-1.2-1.2c0-0.7,0.5-1.2,1.2-1.2
				C63.1,407.8,63.5,408.3,63.5,409z M61.3,422.8V412h2v10.8H61.3z"/>
			<path class="st6" d="M66.6,415c0-1.1,0-2-0.1-2.9h1.7l0.1,1.7h0.1c0.6-1,1.6-2,3.4-2c1.5,0,2.6,0.9,3.1,2.2h0
				c0.3-0.6,0.8-1.1,1.2-1.4c0.6-0.5,1.4-0.8,2.4-0.8c1.4,0,3.5,0.9,3.5,4.7v6.4h-1.9v-6.1c0-2.1-0.8-3.3-2.3-3.3
				c-1.1,0-2,0.8-2.3,1.8c-0.1,0.3-0.2,0.6-0.2,1v6.7h-1.9v-6.5c0-1.7-0.8-3-2.3-3c-1.2,0-2.1,1-2.4,2c-0.1,0.3-0.2,0.6-0.2,1v6.5
				h-1.9V415z"/>
			<path class="st6" d="M86.3,417.8c0,2.7,1.7,3.8,3.7,3.8c1.4,0,2.3-0.2,3-0.6l0.3,1.4c-0.7,0.3-1.9,0.7-3.6,0.7
				c-3.3,0-5.3-2.2-5.3-5.4c0-3.3,1.9-5.8,5.1-5.8c3.5,0,4.5,3.1,4.5,5.1c0,0.4,0,0.7-0.1,0.9H86.3z M92,416.4
				c0-1.2-0.5-3.2-2.7-3.2c-2,0-2.9,1.8-3,3.2H92z"/>
		</g>
		<g>
			<path class="st6" d="M111.5,409.1h-6.3l-0.5,3.3c0.4-0.1,0.7-0.1,1.2-0.1c1.4,0,2.9,0.3,4,1.1c1.2,0.8,2.1,2.2,2.1,4.1
				c0,3.1-2.6,5.7-6.6,5.7c-1.9,0-3.5-0.5-4.3-1l0.6-2.3c0.7,0.4,2.1,0.9,3.6,0.9c1.8,0,3.5-1,3.5-3c0-1.9-1.4-3.1-4.6-3.1
				c-0.9,0-1.6,0.1-2.2,0.2l1.1-8.2h8.4V409.1z"/>
			<path class="st6" d="M114.4,418.6c0-2,1.2-3.4,3.1-4.2v-0.1c-1.7-0.8-2.5-2.2-2.5-3.6c0-2.7,2.4-4.5,5.5-4.5
				c3.5,0,5.1,2.1,5.1,4.1c0,1.4-0.7,2.8-2.5,3.7v0.1c1.8,0.7,3.1,2.1,3.1,4.1c0,2.9-2.5,4.9-6,4.9
				C116.4,423.1,114.4,420.9,114.4,418.6z M123,418.5c0-1.7-1.2-2.6-3-3.1c-1.5,0.5-2.4,1.5-2.4,2.9c-0.1,1.4,1,2.6,2.7,2.6
				C121.9,420.9,123,419.9,123,418.5z M117.9,410.6c0,1.3,1.1,2.1,2.7,2.6c1.1-0.3,2-1.2,2-2.5c0-1.1-0.7-2.3-2.3-2.3
				C118.7,408.4,117.9,409.4,117.9,410.6z"/>
			<path class="st6" d="M136.1,411.1c0,3.4-2,5.2-4.2,5.2c-2.3,0-4.1-1.8-4.2-4.9c0-3.1,1.8-5.1,4.3-5.1
				C134.6,406.2,136.1,408.1,136.1,411.1z M130,411.3c0,1.9,0.7,3.3,1.9,3.3c1.2,0,1.8-1.3,1.8-3.3c0-1.8-0.5-3.3-1.8-3.3
				C130.7,408,130,409.4,130,411.3z M131.9,423.1l9.5-16.9h1.8l-9.5,16.9H131.9z M147.4,417.9c0,3.4-2,5.2-4.2,5.2
				c-2.3,0-4.1-1.8-4.1-4.9c0-3.1,1.8-5.1,4.3-5.1C145.8,413,147.4,414.9,147.4,417.9z M141.3,418c0,1.9,0.7,3.3,1.9,3.3
				c1.3,0,1.8-1.3,1.8-3.3c0-1.8-0.5-3.3-1.8-3.3C141.9,414.7,141.3,416.2,141.3,418z"/>
		</g>
		<line class="st7" x1="10.3" y1="416.2" x2="27.7" y2="416.2"/>
	</g>
	<g>
		<g>
			<path class="st6" d="M209.2,419.7c0.9,0.5,2.1,1,3.5,1c2,0,3.1-1,3.1-2.6c0-1.4-0.8-2.2-2.8-3c-2.5-0.9-4-2.1-4-4.3
				c0-2.3,1.9-4.1,4.9-4.1c1.5,0,2.7,0.4,3.3,0.7l-0.5,1.6c-0.5-0.3-1.5-0.7-2.9-0.7c-2.1,0-2.8,1.2-2.8,2.3c0,1.4,0.9,2.1,3,2.9
				c2.5,1,3.8,2.2,3.8,4.4c0,2.3-1.7,4.3-5.3,4.3c-1.5,0-3-0.4-3.8-1L209.2,419.7z"/>
			<path class="st6" d="M220.4,414.7c0-1.4,0-2.5-0.1-3.5h1.8l0.1,1.9h0c0.8-1.3,2.1-2.1,3.8-2.1c2.6,0,4.6,2.2,4.6,5.5
				c0,3.9-2.4,5.8-4.9,5.8c-1.4,0-2.7-0.6-3.3-1.7h0v5.9h-1.9V414.7z M222.3,417.6c0,0.3,0,0.6,0.1,0.8c0.4,1.4,1.5,2.3,2.9,2.3
				c2.1,0,3.3-1.7,3.3-4.2c0-2.2-1.1-4-3.2-4c-1.3,0-2.6,1-3,2.4c-0.1,0.2-0.1,0.5-0.1,0.8V417.6z"/>
			<path class="st6" d="M234.2,417c0,2.7,1.7,3.8,3.7,3.8c1.4,0,2.3-0.2,3-0.6l0.3,1.4c-0.7,0.3-1.9,0.7-3.6,0.7
				c-3.3,0-5.3-2.2-5.3-5.4c0-3.3,1.9-5.8,5.1-5.8c3.5,0,4.5,3.1,4.5,5.1c0,0.4,0,0.7-0.1,0.9H234.2z M240,415.6
				c0-1.2-0.5-3.2-2.7-3.2c-2,0-2.9,1.8-3,3.2H240z"/>
			<path class="st6" d="M252,421.6c-0.5,0.3-1.7,0.6-3.1,0.6c-3.3,0-5.4-2.2-5.4-5.5c0-3.3,2.3-5.7,5.8-5.7c1.2,0,2.2,0.3,2.7,0.6
				l-0.4,1.5c-0.5-0.3-1.2-0.5-2.3-0.5c-2.5,0-3.8,1.8-3.8,4.1c0,2.5,1.6,4,3.8,4c1.1,0,1.9-0.3,2.4-0.5L252,421.6z"/>
			<path class="st6" d="M256.5,408.2c0,0.7-0.5,1.2-1.2,1.2c-0.7,0-1.2-0.5-1.2-1.2c0-0.7,0.5-1.2,1.2-1.2
				C256,406.9,256.5,407.5,256.5,408.2z M254.3,422v-10.8h2V422H254.3z"/>
			<path class="st6" d="M265.5,422l-0.2-1.4h-0.1c-0.6,0.8-1.8,1.6-3.3,1.6c-2.2,0-3.3-1.5-3.3-3.1c0-2.6,2.3-4,6.5-4v-0.2
				c0-0.9-0.2-2.5-2.5-2.5c-1,0-2.1,0.3-2.8,0.8l-0.4-1.3c0.9-0.6,2.2-1,3.5-1c3.3,0,4.1,2.3,4.1,4.4v4c0,0.9,0,1.9,0.2,2.6H265.5z
				 M265.2,416.5c-2.1,0-4.6,0.3-4.6,2.4c0,1.3,0.8,1.9,1.9,1.9c1.4,0,2.3-0.9,2.6-1.8c0.1-0.2,0.1-0.4,0.1-0.6V416.5z"/>
			<path class="st6" d="M270.3,406.2h2V422h-2V406.2z"/>
			<path class="st6" d="M277.9,408.1v3.1h2.8v1.5h-2.8v5.8c0,1.3,0.4,2.1,1.5,2.1c0.5,0,0.9-0.1,1.1-0.1l0.1,1.5
				c-0.4,0.2-1,0.3-1.7,0.3c-0.9,0-1.7-0.3-2.1-0.8c-0.6-0.6-0.8-1.5-0.8-2.8v-5.9h-1.7v-1.5h1.7v-2.6L277.9,408.1z"/>
			<path class="st6" d="M283.8,411.2l2.4,6.4c0.2,0.7,0.5,1.6,0.7,2.2h0c0.2-0.6,0.4-1.5,0.7-2.3l2.1-6.3h2.1l-2.9,7.7
				c-1.4,3.7-2.4,5.6-3.7,6.8c-1,0.8-1.9,1.2-2.4,1.3l-0.5-1.7c0.5-0.2,1.1-0.5,1.7-1c0.5-0.4,1.2-1.2,1.7-2.2
				c0.1-0.2,0.2-0.4,0.2-0.5s0-0.3-0.1-0.5l-4-10H283.8z"/>
		</g>
		<g>
			<path class="st6" d="M298.4,422.8V421l1.9-1.8c3.8-3.6,5.7-5.5,5.7-7.7c0-1.5-0.8-2.7-2.9-2.7c-1.4,0-2.7,0.7-3.5,1.4l-0.9-2.2
				c1.2-1,3-1.7,5-1.7c3.6,0,5.4,2.3,5.4,4.9c0,2.9-2.1,5.2-4.9,7.8l-1.4,1.2v0.1h6.7v2.6H298.4z"/>
			<path class="st6" d="M323.1,406.5v2l-6.9,14.3h-3.3l6.9-13.7v-0.1h-7.7v-2.6H323.1z"/>
			<path class="st6" d="M333.4,411.1c0,3.4-2,5.2-4.2,5.2c-2.3,0-4.1-1.8-4.2-4.9c0-3.1,1.8-5.1,4.3-5.1
				C331.8,406.2,333.4,408.1,333.4,411.1z M327.3,411.3c0,1.9,0.7,3.3,1.9,3.3c1.2,0,1.8-1.3,1.8-3.3c0-1.8-0.5-3.3-1.8-3.3
				C328,408,327.3,409.4,327.3,411.3z M329.2,423.1l9.5-16.9h1.8l-9.5,16.9H329.2z M344.6,417.9c0,3.4-2,5.2-4.2,5.2
				c-2.3,0-4.1-1.8-4.1-4.9c0-3.1,1.8-5.1,4.3-5.1C343.1,413,344.6,414.9,344.6,417.9z M338.6,418c0,1.9,0.7,3.3,1.9,3.3
				c1.3,0,1.8-1.3,1.8-3.3c0-1.8-0.5-3.3-1.8-3.3C339.2,414.8,338.6,416.2,338.6,418z"/>
		</g>
		<line class="st8" x1="177.3" y1="415.5" x2="194.7" y2="415.5"/>
	</g>
	<g>
		<g>
			<path class="st6" d="M51.9,465.3c-0.7,0.4-2.1,0.7-4,0.7c-4.2,0-7.4-2.7-7.4-7.6c0-4.7,3.2-7.9,7.9-7.9c1.9,0,3.1,0.4,3.6,0.7
				l-0.5,1.6c-0.7-0.4-1.8-0.6-3-0.6c-3.5,0-5.9,2.3-5.9,6.2c0,3.7,2.1,6,5.8,6c1.2,0,2.4-0.2,3.2-0.6L51.9,465.3z"/>
			<path class="st6" d="M67,459.2c-0.1-2.1-0.2-4.6-0.2-6.5h-0.1c-0.5,1.8-1.1,3.6-1.9,5.7l-2.7,7.3h-1.5l-2.4-7.2
				c-0.7-2.1-1.3-4.1-1.7-5.8h0c0,1.9-0.2,4.4-0.3,6.7l-0.4,6.5h-1.9l1-15h2.5l2.6,7.3c0.6,1.9,1.1,3.5,1.5,5.1h0.1
				c0.4-1.5,0.9-3.2,1.6-5.1l2.7-7.3h2.5l0.9,15h-1.9L67,459.2z"/>
			<path class="st6" d="M72,463.5c0.9,0.5,2.1,1,3.5,1c2,0,3.1-1,3.1-2.6c0-1.4-0.8-2.2-2.8-3c-2.5-0.9-4-2.1-4-4.3
				c0-2.3,1.9-4.1,4.9-4.1c1.5,0,2.7,0.4,3.3,0.7l-0.5,1.6c-0.5-0.3-1.5-0.7-2.9-0.7c-2.1,0-2.8,1.2-2.8,2.3c0,1.4,0.9,2.1,3,2.9
				c2.5,1,3.8,2.2,3.8,4.4c0,2.3-1.7,4.3-5.3,4.3c-1.5,0-3-0.4-3.8-1L72,463.5z"/>
		</g>
		<g>
			<path class="st6" d="M92.8,453.1L92.8,453.1l-3,1.5l-0.5-2.3l4-2h2.6v16.3h-3V453.1z"/>
			<path class="st6" d="M111.8,452.9h-6.3l-0.5,3.3c0.4-0.1,0.7-0.1,1.2-0.1c1.4,0,2.9,0.3,4,1.1c1.2,0.8,2.1,2.2,2.1,4.1
				c0,3.1-2.6,5.7-6.6,5.7c-1.9,0-3.5-0.5-4.3-1l0.6-2.3c0.7,0.4,2.1,0.9,3.6,0.9c1.8,0,3.5-1,3.5-3c0-1.9-1.4-3.1-4.6-3.1
				c-0.9,0-1.6,0.1-2.2,0.2l1.1-8.2h8.4V452.9z"/>
			<path class="st6" d="M122.9,454.9c0,3.4-2,5.2-4.2,5.2c-2.3,0-4.1-1.8-4.2-4.9c0-3.1,1.8-5.1,4.3-5.1
				C121.4,450,122.9,451.9,122.9,454.9z M116.9,455.1c0,1.9,0.7,3.3,1.9,3.3c1.2,0,1.8-1.3,1.8-3.3c0-1.8-0.5-3.3-1.8-3.3
				C117.5,451.8,116.9,453.2,116.9,455.1z M118.7,466.9l9.5-16.9h1.8l-9.5,16.9H118.7z M134.2,461.7c0,3.4-2,5.2-4.2,5.2
				c-2.3,0-4.1-1.8-4.1-4.9c0-3.1,1.8-5.1,4.3-5.1C132.7,456.8,134.2,458.7,134.2,461.7z M128.1,461.8c0,1.9,0.7,3.3,1.9,3.3
				c1.3,0,1.8-1.3,1.8-3.3c0-1.8-0.5-3.3-1.8-3.3C128.8,458.6,128.1,460,128.1,461.8z"/>
		</g>
		<line class="st9" x1="9.2" y1="459.3" x2="26.6" y2="459.3"/>
	</g>
	<g>
		<path class="st10" d="M190.9,16.7h10.3v3.1h-6.5v3.9h6.1v3.1h-6.1v6.8h-3.8V16.7z"/>
		<path class="st10" d="M208,33.6v-6.9l-5.3-10h4.4l1.7,4.1c0.5,1.2,0.9,2.1,1.3,3.2h0.1c0.4-1.1,0.8-2,1.3-3.2l1.7-4.1h4.3
			l-5.6,9.9v7.1H208z"/>
		<path class="st10" d="M223.7,33.6v-2.3l2.1-1.9c3.6-3.2,5.3-5,5.3-6.9c0-1.3-0.8-2.4-2.7-2.4c-1.4,0-2.6,0.7-3.5,1.4l-1.1-2.7
			c1.2-0.9,3.1-1.7,5.3-1.7c3.7,0,5.7,2.2,5.7,5.1c0,2.7-2,4.9-4.3,7l-1.5,1.3v0.1h6.2v3.1H223.7z"/>
		<path class="st10" d="M249.7,25.4c0,5-2,8.5-6.2,8.5c-4.2,0-6.1-3.8-6.1-8.4c0-4.7,2-8.5,6.2-8.5C248,17,249.7,20.9,249.7,25.4z
			 M241.3,25.5c0,3.7,0.9,5.5,2.4,5.5c1.5,0,2.3-1.9,2.3-5.6c0-3.6-0.8-5.5-2.3-5.5C242.2,19.9,241.2,21.7,241.3,25.5z"/>
		<path class="st10" d="M256.5,20.7L256.5,20.7l-3.2,1.5l-0.6-2.9l4.3-2h3.2v16.3h-3.7V20.7z"/>
		<path class="st10" d="M266.7,30.8c0.5,0.1,0.9,0.1,1.7,0c1.2-0.1,2.3-0.4,3.2-1c1.1-0.7,1.8-1.8,2.1-3l-0.1,0
			c-0.7,0.8-1.8,1.2-3.3,1.2c-2.8,0-5.1-1.9-5.1-5.1c0-3.2,2.6-5.9,6.2-5.9c4.2,0,6.2,3.2,6.2,7c0,3.4-1.1,5.9-2.9,7.5
			c-1.6,1.4-3.7,2.2-6.2,2.3c-0.7,0.1-1.3,0-1.7,0V30.8z M269.1,22.7c0,1.4,0.8,2.6,2.3,2.6c1,0,1.8-0.5,2.1-1.1
			c0.1-0.2,0.2-0.5,0.2-1c0-1.7-0.7-3.4-2.4-3.4C270,19.8,269,20.9,269.1,22.7z"/>
	</g>
</g>
</svg>
