<?xml version="1.0" encoding="utf-8"?>
<!-- Generator: Adobe Illustrator 27.7.0, SVG Export Plug-In . SVG Version: 6.00 Build 0)  -->
<svg version="1.1" id="Layer_1" xmlns="http://www.w3.org/2000/svg" xmlns:xlink="http://www.w3.org/1999/xlink" x="0px" y="0px"
	 viewBox="0 0 462.6 477" style="enable-background:new 0 0 462.6 477;" xml:space="preserve">
<style type="text/css">
	.st0{fill:none;stroke:#939598;stroke-width:2;}
	.st1{fill:none;stroke:url(#SVGID_1_);stroke-width:3;stroke-miterlimit:10;}
	.st2{fill:#9CBA3D;}
	.st3{fill:#E55A32;}
	.st4{fill:#005595;}
	.st5{fill:#FFFFFF;}
	.st6{fill:#4D4E4F;}
	.st7{fill:none;stroke:#005595;stroke-width:5;stroke-linecap:round;stroke-linejoin:round;}
	.st8{fill:none;stroke:#E55A32;stroke-width:5;stroke-linecap:round;stroke-linejoin:round;}
	.st9{fill:none;stroke:#9CBA3D;stroke-width:5;stroke-linecap:round;stroke-linejoin:round;}
	.st10{fill:#939598;}
</style>
<g>
	<line class="st0" x1="5.9" y1="7.4" x2="457.1" y2="7.4"/>
	<linearGradient id="SVGID_1_" gradientUnits="userSpaceOnUse" x1="5.8906" y1="48.6115" x2="457.0945" y2="48.6115">
		<stop  offset="0" style="stop-color:#E55B32"/>
		<stop  offset="0.2185" style="stop-color:#DA512E"/>
		<stop  offset="1" style="stop-color:#BD3726"/>
	</linearGradient>
	<polyline class="st1" points="5.9,48.6 457.1,48.6 457.1,48.6 5.9,48.6 	"/>
	<path class="st2" d="M140.7,241.9L54.2,138.9c25-21,53.8-31.5,86.5-31.5V241.9z"/>
	<path class="st3" d="M140.7,241.9L10.7,276.7c-13.8-51.7,2.5-103.5,43.5-137.9L140.7,241.9z"/>
	<path class="st4" d="M140.7,241.9V107.4c74.3,0,134.5,60.2,134.5,134.5c0,74.3-60.2,134.5-134.5,134.5
		c-62.4,0-113.8-39.4-129.9-99.7L140.7,241.9z"/>
	<path class="st5" d="M140.5,363.8c66.5,0,120.3-54.6,120.3-121.9c0-67.3-53.9-121.9-120.3-121.9S20.2,174.6,20.2,241.9
		C20.2,309.2,74.1,363.8,140.5,363.8"/>
	<path class="st0" d="M140.5,345.5c56.5,0,102.3-46.4,102.3-103.6c0-57.2-45.8-103.6-102.3-103.6S38.3,184.7,38.3,241.9
		C38.3,299.1,84.1,345.5,140.5,345.5z"/>
	<g>
		<path class="st6" d="M115.9,227.8v-8.3h-14.8v-4l13.3-20.4h7.3v19.7h4.2v4.7h-4.2v8.3H115.9z M115.9,214.8v-8.9
			c0-1.9,0.1-3.8,0.2-5.7h-0.2c-1,2.1-1.9,3.7-2.9,5.5l-6,9l-0.1,0.1H115.9z"/>
		<path class="st6" d="M149.1,199.5c-0.9,0-1.9,0-3.2,0.2c-6.8,0.8-10.2,5-11,9.6h0.2c1.6-1.9,4.1-3.2,7.3-3.2c5.6,0,10,4,10,10.7
			c0,6.2-4.6,11.7-11.5,11.7c-7.9,0-12.3-6-12.3-14.1c0-6.3,2.3-11.4,5.7-14.7c3-2.8,6.9-4.4,11.6-4.8c1.4-0.2,2.4-0.2,3.1-0.1
			L149.1,199.5z M146.2,217c0-3.8-2.1-6.5-5.7-6.5c-2.3,0-4.4,1.4-5.3,3.4c-0.3,0.5-0.4,1.1-0.4,2c0.1,4.3,2.2,7.8,6.1,7.8
			C144.2,223.7,146.2,221,146.2,217z"/>
		<path class="st6" d="M158.7,223.4c1,0.1,1.9,0.1,3.4-0.1c2.4-0.2,4.8-1.1,6.6-2.5c2.1-1.7,3.6-4.2,4.2-7.2l-0.1-0.1
			c-1.7,1.9-4,2.9-7.1,2.9c-5.7,0-9.9-4.1-9.9-10.2c0-6.2,4.8-11.7,11.8-11.7c7.6,0,11.7,6,11.7,13.9c0,7-2.3,12-5.7,15.2
			c-2.9,2.7-6.8,4.2-11.2,4.5c-1.4,0.2-2.8,0.2-3.7,0.1V223.4z M161.9,205.9c0.1,3.4,2,6,5.4,6c2.5,0,4.3-1.2,5.3-2.7
			c0.2-0.4,0.4-0.9,0.4-1.8c0.1-4.4-1.6-8.2-5.6-8.2C164.2,199.1,161.9,201.9,161.9,205.9z"/>
	</g>
	<g>
		<path class="st6" d="M78.2,243.4H73v-1.9h12.5v1.9h-5.2v15.1h-2.2V243.4z"/>
		<path class="st6" d="M96.7,252.3c0,4.5-3.1,6.5-6.1,6.5c-3.3,0-5.8-2.4-5.8-6.3c0-4.1,2.7-6.5,6-6.5
			C94.3,246.1,96.7,248.6,96.7,252.3z M87,252.5c0,2.7,1.5,4.7,3.7,4.7c2.1,0,3.7-2,3.7-4.7c0-2.1-1-4.7-3.6-4.7
			C88.1,247.7,87,250.2,87,252.5z"/>
		<path class="st6" d="M102.1,242.9v3.5h3.2v1.7h-3.2v6.6c0,1.5,0.4,2.4,1.7,2.4c0.6,0,1-0.1,1.3-0.2l0.1,1.7
			c-0.4,0.2-1.1,0.3-2,0.3c-1,0-1.9-0.3-2.4-0.9c-0.6-0.7-0.9-1.7-0.9-3.2V248h-1.9v-1.7h1.9v-2.9L102.1,242.9z"/>
		<path class="st6" d="M114.5,258.5l-0.2-1.5h-0.1c-0.7,1-2,1.8-3.7,1.8c-2.5,0-3.7-1.7-3.7-3.5c0-2.9,2.6-4.6,7.3-4.5v-0.3
			c0-1-0.3-2.8-2.8-2.8c-1.1,0-2.3,0.4-3.2,0.9l-0.5-1.5c1-0.7,2.5-1.1,4-1.1c3.7,0,4.6,2.5,4.6,5v4.6c0,1.1,0.1,2.1,0.2,2.9H114.5z
			 M114.2,252.3c-2.4-0.1-5.2,0.4-5.2,2.7c0,1.4,1,2.1,2.1,2.1c1.6,0,2.6-1,2.9-2c0.1-0.2,0.1-0.5,0.1-0.7V252.3z"/>
		<path class="st6" d="M119.9,240.7h2.2v17.9h-2.2V240.7z"/>
		<path class="st6" d="M133.4,241.6v16.9h-2.2v-16.9H133.4z"/>
		<path class="st6" d="M137.4,249.7c0-1.3,0-2.3-0.1-3.3h2l0.1,2h0.1c0.6-1.2,2-2.3,4-2.3c1.7,0,4.3,1,4.3,5.2v7.3h-2.2v-7
			c0-2-0.7-3.6-2.8-3.6c-1.5,0-2.6,1-3,2.3c-0.1,0.3-0.2,0.7-0.2,1v7.3h-2.2V249.7z"/>
		<path class="st6" d="M160,258.1c-0.6,0.3-1.9,0.7-3.5,0.7c-3.7,0-6.1-2.5-6.1-6.2c0-3.7,2.6-6.5,6.5-6.5c1.3,0,2.5,0.3,3.1,0.6
			l-0.5,1.7c-0.5-0.3-1.4-0.6-2.6-0.6c-2.8,0-4.3,2.1-4.3,4.6c0,2.8,1.8,4.6,4.2,4.6c1.3,0,2.1-0.3,2.7-0.6L160,258.1z"/>
		<path class="st6" d="M173.5,252.3c0,4.5-3.1,6.5-6.1,6.5c-3.3,0-5.8-2.4-5.8-6.3c0-4.1,2.7-6.5,6-6.5
			C171.1,246.1,173.5,248.6,173.5,252.3z M163.9,252.5c0,2.7,1.5,4.7,3.7,4.7c2.1,0,3.7-2,3.7-4.7c0-2.1-1-4.7-3.6-4.7
			C165,247.7,163.9,250.2,163.9,252.5z"/>
		<path class="st6" d="M176.3,249.7c0-1.3,0-2.3-0.1-3.3h1.9l0.1,2h0.1c0.7-1.2,1.8-2.2,3.8-2.2c1.7,0,2.9,1,3.4,2.4h0.1
			c0.4-0.7,0.9-1.2,1.4-1.6c0.7-0.6,1.5-0.9,2.7-0.9c1.6,0,4,1.1,4,5.3v7.2h-2.2v-6.9c0-2.3-0.9-3.7-2.6-3.7c-1.3,0-2.2,0.9-2.6,2
			c-0.1,0.3-0.2,0.7-0.2,1.1v7.5h-2.2v-7.3c0-1.9-0.9-3.3-2.5-3.3c-1.4,0-2.4,1.1-2.7,2.2c-0.1,0.3-0.2,0.7-0.2,1.1v7.3h-2.2V249.7z
			"/>
		<path class="st6" d="M198.5,252.8c0.1,3,2,4.2,4.2,4.2c1.6,0,2.5-0.3,3.4-0.6l0.4,1.6c-0.8,0.4-2.1,0.8-4,0.8c-3.7,0-6-2.5-6-6.1
			c0-3.7,2.2-6.6,5.7-6.6c4,0,5,3.5,5,5.7c0,0.5-0.1,0.8-0.1,1H198.5z M205,251.3c0-1.4-0.6-3.6-3.1-3.6c-2.2,0-3.2,2.1-3.4,3.6H205
			z"/>
	</g>
	<g>
		<path class="st6" d="M97.2,271.8c-1.8,2.5-3.2,5.7-3.2,10.3c0,4.5,1.4,7.7,3.2,10.2h-1.7c-1.6-2.1-3.3-5.3-3.3-10.2
			c0-5,1.7-8.2,3.3-10.3H97.2z"/>
	</g>
	<g>
		<path class="st6" d="M99.5,271.8h10v0c-0.6,1-0.9,1.6-1,1.7h-2.7c0.4,0.5,0.6,1.1,0.7,1.8h2.8c0,0,0,0,0,0c-0.6,1.1-1,1.6-1,1.6
			h-1.8c0,0.5-0.3,1.2-0.7,2c-0.6,0.8-1.1,1.3-1.6,1.5c-1,0.5-1.9,0.8-2.8,0.8v0c0,0.1,0.2,0.4,0.7,1l4.9,6.8v0.3c0,0,0,0,0,0h-2.2
			c-3.9-5.2-5.9-7.8-5.9-7.8V280l0-0.1c0.3,0.1,0.7,0.1,1.2,0.1c2.2,0,3.5-0.8,4.1-2.4c0.1-0.2,0.1-0.5,0.1-0.7h-5.9c0,0,0,0,0-0.1
			c0.7-1.1,1-1.6,1-1.6h4.7v0c-0.3-0.6-0.8-1.1-1.6-1.4c-0.6-0.2-1.1-0.3-1.5-0.3h-2.6v-0.1C99.1,272.3,99.4,271.8,99.5,271.8z"/>
	</g>
	<g>
		<path class="st6" d="M130.3,288.7c-0.8,0.4-2.4,0.8-4.5,0.8c-4.8,0-8.4-3-8.4-8.6c0-5.3,3.6-8.9,8.9-8.9c2.1,0,3.4,0.5,4,0.8
			l-0.5,1.8c-0.8-0.4-2-0.7-3.4-0.7c-4,0-6.6,2.5-6.6,7c0,4.1,2.4,6.8,6.5,6.8c1.3,0,2.7-0.3,3.6-0.7L130.3,288.7z"/>
		<path class="st6" d="M132.9,280.9c0-1.4,0-2.7-0.1-3.8h1.9l0.1,2.4h0.1c0.6-1.6,1.9-2.7,3.4-2.7c0.3,0,0.4,0,0.6,0.1v2.1
			c-0.2-0.1-0.5-0.1-0.8-0.1c-1.6,0-2.7,1.2-3,2.8c-0.1,0.3-0.1,0.7-0.1,1v6.5h-2.2V280.9z"/>
		<path class="st6" d="M151.9,283.1c0,4.5-3.1,6.5-6.1,6.5c-3.3,0-5.8-2.4-5.8-6.3c0-4.1,2.7-6.5,6-6.5
			C149.5,276.8,151.9,279.4,151.9,283.1z M142.2,283.2c0,2.7,1.5,4.7,3.7,4.7c2.1,0,3.7-2,3.7-4.7c0-2.1-1-4.7-3.6-4.7
			C143.4,278.5,142.2,280.9,142.2,283.2z"/>
		<path class="st6" d="M154.7,280.9c0-1.4,0-2.7-0.1-3.8h1.9l0.1,2.4h0.1c0.6-1.6,1.9-2.7,3.4-2.7c0.3,0,0.4,0,0.6,0.1v2.1
			c-0.2-0.1-0.5-0.1-0.8-0.1c-1.6,0-2.7,1.2-3,2.8c-0.1,0.3-0.1,0.7-0.1,1v6.5h-2.2V280.9z"/>
		<path class="st6" d="M163.9,283.6c0.1,3,2,4.2,4.2,4.2c1.6,0,2.5-0.3,3.4-0.6l0.4,1.6c-0.8,0.4-2.1,0.8-4,0.8c-3.7,0-6-2.5-6-6.1
			c0-3.7,2.2-6.6,5.7-6.6c4,0,5,3.5,5,5.7c0,0.5-0.1,0.8-0.1,1H163.9z M170.4,282c0-1.4-0.6-3.6-3.1-3.6c-2.2,0-3.2,2.1-3.4,3.6
			H170.4z"/>
		<path class="st6" d="M175,287c0.7,0.4,1.8,0.9,2.9,0.9c1.6,0,2.4-0.8,2.4-1.8c0-1.1-0.6-1.6-2.3-2.2c-2.2-0.8-3.2-2-3.2-3.4
			c0-2,1.6-3.6,4.2-3.6c1.2,0,2.3,0.4,3,0.8l-0.6,1.6c-0.5-0.3-1.4-0.7-2.5-0.7c-1.3,0-2,0.8-2,1.7c0,1,0.7,1.5,2.3,2.1
			c2.1,0.8,3.2,1.9,3.2,3.7c0,2.1-1.7,3.6-4.6,3.6c-1.3,0-2.6-0.3-3.4-0.8L175,287z"/>
		<path class="st6" d="M183.9,292.3c1.8-2.5,3.2-5.8,3.2-10.3c0-4.5-1.4-7.7-3.2-10.2h1.7c1.6,2.1,3.3,5.3,3.3,10.2
			c0,4.9-1.7,8.1-3.3,10.3H183.9z"/>
	</g>
	<g>
		<path class="st6" d="M206.1,425.1c0.9,0.5,2.1,1,3.5,1c2,0,3.2-1.1,3.2-2.6c0-1.4-0.8-2.2-2.8-3c-2.5-0.9-4-2.1-4-4.3
			c0-2.3,1.9-4.1,4.9-4.1c1.5,0,2.7,0.4,3.3,0.7l-0.5,1.6c-0.5-0.3-1.5-0.7-2.9-0.7c-2.1,0-2.8,1.2-2.8,2.3c0,1.4,0.9,2.1,3,2.9
			c2.5,1,3.8,2.2,3.8,4.4c0,2.3-1.7,4.3-5.3,4.3c-1.5,0-3-0.4-3.8-1L206.1,425.1z"/>
		<path class="st6" d="M217.4,420.1c0-1.4,0-2.5-0.1-3.5h1.8l0.1,1.9h0c0.8-1.3,2.1-2.1,3.8-2.1c2.6,0,4.6,2.2,4.6,5.5
			c0,3.9-2.4,5.8-4.9,5.8c-1.4,0-2.7-0.6-3.3-1.7h0v5.9h-1.9V420.1z M219.3,423c0,0.3,0,0.6,0.1,0.8c0.4,1.4,1.5,2.3,3,2.3
			c2.1,0,3.3-1.7,3.3-4.2c0-2.2-1.1-4-3.2-4c-1.3,0-2.6,1-3,2.4c-0.1,0.2-0.1,0.5-0.1,0.8V423z"/>
		<path class="st6" d="M231.2,422.4c0,2.7,1.7,3.8,3.7,3.8c1.4,0,2.3-0.2,3-0.6l0.3,1.4c-0.7,0.3-1.9,0.7-3.6,0.7
			c-3.3,0-5.3-2.2-5.3-5.5c0-3.3,1.9-5.8,5.1-5.8c3.5,0,4.5,3.1,4.5,5.1c0,0.4,0,0.7-0.1,0.9H231.2z M236.9,421
			c0-1.3-0.5-3.2-2.7-3.2c-2,0-2.9,1.8-3,3.2H236.9z"/>
		<path class="st6" d="M249,427c-0.5,0.3-1.7,0.6-3.1,0.6c-3.3,0-5.4-2.2-5.4-5.5c0-3.3,2.3-5.7,5.8-5.7c1.2,0,2.2,0.3,2.7,0.6
			l-0.4,1.5c-0.5-0.3-1.2-0.5-2.3-0.5c-2.5,0-3.8,1.8-3.8,4.1c0,2.5,1.6,4,3.8,4c1.1,0,1.9-0.3,2.4-0.5L249,427z"/>
		<path class="st6" d="M253.5,413.6c0,0.7-0.5,1.2-1.3,1.2c-0.7,0-1.2-0.5-1.2-1.2c0-0.7,0.5-1.2,1.2-1.2
			C253,412.3,253.5,412.9,253.5,413.6z M251.3,427.4v-10.8h2v10.8H251.3z"/>
		<path class="st6" d="M262.5,427.4l-0.2-1.4h-0.1c-0.6,0.8-1.8,1.6-3.3,1.6c-2.2,0-3.3-1.5-3.3-3.1c0-2.6,2.3-4,6.5-4v-0.2
			c0-0.9-0.2-2.5-2.5-2.5c-1,0-2.1,0.3-2.8,0.8l-0.4-1.3c0.9-0.6,2.2-1,3.6-1c3.3,0,4.1,2.3,4.1,4.4v4c0,0.9,0,1.9,0.2,2.6H262.5z
			 M262.2,421.9c-2.1,0-4.6,0.3-4.6,2.4c0,1.3,0.8,1.9,1.9,1.9c1.4,0,2.3-0.9,2.6-1.8c0.1-0.2,0.1-0.4,0.1-0.6V421.9z"/>
		<path class="st6" d="M267.3,411.6h2v15.9h-2V411.6z"/>
		<path class="st6" d="M274.9,413.5v3.1h2.8v1.5h-2.8v5.8c0,1.3,0.4,2.1,1.5,2.1c0.5,0,0.9-0.1,1.1-0.1l0.1,1.5
			c-0.4,0.2-1,0.3-1.7,0.3c-0.9,0-1.7-0.3-2.1-0.8c-0.6-0.6-0.8-1.5-0.8-2.8v-5.9h-1.7v-1.5h1.7V414L274.9,413.5z"/>
		<path class="st6" d="M280.9,416.6l2.4,6.4c0.2,0.7,0.5,1.6,0.7,2.2h0c0.2-0.6,0.4-1.5,0.7-2.3l2.1-6.3h2.1l-3,7.7
			c-1.4,3.7-2.4,5.6-3.7,6.8c-1,0.8-1.9,1.2-2.4,1.3l-0.5-1.7c0.5-0.2,1.1-0.5,1.7-1c0.5-0.4,1.2-1.2,1.7-2.2
			c0.1-0.2,0.2-0.4,0.2-0.5s0-0.3-0.1-0.5l-4-10H280.9z"/>
	</g>
	<g>
		<path class="st6" d="M300.3,414.7L300.3,414.7l-3,1.5l-0.5-2.3l4-2h2.6v16.3h-3V414.7z"/>
		<path class="st6" d="M308.7,424c0-2,1.2-3.4,3.1-4.2v-0.1c-1.7-0.8-2.5-2.2-2.5-3.6c0-2.7,2.4-4.5,5.5-4.5c3.5,0,5.1,2.1,5.1,4.1
			c0,1.4-0.7,2.8-2.5,3.7v0.1c1.8,0.7,3.1,2.1,3.1,4.1c0,2.9-2.5,4.9-6,4.9C310.7,428.5,308.7,426.3,308.7,424z M317.4,423.9
			c0-1.7-1.2-2.6-3-3.1c-1.5,0.5-2.4,1.5-2.4,2.9c-0.1,1.4,1,2.6,2.7,2.6C316.3,426.3,317.4,425.3,317.4,423.9z M312.3,416
			c0,1.3,1.1,2.1,2.7,2.6c1.1-0.3,2-1.2,2-2.5c0-1.1-0.7-2.3-2.3-2.3C313.1,413.8,312.3,414.8,312.3,416z"/>
		<path class="st6" d="M330.5,416.5c0,3.4-2,5.2-4.2,5.2c-2.3,0-4.1-1.8-4.2-4.9c0-3.1,1.8-5.1,4.3-5.1
			C328.9,411.6,330.5,413.5,330.5,416.5z M324.4,416.7c0,1.9,0.7,3.3,1.9,3.3c1.2,0,1.8-1.3,1.8-3.3c0-1.8-0.5-3.3-1.8-3.3
			C325.1,413.4,324.4,414.8,324.4,416.7z M326.3,428.5l9.5-16.9h1.8l-9.5,16.9H326.3z M341.7,423.3c0,3.4-2,5.2-4.2,5.2
			s-4.1-1.8-4.1-4.9c0-3.1,1.8-5.1,4.3-5.1C340.2,418.4,341.7,420.3,341.7,423.3z M335.7,423.4c0,1.9,0.7,3.3,1.9,3.3
			c1.3,0,1.8-1.3,1.8-3.3c0-1.8-0.5-3.3-1.8-3.3C336.3,420.1,335.7,421.6,335.7,423.4z"/>
	</g>
	<g>
		<g>
			<path class="st6" d="M38.7,410.9c0.9-0.2,2.2-0.3,3.7-0.3c1.9,0,3.3,0.4,4.2,1.3c0.8,0.7,1.3,1.8,1.3,3.2c0,1.4-0.4,2.4-1.2,3.2
				c-1,1.1-2.7,1.7-4.6,1.7c-0.6,0-1.1,0-1.6-0.1v6h-1.9V410.9z M40.6,418.1c0.4,0.1,1,0.2,1.6,0.2c2.3,0,3.8-1.1,3.8-3.2
				c0-2-1.4-3-3.6-3c-0.8,0-1.5,0.1-1.8,0.2V418.1z"/>
			<path class="st6" d="M50.2,418.3c0-1.3,0-2.4-0.1-3.4h1.7l0.1,2.1h0.1c0.5-1.5,1.7-2.4,3-2.4c0.2,0,0.4,0,0.6,0.1v1.9
				c-0.2,0-0.4-0.1-0.7-0.1c-1.4,0-2.4,1.1-2.6,2.5c0,0.3-0.1,0.6-0.1,0.9v5.8h-1.9V418.3z"/>
			<path class="st6" d="M59.8,411.9c0,0.7-0.5,1.2-1.3,1.2c-0.7,0-1.2-0.5-1.2-1.2c0-0.7,0.5-1.2,1.2-1.2
				C59.3,410.7,59.8,411.2,59.8,411.9z M57.6,425.8v-10.8h2v10.8H57.6z"/>
			<path class="st6" d="M62.8,417.9c0-1.1,0-2-0.1-2.9h1.7l0.1,1.7h0.1c0.6-1,1.6-2,3.4-2c1.5,0,2.6,0.9,3.1,2.2h0
				c0.3-0.6,0.8-1.1,1.2-1.4c0.6-0.5,1.4-0.8,2.4-0.8c1.4,0,3.6,0.9,3.6,4.7v6.4h-1.9v-6.1c0-2.1-0.8-3.3-2.3-3.3
				c-1.1,0-2,0.8-2.3,1.8c-0.1,0.3-0.2,0.6-0.2,1v6.7h-1.9v-6.5c0-1.7-0.8-3-2.3-3c-1.2,0-2.1,1-2.4,2c-0.1,0.3-0.2,0.6-0.2,1v6.5
				h-1.9V417.9z"/>
			<path class="st6" d="M82.5,420.7c0,2.7,1.7,3.8,3.7,3.8c1.4,0,2.3-0.2,3-0.6l0.3,1.4c-0.7,0.3-1.9,0.7-3.6,0.7
				c-3.3,0-5.3-2.2-5.3-5.5c0-3.3,1.9-5.8,5.1-5.8c3.5,0,4.5,3.1,4.5,5.1c0,0.4,0,0.7-0.1,0.9H82.5z M88.3,419.3
				c0-1.3-0.5-3.2-2.7-3.2c-2,0-2.9,1.8-3,3.2H88.3z"/>
		</g>
		<g>
			<path class="st6" d="M108.7,409.4v2l-6.9,14.4h-3.3l6.9-13.7V412h-7.7v-2.6H108.7z"/>
			<path class="st6" d="M115.7,412.2L115.7,412.2l-3,1.5l-0.5-2.3l4-2h2.6v16.3h-3V412.2z"/>
			<path class="st6" d="M132.4,414c0,3.4-2,5.2-4.2,5.2c-2.3,0-4.1-1.8-4.2-4.9c0-3.1,1.8-5.1,4.3-5.1
				C130.9,409.1,132.4,411,132.4,414z M126.4,414.2c0,1.9,0.7,3.3,1.9,3.3c1.2,0,1.8-1.3,1.8-3.3c0-1.8-0.5-3.3-1.8-3.3
				C127,410.9,126.4,412.3,126.4,414.2z M128.2,426l9.5-16.9h1.8L130,426H128.2z M143.7,420.8c0,3.4-2,5.2-4.2,5.2s-4.1-1.8-4.1-4.9
				c0-3.1,1.8-5.1,4.3-5.1C142.1,415.9,143.7,417.8,143.7,420.8z M137.6,421c0,1.9,0.7,3.3,1.9,3.3c1.3,0,1.8-1.3,1.8-3.3
				c0-1.8-0.5-3.3-1.8-3.3C138.3,417.7,137.6,419.1,137.6,421z"/>
		</g>
		<line class="st7" x1="6.5" y1="419.1" x2="23.9" y2="419.1"/>
	</g>
	<line class="st8" x1="174.2" y1="420.9" x2="191.6" y2="420.9"/>
	<g>
		<g>
			<path class="st6" d="M49.2,469.7c-0.7,0.4-2.1,0.7-4,0.7c-4.2,0-7.4-2.7-7.4-7.6c0-4.7,3.2-7.9,7.9-7.9c1.9,0,3.1,0.4,3.6,0.7
				l-0.5,1.6c-0.7-0.4-1.8-0.6-3-0.6c-3.5,0-5.9,2.3-5.9,6.2c0,3.7,2.1,6.1,5.8,6.1c1.2,0,2.4-0.2,3.2-0.6L49.2,469.7z"/>
			<path class="st6" d="M64.4,463.6c-0.1-2.1-0.2-4.6-0.2-6.5h-0.1c-0.5,1.8-1.1,3.6-1.9,5.7l-2.7,7.3H58l-2.4-7.2
				c-0.7-2.1-1.3-4.1-1.7-5.9h0c0,1.9-0.2,4.4-0.3,6.7l-0.4,6.5h-1.9l1.1-15.1h2.5l2.6,7.3c0.6,1.9,1.1,3.5,1.5,5.1h0.1
				c0.4-1.5,0.9-3.2,1.6-5.1l2.7-7.3h2.5l0.9,15.1h-1.9L64.4,463.6z"/>
			<path class="st6" d="M69.4,467.9c0.9,0.5,2.1,1,3.5,1c2,0,3.2-1.1,3.2-2.6c0-1.4-0.8-2.2-2.8-3c-2.5-0.9-4-2.1-4-4.3
				c0-2.3,1.9-4.1,4.9-4.1c1.5,0,2.7,0.4,3.3,0.7l-0.5,1.6c-0.5-0.3-1.5-0.7-2.9-0.7c-2.1,0-2.8,1.2-2.8,2.3c0,1.4,0.9,2.1,3,2.9
				c2.5,1,3.8,2.2,3.8,4.4c0,2.3-1.7,4.3-5.3,4.3c-1.5,0-3-0.4-3.8-1L69.4,467.9z"/>
		</g>
		<g>
			<path class="st6" d="M90.2,456.7L90.2,456.7l-3,1.5l-0.5-2.3l4-2h2.6v16.3h-3V456.7z"/>
			<path class="st6" d="M103.7,456.7L103.7,456.7l-3,1.5l-0.5-2.3l4-2h2.6v16.3h-3V456.7z"/>
			<path class="st6" d="M120.4,458.5c0,3.4-2,5.2-4.2,5.2c-2.3,0-4.1-1.8-4.2-4.9c0-3.1,1.8-5.1,4.3-5.1
				C118.8,453.6,120.4,455.5,120.4,458.5z M114.3,458.6c0,1.9,0.7,3.3,1.9,3.3c1.2,0,1.8-1.3,1.8-3.3c0-1.8-0.5-3.3-1.8-3.3
				C114.9,455.3,114.3,456.8,114.3,458.6z M116.2,470.5l9.5-16.9h1.8l-9.5,16.9H116.2z M131.6,465.3c0,3.4-2,5.2-4.2,5.2
				c-2.3,0-4.1-1.8-4.1-4.9c0-3.1,1.8-5.1,4.3-5.1C130.1,460.4,131.6,462.3,131.6,465.3z M125.6,465.4c0,1.9,0.7,3.3,1.9,3.3
				c1.3,0,1.8-1.3,1.8-3.3c0-1.8-0.5-3.3-1.8-3.3C126.2,462.1,125.6,463.6,125.6,465.4z"/>
		</g>
		<line class="st9" x1="6.5" y1="460.8" x2="23.9" y2="460.8"/>
	</g>
	<g>
		<path class="st10" d="M191,20.5h10.4v3.1h-6.5v3.9h6.1v3.1h-6.1v6.8H191V20.5z"/>
		<path class="st10" d="M208.2,37.5v-6.9l-5.4-10h4.4l1.7,4.1c0.5,1.2,0.9,2.1,1.3,3.2h0.1c0.4-1.1,0.8-2,1.3-3.2l1.7-4.1h4.3
			l-5.6,9.9v7.1H208.2z"/>
		<path class="st10" d="M223.9,37.5v-2.3l2.1-1.9c3.6-3.2,5.3-5,5.4-6.9c0-1.3-0.8-2.4-2.7-2.4c-1.4,0-2.6,0.7-3.5,1.4l-1.1-2.7
			c1.2-0.9,3.1-1.7,5.4-1.7c3.7,0,5.7,2.2,5.7,5.1c0,2.7-2,4.9-4.3,7l-1.5,1.3v0.1h6.2v3.1H223.9z"/>
		<path class="st10" d="M250,29.2c0,5.1-2,8.5-6.2,8.5c-4.2,0-6.1-3.8-6.1-8.4c0-4.7,2-8.5,6.2-8.5C248.2,20.8,250,24.7,250,29.2z
			 M241.5,29.3c0,3.7,0.9,5.5,2.4,5.5c1.5,0,2.3-1.9,2.3-5.6c0-3.6-0.8-5.5-2.3-5.5C242.4,23.7,241.5,25.5,241.5,29.3z"/>
		<path class="st10" d="M256.7,24.5L256.7,24.5l-3.2,1.5l-0.6-2.9l4.3-2h3.2v16.3h-3.7V24.5z"/>
		<path class="st10" d="M272.6,37.5v-3.9h-7.2v-2.5l6.2-10h4.7v9.6h2v2.9h-2v3.9H272.6z M272.6,30.7v-3.6c0-1,0.1-2,0.1-3h-0.1
			c-0.5,1.1-1,2-1.5,3l-2.2,3.6v0.1H272.6z"/>
	</g>
</g>
</svg>
