<?xml version="1.0" encoding="utf-8"?>
<!-- Generator: Adobe Illustrator 27.7.0, SVG Export Plug-In . SVG Version: 6.00 Build 0)  -->
<svg version="1.1" id="Layer_1" xmlns="http://www.w3.org/2000/svg" xmlns:xlink="http://www.w3.org/1999/xlink" x="0px" y="0px"
	 viewBox="0 0 462.6 477" style="enable-background:new 0 0 462.6 477;" xml:space="preserve">
<style type="text/css">
	.st0{fill:none;stroke:#939598;stroke-width:2;}
	.st1{fill:none;stroke:url(#SVGID_1_);stroke-width:3;stroke-miterlimit:10;}
	.st2{fill:#B3B3A4;}
	.st3{fill:#9CBA3D;}
	.st4{fill:#E55A32;}
	.st5{fill:#005595;}
	.st6{fill:#FFFFFF;}
	.st7{fill:#4D4E4F;}
	.st8{fill:none;stroke:#005595;stroke-width:5;stroke-linecap:round;stroke-linejoin:round;}
	.st9{fill:none;stroke:#E55A32;stroke-width:5;stroke-linecap:round;stroke-linejoin:round;}
	.st10{fill:none;stroke:#9CBA3D;stroke-width:5;stroke-linecap:round;stroke-linejoin:round;}
	.st11{fill:none;stroke:#B3B3A4;stroke-width:5;stroke-linecap:round;stroke-linejoin:round;}
	.st12{fill:#939598;}
</style>
<g>
	<line class="st0" x1="6.7" y1="5" x2="455.9" y2="5"/>
	<linearGradient id="SVGID_1_" gradientUnits="userSpaceOnUse" x1="6.6724" y1="46.0295" x2="455.8876" y2="46.0295">
		<stop  offset="0" style="stop-color:#E55B32"/>
		<stop  offset="0.2185" style="stop-color:#DA512E"/>
		<stop  offset="1" style="stop-color:#BD3726"/>
	</linearGradient>
	<polyline class="st1" points="6.7,46 455.9,46 455.9,46 6.7,46 	"/>
	<path class="st2" d="M142,250.5L107.3,121c11.4-3.1,22.9-4.6,34.7-4.6V250.5z"/>
	<path class="st3" d="M142,250.5L71,364.1C8.2,324.9-10.9,242.2,28.3,179.4c18.8-30.1,44.7-49.2,79-58.4L142,250.5z"/>
	<path class="st4" d="M142,250.5l121.5,56.7c-31.3,67.1-111,96.1-178.1,64.8c-5.4-2.5-9.4-4.7-14.4-7.8L142,250.5z"/>
	<path class="st5" d="M142,250.5V116.4c74,0,134,60,134,134.1c0,20.7-3.8,37.9-12.6,56.7L142,250.5z"/>
	<path class="st6" d="M142,371.8c66.2,0,119.8-54.3,119.8-121.3c0-67-53.6-121.3-119.8-121.3c-66.2,0-119.8,54.3-119.8,121.3
		C22.2,317.5,75.9,371.8,142,371.8"/>
	<path class="st0" d="M142,353.6c56.2,0,101.8-46.2,101.8-103.1c0-56.9-45.6-103.1-101.8-103.1c-56.2,0-101.8,46.2-101.8,103.1
		C40.2,307.4,85.8,353.6,142,353.6z"/>
	<g>
		<path class="st7" d="M74.9,209.3h-0.1l-6,3l-1.1-4.7l7.9-3.9h5.2v32.6h-6V209.3z"/>
		<path class="st7" d="M90.3,242.3c1.4-3.8,2.7-9.1,3.4-13.2l6.5-0.5c-1.4,4.7-3.7,10.1-5.6,13.3L90.3,242.3z"/>
		<path class="st7" d="M103.9,236.3v-3.8l3.9-3.6c7.7-7.1,11.3-11,11.3-15.3c0-2.9-1.6-5.5-5.8-5.5c-2.9,0-5.3,1.5-7,2.7l-1.8-4.4
			c2.4-1.9,5.9-3.4,10-3.4c7.2,0,10.7,4.6,10.7,9.9c0,5.7-4.1,10.3-9.8,15.6l-2.9,2.5v0.1H126v5.1H103.9z"/>
		<path class="st7" d="M153.7,219.8c0,10.5-4.1,17-11.9,17c-7.5,0-11.5-6.8-11.6-16.7c0-10.1,4.3-16.9,11.9-16.9
			C150.1,203.2,153.7,210.2,153.7,219.8z M136.5,220.1c-0.1,7.9,2.2,12,5.6,12c3.6,0,5.5-4.4,5.5-12.2c0-7.6-1.8-12-5.5-12
			C138.8,207.9,136.5,211.9,136.5,220.1z"/>
		<path class="st7" d="M180.6,219.8c0,10.5-4.1,17-11.9,17c-7.5,0-11.5-6.8-11.6-16.7c0-10.1,4.3-16.9,11.9-16.9
			C176.9,203.2,180.6,210.2,180.6,219.8z M163.3,220.1c-0.1,7.9,2.2,12,5.6,12c3.6,0,5.5-4.4,5.5-12.2c0-7.6-1.8-12-5.5-12
			C165.6,207.9,163.3,211.9,163.3,220.1z"/>
		<path class="st7" d="M184.8,232.9c0-2.3,1.6-4,3.8-4c2.3,0,3.8,1.6,3.8,4c0,2.3-1.5,4-3.8,4C186.4,236.8,184.8,235.1,184.8,232.9z
			"/>
		<path class="st7" d="M198.7,231.9c1,0.1,1.9,0.1,3.4-0.1c2.4-0.2,4.8-1.1,6.6-2.5c2.1-1.7,3.6-4.2,4.2-7.2l-0.1,0
			c-1.7,1.9-4,2.9-7.1,2.9c-5.7,0-9.9-4.1-9.9-10.1c0-6.2,4.8-11.6,11.8-11.6c7.6,0,11.6,6,11.6,13.9c0,7-2.3,11.9-5.7,15.1
			c-2.9,2.7-6.8,4.2-11.1,4.5c-1.4,0.2-2.8,0.2-3.7,0.1V231.9z M202,214.4c0.1,3.4,2,6,5.4,6c2.5,0,4.3-1.2,5.3-2.7
			c0.2-0.4,0.4-0.9,0.4-1.8c0-4.4-1.6-8.2-5.6-8.2C204.2,207.7,202,210.5,202,214.4z"/>
	</g>
	<g>
		<path class="st7" d="M80,251.8h-5.1V250h12.5v1.9h-5.2v15H80V251.8z"/>
		<path class="st7" d="M98.3,260.7c0,4.5-3.1,6.4-6,6.4c-3.3,0-5.8-2.4-5.8-6.2c0-4.1,2.7-6.4,6-6.4C96,254.5,98.3,257,98.3,260.7z
			 M88.7,260.8c0,2.7,1.5,4.7,3.7,4.7c2.1,0,3.7-2,3.7-4.7c0-2.1-1-4.7-3.6-4.7C89.8,256.1,88.7,258.5,88.7,260.8z"/>
		<path class="st7" d="M103.8,251.3v3.5h3.2v1.7h-3.2v6.5c0,1.5,0.4,2.4,1.7,2.4c0.6,0,1-0.1,1.3-0.2l0.1,1.7
			c-0.4,0.2-1.1,0.3-2,0.3c-1,0-1.9-0.3-2.4-0.9c-0.6-0.7-0.9-1.7-0.9-3.2v-6.6h-1.9v-1.7h1.9v-2.9L103.8,251.3z"/>
		<path class="st7" d="M116.1,266.9l-0.2-1.5h-0.1c-0.7,1-2,1.8-3.7,1.8c-2.5,0-3.7-1.7-3.7-3.5c0-2.9,2.6-4.5,7.3-4.5v-0.3
			c0-1-0.3-2.8-2.8-2.8c-1.1,0-2.3,0.3-3.2,0.9l-0.5-1.5c1-0.7,2.5-1.1,4-1.1c3.7,0,4.6,2.5,4.6,5v4.5c0,1.1,0.1,2.1,0.2,2.9H116.1z
			 M115.8,260.7c-2.4-0.1-5.1,0.4-5.1,2.7c0,1.4,1,2.1,2.1,2.1c1.6,0,2.6-1,2.9-2c0.1-0.2,0.1-0.5,0.1-0.7V260.7z"/>
		<path class="st7" d="M121.5,249.1h2.2v17.8h-2.2V249.1z"/>
		<path class="st7" d="M134.9,250v16.9h-2.2V250H134.9z"/>
		<path class="st7" d="M138.9,258c0-1.3,0-2.3-0.1-3.3h2l0.1,2h0c0.6-1.2,2-2.3,4-2.3c1.7,0,4.3,1,4.3,5.2v7.2H147v-7
			c0-2-0.7-3.6-2.8-3.6c-1.5,0-2.6,1-3,2.3c-0.1,0.3-0.2,0.7-0.2,1v7.3h-2.2V258z"/>
		<path class="st7" d="M161.4,266.4c-0.6,0.3-1.9,0.7-3.5,0.7c-3.7,0-6-2.5-6-6.2c0-3.7,2.6-6.4,6.5-6.4c1.3,0,2.5,0.3,3.1,0.6
			l-0.5,1.7c-0.5-0.3-1.4-0.6-2.6-0.6c-2.8,0-4.3,2.1-4.3,4.6c0,2.8,1.8,4.5,4.2,4.5c1.3,0,2.1-0.3,2.7-0.6L161.4,266.4z"/>
		<path class="st7" d="M174.8,260.7c0,4.5-3.1,6.4-6,6.4c-3.3,0-5.8-2.4-5.8-6.2c0-4.1,2.7-6.4,6-6.4
			C172.5,254.5,174.8,257,174.8,260.7z M165.2,260.8c0,2.7,1.5,4.7,3.7,4.7c2.1,0,3.7-2,3.7-4.7c0-2.1-1-4.7-3.6-4.7
			C166.4,256.1,165.2,258.5,165.2,260.8z"/>
		<path class="st7" d="M177.6,258c0-1.3,0-2.3-0.1-3.3h1.9l0.1,2h0.1c0.7-1.2,1.8-2.2,3.8-2.2c1.7,0,2.9,1,3.4,2.4h0.1
			c0.4-0.7,0.9-1.2,1.4-1.6c0.7-0.6,1.5-0.9,2.7-0.9c1.6,0,4,1.1,4,5.3v7.1h-2.2V260c0-2.3-0.9-3.7-2.6-3.7c-1.3,0-2.2,0.9-2.6,2
			c-0.1,0.3-0.2,0.7-0.2,1.1v7.5h-2.2v-7.3c0-1.9-0.9-3.3-2.5-3.3c-1.4,0-2.4,1.1-2.7,2.2c-0.1,0.3-0.2,0.7-0.2,1.1v7.3h-2.2V258z"
			/>
		<path class="st7" d="M199.7,261.2c0.1,3,2,4.2,4.2,4.2c1.6,0,2.5-0.3,3.4-0.6l0.4,1.6c-0.8,0.4-2.1,0.8-4,0.8c-3.7,0-6-2.5-6-6.1
			c0-3.7,2.2-6.5,5.7-6.5c4,0,5,3.5,5,5.7c0,0.5-0.1,0.8-0.1,1H199.7z M206.2,259.6c0-1.4-0.6-3.6-3.1-3.6c-2.2,0-3.2,2.1-3.4,3.6
			H206.2z"/>
	</g>
	<g>
		<path class="st7" d="M99.3,280.1c-1.8,2.5-3.2,5.7-3.2,10.2c0,4.5,1.4,7.7,3.2,10.2h-1.7c-1.6-2.1-3.3-5.3-3.3-10.2
			c0-4.9,1.7-8.1,3.3-10.2H99.3z"/>
	</g>
	<g>
		<path class="st7" d="M101.6,280h10v0c-0.6,1-0.9,1.6-1,1.7h-2.7c0.4,0.5,0.6,1.1,0.7,1.8h2.8c0,0,0,0,0,0c-0.6,1.1-1,1.6-1,1.6
			h-1.8c0,0.5-0.3,1.2-0.7,2c-0.6,0.8-1.1,1.3-1.6,1.5c-1,0.5-1.9,0.8-2.8,0.8v0c0,0.1,0.2,0.4,0.6,1l4.9,6.7v0.3c0,0,0,0,0,0h-2.2
			c-3.9-5.1-5.8-7.7-5.8-7.8v-1.6l0-0.1c0.3,0.1,0.7,0.1,1.2,0.1c2.2,0,3.5-0.8,4.1-2.4c0.1-0.2,0.1-0.5,0.1-0.7h-5.9c0,0,0,0,0-0.1
			c0.7-1.1,1-1.6,1-1.6h4.7v0c-0.3-0.6-0.8-1.1-1.6-1.4c-0.6-0.2-1.1-0.3-1.5-0.3h-2.6v-0.1C101.2,280.6,101.6,280,101.6,280z"/>
	</g>
	<g>
		<path class="st7" d="M131.4,296.9c-0.8,0.4-2.4,0.8-4.5,0.8c-4.8,0-8.3-3-8.3-8.5c0-5.3,3.6-8.9,8.8-8.9c2.1,0,3.4,0.5,4,0.8
			l-0.5,1.8c-0.8-0.4-2-0.7-3.4-0.7c-4,0-6.6,2.5-6.6,7c0,4.1,2.4,6.8,6.5,6.8c1.3,0,2.7-0.3,3.6-0.7L131.4,296.9z"/>
		<path class="st7" d="M134,289.1c0-1.4,0-2.7-0.1-3.8h1.9l0.1,2.4h0.1c0.6-1.6,1.9-2.7,3.4-2.7c0.3,0,0.4,0,0.6,0.1v2.1
			c-0.2,0-0.5-0.1-0.8-0.1c-1.6,0-2.7,1.2-3,2.8c0,0.3-0.1,0.7-0.1,1v6.5H134V289.1z"/>
		<path class="st7" d="M152.9,291.3c0,4.5-3.1,6.4-6,6.4c-3.3,0-5.8-2.4-5.8-6.2c0-4.1,2.7-6.4,6-6.4
			C150.5,285.1,152.9,287.6,152.9,291.3z M143.3,291.4c0,2.7,1.5,4.7,3.7,4.7c2.1,0,3.7-2,3.7-4.7c0-2.1-1-4.7-3.6-4.7
			C144.4,286.7,143.3,289.1,143.3,291.4z"/>
		<path class="st7" d="M155.7,289.1c0-1.4,0-2.7-0.1-3.8h1.9l0.1,2.4h0.1c0.6-1.6,1.9-2.7,3.4-2.7c0.3,0,0.4,0,0.6,0.1v2.1
			c-0.2,0-0.5-0.1-0.8-0.1c-1.6,0-2.7,1.2-3,2.8c0,0.3-0.1,0.7-0.1,1v6.5h-2.2V289.1z"/>
		<path class="st7" d="M164.9,291.8c0.1,3,2,4.2,4.2,4.2c1.6,0,2.5-0.3,3.4-0.6l0.4,1.6c-0.8,0.4-2.1,0.8-4,0.8c-3.7,0-6-2.5-6-6.1
			c0-3.7,2.2-6.5,5.7-6.5c4,0,5,3.5,5,5.7c0,0.5-0.1,0.8-0.1,1H164.9z M171.3,290.2c0-1.4-0.6-3.6-3.1-3.6c-2.2,0-3.2,2.1-3.4,3.6
			H171.3z"/>
		<path class="st7" d="M175.9,295.2c0.7,0.4,1.8,0.9,2.9,0.9c1.6,0,2.4-0.8,2.4-1.8c0-1.1-0.6-1.6-2.3-2.2c-2.2-0.8-3.2-2-3.2-3.4
			c0-2,1.6-3.6,4.2-3.6c1.2,0,2.3,0.4,3,0.8l-0.6,1.6c-0.5-0.3-1.4-0.7-2.5-0.7c-1.3,0-2,0.8-2,1.7c0,1,0.7,1.5,2.3,2.1
			c2.1,0.8,3.2,1.9,3.2,3.7c0,2.1-1.7,3.6-4.5,3.6c-1.3,0-2.6-0.3-3.4-0.8L175.9,295.2z"/>
		<path class="st7" d="M184.8,300.5c1.8-2.5,3.2-5.7,3.2-10.2c0-4.5-1.4-7.7-3.2-10.2h1.7c1.6,2.1,3.3,5.3,3.3,10.2
			c0,4.9-1.7,8.1-3.3,10.2H184.8z"/>
	</g>
	<g>
		<g>
			<path class="st7" d="M42.4,406.4c0.9-0.2,2.2-0.3,3.7-0.3c1.9,0,3.3,0.4,4.2,1.2c0.8,0.7,1.3,1.8,1.3,3.1c0,1.4-0.4,2.4-1.2,3.2
				c-1,1.1-2.7,1.6-4.6,1.6c-0.6,0-1.1,0-1.6-0.1v6h-1.9V406.4z M44.4,413.6c0.4,0.1,1,0.2,1.6,0.2c2.3,0,3.8-1.1,3.8-3.2
				c0-2-1.4-2.9-3.5-2.9c-0.8,0-1.5,0.1-1.8,0.2V413.6z"/>
			<path class="st7" d="M53.9,413.8c0-1.3,0-2.4-0.1-3.4h1.7l0.1,2.1h0.1c0.5-1.4,1.7-2.4,3-2.4c0.2,0,0.4,0,0.6,0.1v1.8
				c-0.2,0-0.4-0.1-0.7-0.1c-1.4,0-2.4,1-2.6,2.5c0,0.3-0.1,0.6-0.1,0.9v5.7h-1.9V413.8z"/>
			<path class="st7" d="M63.4,407.4c0,0.7-0.5,1.2-1.2,1.2c-0.7,0-1.2-0.5-1.2-1.2c0-0.7,0.5-1.2,1.2-1.2
				C62.9,406.2,63.4,406.7,63.4,407.4z M61.2,421.2v-10.8h2v10.8H61.2z"/>
			<path class="st7" d="M66.4,413.4c0-1.1,0-2-0.1-2.9h1.7l0.1,1.7h0.1c0.6-1,1.6-2,3.4-2c1.5,0,2.6,0.9,3,2.2h0
				c0.3-0.6,0.8-1.1,1.2-1.4c0.6-0.5,1.4-0.8,2.4-0.8c1.4,0,3.5,0.9,3.5,4.7v6.3h-1.9v-6.1c0-2.1-0.8-3.3-2.3-3.3
				c-1.1,0-2,0.8-2.3,1.8c-0.1,0.3-0.2,0.6-0.2,1v6.7h-1.9v-6.5c0-1.7-0.8-3-2.2-3c-1.2,0-2.1,1-2.4,2c-0.1,0.3-0.2,0.6-0.2,1v6.5
				h-1.9V413.4z"/>
			<path class="st7" d="M86.1,416.2c0,2.6,1.7,3.7,3.7,3.7c1.4,0,2.2-0.2,3-0.6l0.3,1.4c-0.7,0.3-1.9,0.7-3.6,0.7
				c-3.3,0-5.3-2.2-5.3-5.4s1.9-5.8,5.1-5.8c3.5,0,4.4,3.1,4.4,5.1c0,0.4,0,0.7-0.1,0.9H86.1z M91.8,414.8c0-1.2-0.5-3.2-2.7-3.2
				c-2,0-2.8,1.8-3,3.2H91.8z"/>
		</g>
		<g>
			<path class="st7" d="M101.5,418c0.6,0.4,2.2,1,3.7,1c2.4,0,3.3-1.3,3.3-2.6c0-1.9-1.8-2.8-3.7-2.8h-1.4v-2.3h1.4
				c1.4,0,3.2-0.7,3.2-2.3c0-1.1-0.8-2-2.6-2c-1.3,0-2.7,0.6-3.3,1l-0.7-2.2c0.9-0.7,2.7-1.3,4.7-1.3c3.4,0,5.1,1.9,5.1,4
				c0,1.7-1,3.1-3,3.8v0c2,0.4,3.6,1.9,3.6,4.1c0,2.8-2.3,4.9-6.3,4.9c-2,0-3.7-0.6-4.6-1.1L101.5,418z"/>
			<path class="st7" d="M114.3,421.2v-1.9l1.9-1.8c3.8-3.6,5.6-5.5,5.7-7.7c0-1.5-0.8-2.7-2.9-2.7c-1.4,0-2.7,0.7-3.5,1.4l-0.9-2.2
				c1.2-1,3-1.7,5-1.7c3.6,0,5.4,2.3,5.4,4.9c0,2.9-2.1,5.2-4.9,7.8l-1.4,1.2v0.1h6.7v2.6H114.3z"/>
			<path class="st7" d="M135.8,409.5c0,3.4-2,5.2-4.2,5.2c-2.3,0-4.1-1.8-4.2-4.9c0-3.1,1.8-5.1,4.3-5.1
				C134.2,404.7,135.8,406.6,135.8,409.5z M129.7,409.7c0,1.9,0.7,3.3,1.9,3.3c1.2,0,1.8-1.3,1.8-3.3c0-1.8-0.5-3.3-1.8-3.3
				C130.4,406.4,129.7,407.8,129.7,409.7z M131.6,421.5l9.4-16.8h1.8l-9.4,16.8H131.6z M147,416.3c0,3.4-2,5.2-4.2,5.2
				c-2.3,0-4.1-1.8-4.1-4.9c0-3.1,1.8-5.1,4.3-5.1C145.4,411.4,147,413.3,147,416.3z M140.9,416.4c0,1.9,0.7,3.3,1.9,3.3
				c1.3,0,1.8-1.3,1.8-3.3c0-1.8-0.5-3.3-1.8-3.3C141.6,413.2,140.9,414.6,140.9,416.4z"/>
		</g>
		<line class="st8" x1="10.4" y1="414.6" x2="27.7" y2="414.6"/>
	</g>
	<g>
		<g>
			<path class="st7" d="M210.3,418.3c0.9,0.5,2.1,1,3.5,1c2,0,3.1-1,3.1-2.6c0-1.4-0.8-2.2-2.8-3c-2.4-0.9-4-2.1-4-4.2
				c0-2.3,1.9-4.1,4.9-4.1c1.5,0,2.6,0.4,3.3,0.7l-0.5,1.6c-0.5-0.3-1.5-0.7-2.8-0.7c-2,0-2.8,1.2-2.8,2.2c0,1.4,0.9,2.1,3,2.9
				c2.5,1,3.8,2.2,3.8,4.4c0,2.3-1.7,4.3-5.3,4.3c-1.4,0-3-0.4-3.8-1L210.3,418.3z"/>
			<path class="st7" d="M221.5,413.4c0-1.4,0-2.5-0.1-3.5h1.8l0.1,1.8h0c0.8-1.3,2.1-2.1,3.8-2.1c2.6,0,4.6,2.2,4.6,5.5
				c0,3.9-2.4,5.8-4.9,5.8c-1.4,0-2.7-0.6-3.3-1.7h0v5.9h-1.9V413.4z M223.4,416.3c0,0.3,0,0.6,0.1,0.8c0.4,1.4,1.5,2.3,2.9,2.3
				c2.1,0,3.3-1.7,3.3-4.2c0-2.2-1.1-4-3.2-4c-1.3,0-2.6,1-3,2.4c-0.1,0.2-0.1,0.5-0.1,0.8V416.3z"/>
			<path class="st7" d="M235.2,415.7c0,2.6,1.7,3.7,3.7,3.7c1.4,0,2.2-0.2,3-0.6l0.3,1.4c-0.7,0.3-1.9,0.7-3.6,0.7
				c-3.3,0-5.3-2.2-5.3-5.4s1.9-5.8,5.1-5.8c3.5,0,4.4,3.1,4.4,5.1c0,0.4,0,0.7-0.1,0.9H235.2z M241,414.3c0-1.2-0.5-3.2-2.7-3.2
				c-2,0-2.8,1.8-3,3.2H241z"/>
			<path class="st7" d="M253,420.3c-0.5,0.3-1.6,0.6-3.1,0.6c-3.2,0-5.4-2.2-5.4-5.5c0-3.3,2.3-5.7,5.8-5.7c1.2,0,2.2,0.3,2.7,0.6
				l-0.4,1.5c-0.5-0.3-1.2-0.5-2.3-0.5c-2.5,0-3.8,1.8-3.8,4.1c0,2.5,1.6,4,3.7,4c1.1,0,1.8-0.3,2.4-0.5L253,420.3z"/>
			<path class="st7" d="M257.5,406.9c0,0.7-0.5,1.2-1.2,1.2c-0.7,0-1.2-0.5-1.2-1.2c0-0.7,0.5-1.2,1.2-1.2
				C257,405.7,257.5,406.2,257.5,406.9z M255.3,420.7v-10.8h2v10.8H255.3z"/>
			<path class="st7" d="M266.4,420.7l-0.2-1.4h-0.1c-0.6,0.8-1.8,1.6-3.3,1.6c-2.2,0-3.3-1.5-3.3-3.1c0-2.6,2.3-4,6.5-4v-0.2
				c0-0.9-0.2-2.5-2.4-2.5c-1,0-2,0.3-2.8,0.8l-0.4-1.3c0.9-0.6,2.2-1,3.5-1c3.3,0,4.1,2.2,4.1,4.4v4c0,0.9,0,1.8,0.2,2.6H266.4z
				 M266.2,415.2c-2.1,0-4.6,0.3-4.6,2.4c0,1.3,0.8,1.9,1.8,1.9c1.4,0,2.3-0.9,2.6-1.8c0.1-0.2,0.1-0.4,0.1-0.6V415.2z"/>
			<path class="st7" d="M271.2,404.9h2v15.8h-2V404.9z"/>
			<path class="st7" d="M278.8,406.8v3.1h2.8v1.5h-2.8v5.8c0,1.3,0.4,2.1,1.5,2.1c0.5,0,0.9-0.1,1.1-0.1l0.1,1.5
				c-0.4,0.2-1,0.3-1.7,0.3c-0.9,0-1.6-0.3-2.1-0.8c-0.6-0.6-0.8-1.5-0.8-2.8v-5.9h-1.7v-1.5h1.7v-2.6L278.8,406.8z"/>
			<path class="st7" d="M284.7,409.9l2.4,6.4c0.2,0.7,0.5,1.6,0.7,2.2h0c0.2-0.6,0.4-1.5,0.7-2.2l2.1-6.3h2.1l-2.9,7.7
				c-1.4,3.7-2.4,5.6-3.7,6.7c-1,0.8-1.9,1.2-2.4,1.3l-0.5-1.6c0.5-0.2,1.1-0.5,1.7-1c0.5-0.4,1.2-1.2,1.6-2.2
				c0.1-0.2,0.2-0.4,0.2-0.5s0-0.3-0.1-0.5l-4-9.9H284.7z"/>
		</g>
		<g>
			<path class="st7" d="M299.3,421.5v-1.9l1.9-1.8c3.8-3.6,5.6-5.5,5.7-7.7c0-1.5-0.8-2.7-2.9-2.7c-1.4,0-2.7,0.7-3.5,1.4l-0.9-2.2
				c1.2-1,3-1.7,5-1.7c3.6,0,5.4,2.3,5.4,4.9c0,2.9-2.1,5.2-4.9,7.8l-1.4,1.2v0.1h6.7v2.6H299.3z"/>
			<path class="st7" d="M323.9,405.2v2l-6.9,14.3h-3.3l6.9-13.7v0h-7.7v-2.6H323.9z"/>
			<path class="st7" d="M334.1,409.8c0,3.4-2,5.2-4.2,5.2c-2.3,0-4.1-1.8-4.2-4.9c0-3.1,1.8-5.1,4.3-5.1
				C332.6,405,334.1,406.9,334.1,409.8z M328.1,410c0,1.9,0.7,3.3,1.9,3.3c1.2,0,1.8-1.3,1.8-3.3c0-1.8-0.5-3.3-1.8-3.3
				C328.7,406.7,328.1,408.1,328.1,410z M329.9,421.8l9.4-16.8h1.8l-9.4,16.8H329.9z M345.3,416.6c0,3.4-2,5.2-4.2,5.2
				c-2.3,0-4.1-1.8-4.1-4.9c0-3.1,1.8-5.1,4.3-5.1C343.8,411.7,345.3,413.6,345.3,416.6z M339.3,416.7c0,1.9,0.7,3.3,1.9,3.3
				c1.3,0,1.8-1.3,1.8-3.3c0-1.8-0.5-3.3-1.8-3.3C339.9,413.5,339.3,414.9,339.3,416.7z"/>
		</g>
		<line class="st9" x1="178.5" y1="414.2" x2="195.9" y2="414.2"/>
	</g>
	<g>
		<g>
			<path class="st7" d="M52.9,465.3c-0.7,0.4-2.1,0.7-4,0.7c-4.2,0-7.4-2.7-7.4-7.6c0-4.7,3.2-7.9,7.8-7.9c1.9,0,3,0.4,3.6,0.7
				l-0.5,1.6c-0.7-0.4-1.8-0.6-3-0.6c-3.5,0-5.9,2.2-5.9,6.2c0,3.7,2.1,6,5.8,6c1.2,0,2.4-0.2,3.2-0.6L52.9,465.3z"/>
			<path class="st7" d="M68,459.2c-0.1-2.1-0.2-4.6-0.2-6.5h-0.1c-0.5,1.8-1.1,3.6-1.9,5.7l-2.6,7.3h-1.5l-2.4-7.1
				c-0.7-2.1-1.3-4-1.7-5.8h0c0,1.9-0.2,4.4-0.3,6.6l-0.4,6.4H55l1-15h2.5l2.6,7.3c0.6,1.8,1.1,3.5,1.5,5h0.1c0.4-1.5,0.9-3.2,1.6-5
				l2.7-7.3h2.5l0.9,15h-1.9L68,459.2z"/>
			<path class="st7" d="M73,463.5c0.9,0.5,2.1,1,3.5,1c2,0,3.1-1,3.1-2.6c0-1.4-0.8-2.2-2.8-3c-2.4-0.9-4-2.1-4-4.2
				c0-2.3,1.9-4.1,4.8-4.1c1.5,0,2.6,0.4,3.3,0.7l-0.5,1.6c-0.5-0.3-1.5-0.7-2.8-0.7c-2,0-2.8,1.2-2.8,2.2c0,1.4,0.9,2.1,3,2.9
				c2.5,1,3.8,2.2,3.8,4.4c0,2.3-1.7,4.3-5.3,4.3c-1.4,0-3-0.4-3.8-1L73,463.5z"/>
		</g>
		<g>
			<path class="st7" d="M89.5,463.5c0.6,0.4,2.2,1,3.7,1c2.4,0,3.3-1.3,3.3-2.6c0-1.9-1.8-2.8-3.7-2.8h-1.4v-2.3h1.4
				c1.4,0,3.2-0.7,3.2-2.3c0-1.1-0.8-2-2.6-2c-1.3,0-2.7,0.6-3.3,1l-0.7-2.2c0.9-0.7,2.7-1.3,4.7-1.3c3.4,0,5.1,1.9,5.1,4
				c0,1.7-1,3.1-3,3.8v0c2,0.4,3.6,1.9,3.6,4.1c0,2.8-2.3,4.9-6.3,4.9c-2,0-3.7-0.6-4.6-1.1L89.5,463.5z"/>
			<path class="st7" d="M113.5,450.4v2l-6.9,14.3h-3.3l6.9-13.7v0h-7.7v-2.6H113.5z"/>
			<path class="st7" d="M123.8,454.9c0,3.4-2,5.2-4.2,5.2c-2.3,0-4.1-1.8-4.2-4.9c0-3.1,1.8-5.1,4.3-5.1
				C122.2,450.1,123.8,452,123.8,454.9z M117.7,455.1c0,1.9,0.7,3.3,1.9,3.3c1.2,0,1.8-1.3,1.8-3.3c0-1.8-0.5-3.3-1.8-3.3
				C118.4,451.8,117.7,453.3,117.7,455.1z M119.6,466.9l9.4-16.8h1.8l-9.4,16.8H119.6z M135,461.7c0,3.4-2,5.2-4.2,5.2
				c-2.3,0-4.1-1.8-4.1-4.9c0-3.1,1.8-5.1,4.3-5.1C133.5,456.8,135,458.8,135,461.7z M128.9,461.9c0,1.9,0.7,3.3,1.9,3.3
				c1.3,0,1.8-1.3,1.8-3.3c0-1.8-0.5-3.3-1.8-3.3C129.6,458.6,128.9,460,128.9,461.9z"/>
		</g>
		<line class="st10" x1="10.4" y1="459.3" x2="27.7" y2="459.3"/>
	</g>
	<g>
		<g>
			<path class="st7" d="M223.4,458.2c0,5.2-3.1,7.9-7,7.9c-4,0-6.7-3.1-6.7-7.6c0-4.8,3-7.9,7-7.9
				C220.8,450.6,223.4,453.7,223.4,458.2z M211.8,458.4c0,3.2,1.7,6.1,4.8,6.1c3.1,0,4.8-2.8,4.8-6.2c0-3-1.6-6.1-4.8-6.1
				C213.4,452.2,211.8,455.1,211.8,458.4z"/>
			<path class="st7" d="M228.6,452v3.1h2.8v1.5h-2.8v5.8c0,1.3,0.4,2.1,1.5,2.1c0.5,0,0.9-0.1,1.1-0.1l0.1,1.5
				c-0.4,0.2-1,0.3-1.7,0.3c-0.9,0-1.6-0.3-2.1-0.8c-0.6-0.6-0.8-1.5-0.8-2.8v-5.9H225v-1.5h1.7v-2.6L228.6,452z"/>
			<path class="st7" d="M233.6,450h2v6.7h0c0.3-0.6,0.8-1,1.4-1.4c0.6-0.3,1.3-0.6,2-0.6c1.4,0,3.8,0.9,3.8,4.6v6.4h-2v-6.2
				c0-1.7-0.6-3.2-2.5-3.2c-1.3,0-2.3,0.9-2.6,2c-0.1,0.3-0.1,0.6-0.1,0.9v6.5h-2V450z"/>
			<path class="st7" d="M247,460.8c0,2.6,1.7,3.7,3.7,3.7c1.4,0,2.2-0.2,3-0.6l0.3,1.4c-0.7,0.3-1.9,0.7-3.6,0.7
				c-3.3,0-5.3-2.2-5.3-5.4s1.9-5.8,5-5.8c3.5,0,4.4,3.1,4.4,5.1c0,0.4,0,0.7-0.1,0.9H247z M252.8,459.4c0-1.2-0.5-3.2-2.7-3.2
				c-2,0-2.8,1.8-3,3.2H252.8z"/>
			<path class="st7" d="M257.1,458.4c0-1.3,0-2.4-0.1-3.4h1.7l0.1,2.1h0.1c0.5-1.4,1.7-2.4,3-2.4c0.2,0,0.4,0,0.6,0.1v1.8
				c-0.2,0-0.4-0.1-0.7-0.1c-1.4,0-2.4,1-2.6,2.5c0,0.3-0.1,0.6-0.1,0.9v5.7h-1.9V458.4z"/>
		</g>
		<g>
			<path class="st7" d="M275.3,466.7v-4.1H268v-2l6.6-10.1h3.6v9.8h2.1v2.3h-2.1v4.1H275.3z M275.3,460.2v-4.4c0-0.9,0-1.9,0.1-2.8
				h-0.1c-0.5,1-0.9,1.9-1.4,2.8l-3,4.5l0,0.1H275.3z"/>
			<path class="st7" d="M290,454.9c0,3.4-2,5.2-4.2,5.2c-2.3,0-4.1-1.8-4.2-4.9c0-3.1,1.8-5.1,4.3-5.1
				C288.5,450.1,290,452,290,454.9z M283.9,455.1c0,1.9,0.7,3.3,1.9,3.3c1.2,0,1.8-1.3,1.8-3.3c0-1.8-0.5-3.3-1.8-3.3
				C284.6,451.8,283.9,453.3,283.9,455.1z M285.8,466.9l9.4-16.8h1.8l-9.4,16.8H285.8z M301.2,461.7c0,3.4-2,5.2-4.2,5.2
				c-2.3,0-4.1-1.8-4.1-4.9c0-3.1,1.8-5.1,4.3-5.1C299.7,456.8,301.2,458.8,301.2,461.7z M295.2,461.9c0,1.9,0.7,3.3,1.9,3.3
				c1.3,0,1.8-1.3,1.8-3.3c0-1.8-0.5-3.3-1.8-3.3C295.8,458.6,295.2,460,295.2,461.9z"/>
		</g>
		<line class="st11" x1="178.5" y1="459.3" x2="195.9" y2="459.3"/>
	</g>
	<g>
		<path class="st12" d="M132.4,15.3h10.3v3.1h-6.5v3.9h6.1v3.1h-6.1v6.8h-3.8V15.3z"/>
		<path class="st12" d="M149.5,32.2v-6.9l-5.3-10h4.4l1.7,4.1c0.5,1.2,0.9,2.1,1.3,3.2h0.1c0.4-1.1,0.8-2,1.3-3.2l1.7-4.1h4.3
			l-5.6,9.8v7H149.5z"/>
		<path class="st12" d="M165.2,32.2v-2.3l2.1-1.9c3.6-3.2,5.3-5,5.3-6.9c0-1.3-0.8-2.4-2.7-2.4c-1.4,0-2.6,0.7-3.5,1.4l-1.1-2.7
			c1.2-0.9,3.1-1.7,5.3-1.7c3.7,0,5.7,2.2,5.7,5.1c0,2.7-2,4.9-4.3,7l-1.5,1.3V29h6.1v3.1H165.2z"/>
		<path class="st12" d="M191.1,23.9c0,5-2,8.5-6.2,8.5c-4.2,0-6.1-3.8-6.1-8.4c0-4.7,2-8.4,6.2-8.4
			C189.4,15.6,191.1,19.5,191.1,23.9z M182.7,24c0,3.7,0.9,5.5,2.4,5.5c1.5,0,2.3-1.9,2.3-5.6c0-3.6-0.8-5.5-2.3-5.5
			C183.6,18.5,182.6,20.3,182.7,24z"/>
		<path class="st12" d="M193,32.2v-2.3l2.1-1.9c3.6-3.2,5.3-5,5.3-6.9c0-1.3-0.8-2.4-2.7-2.4c-1.4,0-2.6,0.7-3.5,1.4l-1.1-2.7
			c1.2-0.9,3.1-1.7,5.3-1.7c3.7,0,5.7,2.2,5.7,5.1c0,2.7-2,4.9-4.3,7l-1.5,1.3V29h6.1v3.1H193z"/>
		<path class="st12" d="M207.6,28.4c0.7,0.4,2.2,1,3.8,1c2,0,3-1,3-2.2c0-1.6-1.6-2.3-3.3-2.3h-1.6v-2.7h1.5c1.3,0,2.9-0.5,2.9-1.9
			c0-1-0.8-1.7-2.4-1.7c-1.3,0-2.7,0.6-3.4,1l-0.8-2.8c1-0.6,2.9-1.2,5-1.2c3.5,0,5.4,1.8,5.4,4.1c0,1.7-1,3.1-3,3.8v0.1
			c2,0.4,3.5,1.8,3.5,4c0,2.9-2.5,5-6.7,5c-2.1,0-3.9-0.6-4.8-1.2L207.6,28.4z"/>
	</g>
</g>
</svg>
