<?xml version="1.0" encoding="utf-8"?>
<!-- Generator: Adobe Illustrator 27.7.0, SVG Export Plug-In . SVG Version: 6.00 Build 0)  -->
<svg version="1.1" id="Layer_1" xmlns="http://www.w3.org/2000/svg" xmlns:xlink="http://www.w3.org/1999/xlink" x="0px" y="0px"
	 viewBox="0 0 39.4 39.3" style="enable-background:new 0 0 39.4 39.3;" xml:space="preserve">
<style type="text/css">
	.st0{fill:#FFFFFF;}
</style>
<path class="st0" d="M0.4,19.7C0.4,30.3,9,39,19.7,39C30.4,39,39,30.3,39,19.7C39,9,30.4,0.4,19.7,0.4C9,0.4,0.4,9,0.4,19.7z
	 M15,12.3c0-0.5,0.3-0.9,0.7-1.1c0.4-0.2,0.9-0.2,1.3,0.1l11.3,7.4c0.4,0.2,0.6,0.6,0.6,1.1c0,0.4-0.2,0.8-0.6,1.1L17,28.1
	c-0.4,0.3-0.9,0.3-1.3,0C15.3,27.9,15,27.5,15,27C15,27,15,12.3,15,12.3z"/>
</svg>
