<?xml version="1.0" encoding="utf-8"?>
<!-- Generator: Adobe Illustrator 27.7.0, SVG Export Plug-In . SVG Version: 6.00 Build 0)  -->
<svg version="1.1" id="Layer_1" xmlns="http://www.w3.org/2000/svg" xmlns:xlink="http://www.w3.org/1999/xlink" x="0px" y="0px"
	 viewBox="0 0 30.2 24.1" style="enable-background:new 0 0 30.2 24.1;" xml:space="preserve">
<style type="text/css">
	.st0{fill:#FFFFFF;stroke:#FFFFFF;stroke-miterlimit:10;}
	.st1{fill-rule:evenodd;clip-rule:evenodd;fill:#FFFFFF;stroke:#FFFFFF;stroke-miterlimit:10;}
</style>
<g>
	<g>
		<g>
			<path class="st0" d="M29.2,3.1c-0.9,0.4-1.9,0.7-2.9,0.8c0.5-0.1,1.1-0.9,1.4-1.3c0.4-0.5,0.8-1.1,1-1.7c0,0,0-0.1,0-0.2
				c-0.1,0-0.1,0-0.2,0c-1.1,0.6-2.2,1-3.4,1.3c-0.1,0-0.2,0-0.2-0.1c-0.1-0.1-0.2-0.2-0.3-0.3c-0.5-0.4-1-0.8-1.7-1
				c-0.8-0.3-1.7-0.5-2.5-0.4C19.6,0.4,18.8,0.6,18,1c-0.7,0.4-1.4,0.9-1.9,1.6c-0.5,0.7-1,1.5-1.2,2.3c-0.2,0.8-0.2,1.6-0.1,2.5
				c0,0.1,0,0.2-0.1,0.1C10,6.8,6.1,5.2,3,1.6c-0.1-0.2-0.2-0.2-0.3,0c-1.4,2.1-0.7,5.4,1,7C3.9,8.8,4.1,9,4.4,9.2
				c-0.1,0-1.2-0.1-2.3-0.6C2,8.5,1.9,8.6,1.9,8.7c0,0.2,0,0.4,0,0.7c0.3,2.1,1.7,4,3.7,4.8c0.2,0.1,0.5,0.2,0.8,0.2
				c-0.5,0.1-0.9,0.2-2.2,0.1c-0.2,0-0.2,0-0.2,0.2c1,2.7,3.1,3.5,4.7,3.9c0.2,0,0.4,0,0.6,0.1c0,0,0,0,0,0
				c-0.5,0.8-2.3,1.4-3.2,1.7c-1.5,0.5-3.2,0.8-4.8,0.6c-0.3,0-0.3,0-0.4,0c-0.1,0,0,0.1,0.1,0.2c0.3,0.2,0.7,0.4,1,0.6
				c1,0.5,2.1,1,3.2,1.3c5.8,1.6,12.4,0.4,16.8-3.9c3.4-3.4,4.6-8.1,4.6-12.8c0-0.2,0.2-0.3,0.3-0.4c0.9-0.7,1.6-1.5,2.3-2.4
				c0.1-0.2,0.1-0.4,0.1-0.5c0,0,0,0,0,0C29.3,3.1,29.4,3.1,29.2,3.1z"/>
		</g>
		<g>
			<path class="st1" d="M9.3,23.7C11.7,23.7,9.4,23.7,9.3,23.7C9.6,23.7,9.3,23.7,9.3,23.7z"/>
		</g>
		<g>
			<path class="st1" d="M9.3,23.7C9.3,23.7,8.8,23.7,9.3,23.7C9.3,23.7,9.2,23.7,9.3,23.7z"/>
		</g>
		<g>
			<path class="st1" d="M10.3,23.7C10.3,23.7,10.8,23.7,10.3,23.7C10.3,23.7,10.3,23.7,10.3,23.7z"/>
		</g>
		<g>
			<path class="st1" d="M20.3,0.4c0,0-0.1,0-0.1,0C20.3,0.4,20.3,0.4,20.3,0.4z"/>
		</g>
	</g>
</g>
</svg>
